<?xml version="1.0" encoding="UTF-8"?>
<svg version="1.1" xmlns="http://www.w3.org/2000/svg" width="500" height="500">
<path d="M0 0 C1.05445313 -0.02835938 2.10890625 -0.05671875 3.1953125 -0.0859375 C4.12085938 -0.11171875 5.04640625 -0.1375 6 -0.1640625 C8.87418654 0.24238812 9.55382491 0.90156745 11.3203125 3.1640625 C11.70507336 5.27752972 11.70507336 5.27752972 11.71903992 7.76994324 C11.73157838 8.71847609 11.74411684 9.66700893 11.75703526 10.6442852 C11.75559985 11.6861706 11.75416445 12.72805599 11.75268555 13.80151367 C11.76287436 14.90385408 11.77306318 16.0061945 11.78356075 17.14193916 C11.81397064 20.83035353 11.82302089 24.51850716 11.83203125 28.20703125 C11.84897259 30.8125236 11.86717539 33.41800801 11.88656616 36.02348328 C11.93082613 42.29769772 11.9591814 48.57188625 11.98200274 54.84621137 C12.00883984 62.05031034 12.05231447 69.2542804 12.09612882 76.45829248 C12.36223242 120.69284954 12.45627941 164.92887773 12.3203125 209.1640625 C12.98345459 208.82125244 13.64659668 208.47844238 14.32983398 208.12524414 C15.21227783 207.67528076 16.09472168 207.22531738 17.00390625 206.76171875 C17.87329834 206.31578369 18.74269043 205.86984863 19.63842773 205.41040039 C22.98791647 203.85381049 26.36697449 202.8817397 29.91796875 201.90234375 C32.19418962 201.20282221 34.18513746 200.33375828 36.3203125 199.2890625 C43.5841177 195.88786152 51.59089442 194.19855874 59.3203125 192.1640625 C51.31334969 192.3580638 44.05481329 194.1735217 36.42822266 196.4362793 C30.58237755 198.1640625 30.58237755 198.1640625 27.3203125 198.1640625 C26.5962369 178.35254957 29.76952821 161.3579332 40.3203125 144.1640625 C40.9803125 144.1640625 41.6403125 144.1640625 42.3203125 144.1640625 C42.5471875 143.61234375 42.7740625 143.060625 43.0078125 142.4921875 C44.70757176 139.47713833 46.86836066 137.35175881 49.3203125 134.9140625 C50.2071875 134.02203125 51.0940625 133.13 52.0078125 132.2109375 C54.3203125 130.1640625 54.3203125 130.1640625 56.3203125 130.1640625 C56.3203125 129.5040625 56.3203125 128.8440625 56.3203125 128.1640625 C64.75063188 121.18381492 74.2394271 116.27439036 84.3203125 112.1640625 C85.20847656 111.80183594 86.09664062 111.43960938 87.01171875 111.06640625 C97.58655134 107.50836398 112.77183616 107.18628122 123.28515625 111.1171875 C136.64408087 117.98895679 145.9219478 130.96449342 150.63671875 144.94921875 C160.23604604 175.07026463 162.38143079 209.98070762 152.3203125 240.1640625 C152.16683127 242.34974884 152.04622055 244.53781884 151.9453125 246.7265625 C151.25721154 256.86041303 148.59814718 264.52760575 143.3203125 273.1640625 C142.6603125 273.1640625 142.0003125 273.1640625 141.3203125 273.1640625 C140.9903125 274.1540625 140.6603125 275.1440625 140.3203125 276.1640625 C139.6603125 276.1640625 139.0003125 276.1640625 138.3203125 276.1640625 C138.02060547 277.01871094 138.02060547 277.01871094 137.71484375 277.890625 C135.78256017 281.04073436 133.08269396 282.63446559 130.0078125 284.5390625 C129.3782666 284.93335449 128.7487207 285.32764648 128.10009766 285.73388672 C103.3847006 300.90761633 73.36975545 307.18190993 45.3203125 313.1640625 C44.23588867 313.39544922 43.15146484 313.62683594 42.03417969 313.86523438 C38.65258762 314.58010546 35.2684687 315.28121204 31.8828125 315.9765625 C30.83440186 316.19578369 29.78599121 316.41500488 28.70581055 316.64086914 C27.71363525 316.84059326 26.72145996 317.04031738 25.69921875 317.24609375 C24.8285376 317.42374268 23.95785645 317.6013916 23.06079102 317.78442383 C19.79325834 318.23707535 16.6156319 318.18755183 13.3203125 318.1640625 C13.32215609 318.83643605 13.32399967 319.5088096 13.32589912 320.20155811 C13.3700397 336.55085083 13.40315031 352.90012471 13.42393684 369.24946308 C13.43425586 377.15583242 13.4483281 385.06216202 13.47119141 392.96850586 C13.49110619 399.85849747 13.50402439 406.7484603 13.50848949 413.63847989 C13.51110012 417.2877583 13.51724914 420.93695438 13.53177261 424.58620644 C13.54784232 428.65687358 13.54829342 432.72739696 13.54736328 436.7980957 C13.55455383 438.01225662 13.56174438 439.22641754 13.56915283 440.47737122 C13.5664035 441.58374939 13.56365417 442.69012756 13.56082153 443.83003235 C13.56266512 444.79330602 13.56450871 445.75657969 13.56640816 446.74904346 C13.3203125 449.1640625 13.3203125 449.1640625 11.3203125 452.1640625 C8.74646045 452.4414301 6.44999497 452.53693838 3.8828125 452.4765625 C3.20154297 452.47978516 2.52027344 452.48300781 1.81835938 452.48632812 C-1.87949566 452.44648835 -3.53140381 452.2629183 -6.6796875 450.1640625 C-7.3671875 447.5390625 -7.3671875 447.5390625 -7.6796875 445.1640625 C-8.3603125 446.3396875 -8.3603125 446.3396875 -9.0546875 447.5390625 C-10.6796875 450.1640625 -10.6796875 450.1640625 -12.6796875 452.1640625 C-15.59056686 452.54016053 -17.15307926 452.48007862 -19.68945312 450.95800781 C-24.71474011 446.41144281 -28.50048409 441.58903607 -32.1796875 435.9140625 C-33.296791 434.23215147 -34.41527669 432.55115765 -35.53515625 430.87109375 C-36.06931152 430.06494629 -36.6034668 429.25879883 -37.15380859 428.42822266 C-39.76612687 424.5519603 -42.56655379 420.82492582 -45.38671875 417.09765625 C-46.6796875 415.1640625 -46.6796875 415.1640625 -46.6796875 413.1640625 C-47.3396875 413.1640625 -47.9996875 413.1640625 -48.6796875 413.1640625 C-50.1875 411.265625 -50.1875 411.265625 -51.8046875 408.7890625 C-52.34351563 407.97695313 -52.88234375 407.16484375 -53.4375 406.328125 C-54.6796875 404.1640625 -54.6796875 404.1640625 -54.6796875 402.1640625 C-55.3396875 402.1640625 -55.9996875 402.1640625 -56.6796875 402.1640625 C-58.27402566 400.13247115 -59.73756356 398.11210387 -61.1796875 395.9765625 C-61.58316406 395.39841797 -61.98664063 394.82027344 -62.40234375 394.22460938 C-64.6201992 390.98566205 -66.39351822 387.87577927 -67.6796875 384.1640625 C-68.3396875 384.1640625 -68.9996875 384.1640625 -69.6796875 384.1640625 C-70.1746875 382.6790625 -70.1746875 382.6790625 -70.6796875 381.1640625 C-71.39125 380.4834375 -71.39125 380.4834375 -72.1171875 379.7890625 C-74.05061264 377.77830036 -74.7628439 375.77354045 -75.6796875 373.1640625 C-76.3396875 373.1640625 -76.9996875 373.1640625 -77.6796875 373.1640625 C-79.51953125 370.7421875 -79.51953125 370.7421875 -81.6171875 367.4140625 C-82.30683594 366.34671875 -82.99648437 365.279375 -83.70703125 364.1796875 C-88.43252516 355.50499182 -89.0926705 345.86270624 -88.9453125 336.1875 C-88.94808194 333.94791497 -88.95202311 331.70833114 -88.95703125 329.46875 C-88.94867395 325.99506464 -88.92949282 322.52229641 -88.88916016 319.04882812 C-88.85615852 315.65683404 -88.86669458 312.26706892 -88.8828125 308.875 C-88.85914612 307.84869476 -88.83547974 306.82238953 -88.81109619 305.76498413 C-88.8918776 297.68128689 -91.70135589 293.34731277 -96.6796875 287.1640625 C-102.15194504 278.58132554 -105.96733346 269.31856802 -109.36328125 259.76953125 C-110.68602211 256.14671282 -112.19168518 252.69918949 -113.91796875 249.25390625 C-115.61790106 244.58998941 -116.26523553 240.86766622 -114.203125 236.2890625 C-113.50167452 234.90650795 -112.78476086 233.53171843 -112.0546875 232.1640625 C-107.52264809 223.15344154 -104.23307806 214.11063574 -101.6796875 204.3359375 C-100.6796875 201.1640625 -100.6796875 201.1640625 -98.5546875 199.5390625 C-97.6059375 199.0853125 -96.6571875 198.6315625 -95.6796875 198.1640625 C-90.04634582 195.18499911 -85.91878721 192.38378392 -83.6796875 186.1640625 C-82.51685896 181.86008673 -81.5475837 177.53641834 -80.6796875 173.1640625 C-64.97311447 179.31011281 -53.20718904 206.76598887 -46.78125 221.40625 C-42.30451185 232.04628184 -42.30451185 232.04628184 -42.6796875 237.1640625 C-41.63167969 236.5865625 -40.58367187 236.0090625 -39.50390625 235.4140625 C-38.12517848 234.66373446 -36.74626236 233.91375242 -35.3671875 233.1640625 C-34.67689453 232.7825 -33.98660156 232.4009375 -33.27539062 232.0078125 C-28.01953125 229.1640625 -28.01953125 229.1640625 -24.6796875 229.1640625 C-24.6796875 259.8540625 -24.6796875 290.5440625 -24.6796875 322.1640625 C-43.84834137 322.1640625 -59.97782857 319.5943638 -76.6796875 310.1640625 C-77.3396875 309.5040625 -77.9996875 308.8440625 -78.6796875 308.1640625 C-79.38233724 311.38181693 -79.38233724 311.38181693 -78.6796875 315.1640625 C-76.26268385 317.888138 -73.32037337 319.7749238 -70.3046875 321.7890625 C-69.45068359 322.38734863 -68.59667969 322.98563477 -67.71679688 323.60205078 C-65.93353906 324.85092174 -64.14401481 326.09088812 -62.34863281 327.32226562 C-58.24074569 330.15705345 -54.21499925 333.10240583 -50.1796875 336.0390625 C-48.69854278 337.10763922 -47.2167921 338.17537663 -45.734375 339.2421875 C-31.31963865 349.62402938 -31.31963865 349.62402938 -28.578125 351.9375 C-27.95164062 352.34226562 -27.32515625 352.74703125 -26.6796875 353.1640625 C-25.6896875 352.8340625 -24.6996875 352.5040625 -23.6796875 352.1640625 C-23.61502668 333.78910024 -23.57642279 315.41412077 -23.5546875 297.0390625 C-23.55381889 296.32695004 -23.55295029 295.61483758 -23.55205536 294.88114595 C-23.48291397 236.53302291 -24.0024118 178.19536269 -24.6796875 119.8515625 C-24.69163493 118.82076915 -24.70358236 117.7899758 -24.71589184 116.72794628 C-25.02355949 90.2064832 -25.34442625 63.68519094 -25.6796875 37.1640625 C-27.47329452 39.26660183 -29.26462869 41.37100583 -31.0546875 43.4765625 C-31.81652344 44.36891602 -31.81652344 44.36891602 -32.59375 45.27929688 C-33.08359375 45.85615234 -33.5734375 46.43300781 -34.078125 47.02734375 C-34.75367432 47.82072144 -34.75367432 47.82072144 -35.44287109 48.63012695 C-36.60843023 50.07568717 -37.64965054 51.61900706 -38.6796875 53.1640625 C-39.3396875 53.1640625 -39.9996875 53.1640625 -40.6796875 53.1640625 C-40.9890625 54.1540625 -40.9890625 54.1540625 -41.3046875 55.1640625 C-43.17093002 59.23586436 -45.65530277 62.85203248 -48.6796875 66.1640625 C-49.3396875 66.1640625 -49.9996875 66.1640625 -50.6796875 66.1640625 C-50.9271875 66.7003125 -51.1746875 67.2365625 -51.4296875 67.7890625 C-52.98621287 70.7464607 -54.71404423 73.46130301 -56.6796875 76.1640625 C-57.3396875 76.1640625 -57.9996875 76.1640625 -58.6796875 76.1640625 C-59.081875 77.03224609 -59.081875 77.03224609 -59.4921875 77.91796875 C-60.70546453 80.2128184 -62.06116866 82.07452328 -63.6796875 84.1015625 C-65.90334451 86.91039241 -68.11672413 89.72463697 -70.29296875 92.5703125 C-70.73962891 93.15433838 -71.18628906 93.73836426 -71.64648438 94.34008789 C-72.53270569 95.50011814 -73.41814286 96.66074794 -74.30273438 97.82202148 C-76.01156456 100.05325586 -77.68986466 102.17423966 -79.6796875 104.1640625 C-79.92525121 106.88406607 -80.05325236 109.50980507 -80.09375 112.234375 C-80.11311615 113.03060272 -80.1324823 113.82683044 -80.1524353 114.64718628 C-80.21229224 117.19436884 -80.25864029 119.74159645 -80.3046875 122.2890625 C-80.34286171 124.0143428 -80.38191311 125.73960393 -80.421875 127.46484375 C-80.51799859 131.69776126 -80.60200658 135.93076799 -80.6796875 140.1640625 C-84.45917346 138.68317362 -88.0647057 137.01358807 -91.6796875 135.1640625 C-91.76829401 130.93503259 -91.82060995 126.70624757 -91.8671875 122.4765625 C-91.89232422 121.29771484 -91.91746094 120.11886719 -91.94335938 118.90429688 C-92.03253945 108.05405466 -91.06894139 97.50950758 -84.7421875 88.4140625 C-84.17371094 87.5792334 -84.17371094 87.5792334 -83.59375 86.72753906 C-82.31055236 84.85706326 -80.99702569 83.01063498 -79.6796875 81.1640625 C-78.60467105 79.63337242 -77.53048859 78.10209637 -76.45703125 76.5703125 C-73.90887309 72.94206773 -71.33915916 69.32998902 -68.75195312 65.72949219 C-67.61051182 64.13945232 -67.61051182 64.13945232 -66.6796875 62.1640625 C-66.0196875 62.1640625 -65.3596875 62.1640625 -64.6796875 62.1640625 C-64.46441406 61.50792969 -64.24914062 60.85179687 -64.02734375 60.17578125 C-62.19857292 56.08887601 -59.69500411 52.62379343 -57.1171875 48.9765625 C-56.11485408 47.54629512 -55.11350428 46.11533777 -54.11328125 44.68359375 C-53.67040771 44.05557861 -53.22753418 43.42756348 -52.77124023 42.78051758 C-51.6165068 41.14597032 -51.6165068 41.14597032 -50.6796875 39.1640625 C-50.0196875 39.1640625 -49.3596875 39.1640625 -48.6796875 39.1640625 C-48.6796875 38.1740625 -48.6796875 37.1840625 -48.6796875 36.1640625 C-48.0196875 36.1640625 -47.3596875 36.1640625 -46.6796875 36.1640625 C-46.4125293 35.43356689 -46.14537109 34.70307129 -45.87011719 33.95043945 C-44.69528161 31.20056282 -43.35556057 29.01880627 -41.6328125 26.58203125 C-41.0346875 25.73189453 -40.4365625 24.88175781 -39.8203125 24.00585938 C-39.19640625 23.12994141 -38.5725 22.25402344 -37.9296875 21.3515625 C-37.32125 20.48724609 -36.7128125 19.62292969 -36.0859375 18.73242188 C-34.29698076 16.19997777 -32.49006981 13.68121726 -30.6796875 11.1640625 C-30.13505859 10.38885254 -29.59042969 9.61364258 -29.02929688 8.81494141 C-28.51689453 8.10128418 -28.00449219 7.38762695 -27.4765625 6.65234375 C-27.03151367 6.02497314 -26.58646484 5.39760254 -26.12792969 4.7512207 C-22.92574984 1.24188639 -19.50744519 0.89145767 -14.89111328 0.63183594 C-13.79645752 0.58591309 -13.79645752 0.58591309 -12.6796875 0.5390625 C-11.92800293 0.50329102 -11.17631836 0.46751953 -10.40185547 0.43066406 C-6.93496764 0.2755956 -3.4669557 0.15457764 0 0 Z M-11.6796875 5.1640625 C-11.35593643 6.15191238 -11.03218536 7.13976227 -10.69862366 8.157547 C-8.9918997 15.05620905 -9.37868801 22.20793482 -9.37670898 29.26831055 C-9.36901165 30.91075618 -9.36043957 32.55319791 -9.35106659 34.19563484 C-9.32795778 38.66771407 -9.31688721 43.13975293 -9.30780101 47.61187959 C-9.29594567 52.3641436 -9.27258837 57.11635113 -9.25038147 61.86857605 C-9.21390127 69.97704657 -9.18400313 78.08551799 -9.15869141 86.19403076 C-9.11880666 98.90235225 -9.06495582 111.61059338 -9.0078125 124.31884766 C-9.00311644 125.36706995 -8.99842038 126.41529223 -8.99358201 127.49527884 C-8.97469164 131.71054751 -8.95577669 135.92581606 -8.93671238 140.14108396 C-8.90837268 146.41794814 -8.88100942 152.69481563 -8.85444224 158.97168756 C-8.73104239 188.07288602 -8.54257953 217.17190153 -8.21118164 246.27158356 C-8.11555563 254.67451108 -8.02373753 263.07748078 -7.93359375 271.48046875 C-7.92340839 272.4256411 -7.91322304 273.37081345 -7.90272903 274.34462738 C-7.54163288 308.2210017 -7.34474337 342.09908632 -7.1171875 375.9765625 C-7.10590758 377.65296174 -7.09462626 379.32936097 -7.08334351 381.00576019 C-6.94621769 401.39184423 -6.81156479 421.77794382 -6.6796875 442.1640625 C-6.3496875 442.1640625 -6.0196875 442.1640625 -5.6796875 442.1640625 C-5.53447902 356.60959614 -5.66990582 271.05523391 -5.96882534 171.37819672 C-5.97614243 169.02174402 -5.98345741 166.66529132 -5.99076744 164.30883861 C-5.99563939 162.73843119 -6.00051796 161.1680238 -6.00540314 159.59761643 C-6.04201794 147.78760108 -6.07310158 135.97757974 -6.10128784 124.1675415 C-6.13381913 110.54964432 -6.17348781 96.9317887 -6.22237724 83.31393999 C-6.24759456 76.24043263 -6.26965066 69.16694913 -6.28304863 62.09340858 C-6.29547044 55.53814946 -6.31781596 48.9829788 -6.34707463 42.42776942 C-6.35613395 40.03800267 -6.36183312 37.64822042 -6.36390007 35.2584374 C-6.36722377 32.00506189 -6.38269559 28.75196136 -6.4012146 25.49864197 C-6.39927988 24.56020787 -6.39734517 23.62177377 -6.39535183 22.65490228 C-6.44738564 16.54894872 -6.89943791 10.72456167 -9.6796875 5.1640625 C-10.3396875 5.1640625 -10.9996875 5.1640625 -11.6796875 5.1640625 Z M64.3203125 190.1640625 C64.3203125 190.4940625 64.3203125 190.8240625 64.3203125 191.1640625 C65.9703125 191.1640625 67.6203125 191.1640625 69.3203125 191.1640625 C69.3203125 190.8340625 69.3203125 190.5040625 69.3203125 190.1640625 C67.6703125 190.1640625 66.0203125 190.1640625 64.3203125 190.1640625 Z M-44.6796875 237.1640625 C-45.0096875 237.8240625 -45.3396875 238.4840625 -45.6796875 239.1640625 C-44.6896875 238.8340625 -43.6996875 238.5040625 -42.6796875 238.1640625 C-43.3396875 237.8340625 -43.9996875 237.5040625 -44.6796875 237.1640625 Z M-59.6796875 345.1640625 C-63.12054892 348.60492392 -63.81614095 352.67757186 -63.9921875 357.4140625 C-63.8590923 363.02307444 -62.92190867 369.66543161 -59.07421875 373.953125 C-58.38392578 374.55253906 -58.38392578 374.55253906 -57.6796875 375.1640625 C-55.68104994 374.58461318 -55.68104994 374.58461318 -53.6796875 373.1640625 C-50.29854008 366.23271029 -51.06669513 359.33414585 -53.4296875 352.2265625 C-54.75841206 348.35355323 -54.75841206 348.35355323 -57.8203125 345.84765625 C-58.43390625 345.62207031 -59.0475 345.39648438 -59.6796875 345.1640625 Z " fill="#28B14D" transform="translate(319.6796875,18.8359375)"/>
<path d="M0 0 C20.00252667 16.3547713 25.0581358 39.88586391 28.08984375 64.375 C30.04401674 84.93397061 29.24736048 105.44541856 22.6875 125.125 C22.53401877 127.31068634 22.41340805 129.49875634 22.3125 131.6875 C21.62439904 141.82135053 18.96533468 149.48854325 13.6875 158.125 C13.0275 158.125 12.3675 158.125 11.6875 158.125 C11.3575 159.115 11.0275 160.105 10.6875 161.125 C10.0275 161.125 9.3675 161.125 8.6875 161.125 C8.48769531 161.69476563 8.28789062 162.26453125 8.08203125 162.8515625 C6.14974767 166.00167186 3.44988146 167.59540309 0.375 169.5 C-0.2545459 169.89429199 -0.8840918 170.28858398 -1.53271484 170.69482422 C-25.56404871 185.44858121 -54.60626497 191.69078178 -81.86767578 197.59326172 C-84.06969105 198.07219014 -86.26735121 198.56724536 -88.46484375 199.06640625 C-97.63439551 201.05811372 -105.70122434 201.52429527 -115.3125 202.125 C-115.3125 166.155 -115.3125 130.185 -115.3125 93.125 C-102.3125 87.125 -102.3125 87.125 -96.3125 85.125 C-94.89812385 84.64675995 -93.48403448 84.16767038 -92.0703125 83.6875 C-90.52606048 83.1666109 -88.98178926 82.64577868 -87.4375 82.125 C-86.67308594 81.86460937 -85.90867187 81.60421875 -85.12109375 81.3359375 C-80.22599907 79.69038785 -75.33814362 78.31558528 -70.3125 77.125 C-78.31946281 77.3190013 -85.57799921 79.1344592 -93.20458984 81.3972168 C-99.05043495 83.125 -99.05043495 83.125 -102.3125 83.125 C-103.0365756 63.31348707 -99.86328429 46.3188707 -89.3125 29.125 C-88.6525 29.125 -87.9925 29.125 -87.3125 29.125 C-87.085625 28.57328125 -86.85875 28.0215625 -86.625 27.453125 C-84.92524074 24.43807583 -82.76445184 22.31269631 -80.3125 19.875 C-79.425625 18.98296875 -78.53875 18.0909375 -77.625 17.171875 C-75.3125 15.125 -75.3125 15.125 -73.3125 15.125 C-73.3125 14.465 -73.3125 13.805 -73.3125 13.125 C-64.88218062 6.14475242 -55.3933854 1.23532786 -45.3125 -2.875 C-44.42433594 -3.23722656 -43.53617187 -3.59945312 -42.62109375 -3.97265625 C-29.58633654 -8.35837268 -11.38182096 -8.13286655 0 0 Z M-65.3125 75.125 C-65.3125 75.455 -65.3125 75.785 -65.3125 76.125 C-63.6625 76.125 -62.0125 76.125 -60.3125 76.125 C-60.3125 75.795 -60.3125 75.465 -60.3125 75.125 C-61.9625 75.125 -63.6125 75.125 -65.3125 75.125 Z " fill="#2F3292" transform="translate(449.3125,133.875)"/>
<path d="M0 0 C0.96550781 0.58652344 1.93101563 1.17304687 2.92578125 1.77734375 C7.32938129 4.5783895 7.32938129 4.5783895 9 6 C9 6.66 9 7.32 9 8 C9.639375 8.268125 10.27875 8.53625 10.9375 8.8125 C13 10 13 10 14 13 C15.485 13.495 15.485 13.495 17 14 C18.71875 16.1875 18.71875 16.1875 20.5 19 C21.38171875 20.36125 21.38171875 20.36125 22.28125 21.75 C26.1860066 29.13353976 27.58056111 35.9283432 27.5625 44.25 C27.56443359 45.18859863 27.56636719 46.12719727 27.56835938 47.09423828 C27.338054 57.56091956 24.42673745 67.1785087 21 77 C16.68607774 76.5206753 14.83430453 75.2542015 12 72 C12.4125 72.64324219 12.825 73.28648437 13.25 73.94921875 C14.48948047 75.88867369 15.72329606 77.83175436 16.953125 79.77734375 C18.23850034 81.801074 19.53849839 83.81566667 20.859375 85.81640625 C35.88834494 109.13615094 44.81697156 135.39014463 52 162 C52.45683353 154.40559218 51.49161903 147.92709577 49.42285156 140.66015625 C48.30473612 136.65806034 47.79393153 133.15356751 48 129 C48.66 129 49.32 129 50 129 C50.20625 128.34 50.4125 127.68 50.625 127 C52.49124252 122.92819814 54.97561527 119.31203002 58 116 C58.66 116 59.32 116 60 116 C60.2475 115.43796875 60.495 114.8759375 60.75 114.296875 C62.21274867 111.60907431 63.96804873 109.53594518 66 107.25 C66.70125 106.45078125 67.4025 105.6515625 68.125 104.828125 C70 103 70 103 72 103 C72 102.34 72 101.68 72 101 C76.23069859 98.17953427 79.95332446 97.80355223 85 98 C88.27782617 98.83814763 91.36999775 99.88807904 94.53125 101.08984375 C96.8742256 102.11530392 96.8742256 102.11530392 99 102 C99.226875 101.46375 99.45375 100.9275 99.6875 100.375 C101.45570089 97.17539839 103.53670203 94.70962777 106 92 C106.66 92 107.32 92 108 92 C108.04125 91.0925 108.0825 90.185 108.125 89.25 C109.29564207 84.90190088 111.26170035 84.34559978 115 82 C116.96049499 79.38600668 118.58637126 76.90998324 119.9375 73.9375 C121 72 121 72 123.3125 69.8125 C126.71245051 66.25441226 128.77037316 62.35488817 131 58 C132.32 58 133.64 58 135 58 C135.30654742 66.61738853 135.39589303 73.93475404 132 82 C131.34 82 130.68 82 130 82 C129.79117188 82.77601563 129.58234375 83.55203125 129.3671875 84.3515625 C127.53574414 87.89932991 125.83965644 88.09439717 122.125 89.375 C117.39765961 91.59292918 117.39765961 91.59292918 114.70703125 95.875 C114.31024031 97.67969383 113.9163486 99.48546352 113.56884766 101.30029297 C108.74879874 125.2197151 92.69371115 149.44830199 80.11865234 170.14355469 C79.05427382 171.90993057 78.01775855 173.68968039 76.98828125 175.4765625 C73.45193025 181.48764189 69.59874583 186.97754899 65.125 192.3125 C64.64812744 192.88258789 64.17125488 193.45267578 63.67993164 194.04003906 C62.50169023 195.40340549 61.25606964 196.70798224 60 198 C59.34 198 58.68 198 58 198 C58 198.66 58 199.32 58 200 C56.68 200.33 55.36 200.66 54 201 C53.938125 201.5775 53.87625 202.155 53.8125 202.75 C52.59817781 206.11273836 51.05245717 207.15580713 48 209 C40.37831517 211.18606464 34.27836802 209.27516315 27.48046875 205.66015625 C16.65430837 199.17714074 6.50244009 190.31219629 -2 181 C-2 180.34 -2 179.68 -2 179 C-2.66 179 -3.32 179 -4 179 C-5.3046875 177.7421875 -5.3046875 177.7421875 -6.875 175.875 C-7.48601562 175.15570313 -8.09703125 174.43640625 -8.7265625 173.6953125 C-9.47679688 172.80585938 -10.22703125 171.91640625 -11 171 C-12.00654904 169.82964136 -13.01445557 168.66044936 -14.0234375 167.4921875 C-15.09910053 166.24491429 -16.17462074 164.99751789 -17.25 163.75 C-17.76933105 163.14784668 -18.28866211 162.54569336 -18.82373047 161.92529297 C-26 153.56113072 -26 153.56113072 -26 151 C-26.66 151 -27.32 151 -28 151 C-29.48745569 149.28819665 -30.88680965 147.49982095 -32.25 145.6875 C-32.8999292 144.82439209 -32.8999292 144.82439209 -33.56298828 143.94384766 C-34.52523187 142.66231263 -35.48419516 141.37831014 -36.44042969 140.09228516 C-38.06633341 137.91100855 -39.70848118 135.74257821 -41.3515625 133.57421875 C-68.21966947 97.89277187 -83.2409963 59.32591242 -82 14 C-81.98324219 13.18660156 -81.96648437 12.37320313 -81.94921875 11.53515625 C-81.56372511 5.26813107 -79.06181454 0.41184194 -76 -5 C-75.34 -5 -74.68 -5 -74 -5 C-73.67 -5.99 -73.34 -6.98 -73 -8 C-71.29296875 -9.1328125 -71.29296875 -9.1328125 -69.1875 -10.125 C-68.50042969 -10.45757812 -67.81335938 -10.79015625 -67.10546875 -11.1328125 C-45.9202859 -19.85843512 -18.4977859 -11.29315244 0 0 Z M9 69 C9.66 69.66 10.32 70.32 11 71 C11 70.34 11 69.68 11 69 C10.34 69 9.68 69 9 69 Z " fill="#26B14A" transform="translate(102,126)"/>
<path d="M0 0 C15.70657303 6.14605031 27.47249846 33.60192637 33.8984375 48.2421875 C38.37517565 58.88221934 38.37517565 58.88221934 38 64 C39.57201172 63.13375 39.57201172 63.13375 41.17578125 62.25 C42.55450902 61.49967196 43.93342514 60.74968992 45.3125 60 C46.00279297 59.6184375 46.69308594 59.236875 47.40429688 58.84375 C52.66015625 56 52.66015625 56 56 56 C56 86.69 56 117.38 56 149 C38.14280533 149 16.5570977 147.75554406 2.17578125 135.4375 C1 134 1 134 -0.3125 131.5 C-1.82615723 128.7805613 -1.82615723 128.7805613 -4.80078125 127.7578125 C-8.6685109 125.63268632 -10.57287593 123.01198094 -12.875 119.375 C-13.30280762 118.71330811 -13.73061523 118.05161621 -14.17138672 117.36987305 C-18.86216271 109.92202325 -22.554519 102.08550772 -26 94 C-26.36432129 93.1455127 -26.72864258 92.29102539 -27.10400391 91.41064453 C-28.23157508 88.7385484 -29.33943655 86.05934736 -30.4375 83.375 C-30.77990723 82.54589111 -31.12231445 81.71678223 -31.47509766 80.86254883 C-35.88936077 69.80215498 -35.88936077 69.80215498 -34.39916992 65.10693359 C-33.47576977 63.01711971 -32.45085933 61.01542128 -31.375 59 C-26.84296059 49.98937904 -23.55339056 40.94657324 -21 31.171875 C-20 28 -20 28 -17.875 26.375 C-16.451875 25.694375 -16.451875 25.694375 -15 25 C-9.36665832 22.02093661 -5.23909971 19.21972142 -3 13 C-1.83717146 8.69602423 -0.8678962 4.37235584 0 0 Z M36 64 C35.67 64.66 35.34 65.32 35 66 C35.99 65.67 36.98 65.34 38 65 C37.34 64.67 36.68 64.34 36 64 Z " fill="#313493" transform="translate(239,192)"/>
<path d="M0 0 C13.06558265 -0.72185539 24.57661189 5.11988816 34.48828125 13.1015625 C36.12109375 15.1953125 36.12109375 15.1953125 36.15625 17.61328125 C34.83469201 20.9096957 32.99558483 22.93352615 30.55859375 25.5078125 C29.73230469 26.39082031 28.90601563 27.27382812 28.0546875 28.18359375 C27.41660156 28.84746094 26.77851563 29.51132813 26.12109375 30.1953125 C23.07106605 29.57521932 20.84982973 28.57894268 18.23046875 26.91015625 C17.16699219 26.23823242 17.16699219 26.23823242 16.08203125 25.55273438 C15.35242188 25.08416016 14.6228125 24.61558594 13.87109375 24.1328125 C13.12601563 23.66037109 12.3809375 23.18792969 11.61328125 22.70117188 C9.77946432 21.53740344 7.94986131 20.36699962 6.12109375 19.1953125 C5.62609375 19.6903125 5.62609375 19.6903125 5.12109375 20.1953125 C10.73109375 24.1553125 16.34109375 28.1153125 22.12109375 32.1953125 C20.99609375 37.8203125 20.99609375 37.8203125 18.55859375 41.0078125 C18.10355469 41.61238281 17.64851563 42.21695313 17.1796875 42.83984375 C16.65568359 43.51080078 16.65568359 43.51080078 16.12109375 44.1953125 C10.5063467 43.76670586 7.38121216 41.62667068 3.05859375 38.3203125 C1.8606372 37.42539124 0.66144084 36.53212693 -0.5390625 35.640625 C-1.10383301 35.21942383 -1.66860352 34.79822266 -2.25048828 34.36425781 C-4.38118237 32.83475807 -6.6022317 31.49503975 -8.87890625 30.1953125 C-4.42121904 34.97326074 0.60522911 38.48465915 6.03320312 42.08984375 C10.96001817 45.53618728 10.96001817 45.53618728 11.7578125 48.80078125 C11.02132585 51.57051326 10.07749644 52.92913464 8.12109375 55.0078125 C7.56421875 55.61238281 7.00734375 56.21695313 6.43359375 56.83984375 C6.00046875 57.28714844 5.56734375 57.73445313 5.12109375 58.1953125 C1.14847127 56.79952622 -1.84089017 54.91873133 -5.19140625 52.3828125 C-9.63771912 49.07518951 -14.13642468 46.0586976 -18.87890625 43.1953125 C-18.77276789 45.64755944 -18.77276789 45.64755944 -17.87890625 48.1953125 C-15.59823555 49.40828899 -15.59823555 49.40828899 -12.87890625 50.1953125 C-10.06640625 51.6953125 -10.06640625 51.6953125 -7.87890625 53.1953125 C-7.87890625 53.8553125 -7.87890625 54.5153125 -7.87890625 55.1953125 C-7.13640625 55.4428125 -6.39390625 55.6903125 -5.62890625 55.9453125 C-2.67766563 57.28678551 -1.03075651 58.80436776 1.12109375 61.1953125 C-0.36759332 65.79670891 -2.6252048 68.69758344 -5.87890625 72.1953125 C-6.53890625 72.1953125 -7.19890625 72.1953125 -7.87890625 72.1953125 C-7.87890625 72.8553125 -7.87890625 73.5153125 -7.87890625 74.1953125 C-11.11477093 74.48082997 -12.68613636 74.302905 -15.56640625 72.6953125 C-22.02640872 69.77002836 -29.15010993 71.04440354 -35.96875 72.26953125 C-37.87890625 72.1953125 -37.87890625 72.1953125 -39.5078125 71.02734375 C-44.96480654 63.73580471 -44.35139838 53.23673669 -43.25390625 44.6328125 C-40.3230655 28.67601287 -32.02040271 15.14957815 -18.7421875 5.9375 C-12.75517349 2.29465109 -6.95406471 0.72287575 0 0 Z " fill="#323492" transform="translate(207.87890625,151.8046875)"/>
<path d="M0 0 C0.33 0.99 0.66 1.98 1 3 C0.34 3 -0.32 3 -1 3 C-0.87431641 4.26457031 -0.87431641 4.26457031 -0.74609375 5.5546875 C-0.64425781 6.65039062 -0.54242188 7.74609375 -0.4375 8.875 C-0.33308594 9.96554688 -0.22867188 11.05609375 -0.12109375 12.1796875 C0 15 0 15 -1 17 C0.98 17 2.96 17 5 17 C5.0825 16.4225 5.165 15.845 5.25 15.25 C6 13 6 13 7.9375 11.1875 C10.59626204 8.36760087 11.13988992 5.72714368 12 2 C13.98 2 15.96 2 18 2 C17.34 3.32 16.68 4.64 16 6 C15.34 6 14.68 6 14 6 C13.7525 6.53625 13.505 7.0725 13.25 7.625 C11.69347463 10.5823982 9.96564327 13.29724051 8 16 C7.34 16 6.68 16 6 16 C5.731875 16.57878906 5.46375 17.15757813 5.1875 17.75390625 C3.97422297 20.0487559 2.61851884 21.91046078 1 23.9375 C-1.22365701 26.74632991 -3.43703663 29.56057447 -5.61328125 32.40625 C-6.05994141 32.99027588 -6.50660156 33.57430176 -6.96679688 34.17602539 C-7.85301819 35.33605564 -8.73845536 36.49668544 -9.62304688 37.65795898 C-11.33187706 39.88919336 -13.01017716 42.01017716 -15 44 C-15.24556371 46.72000357 -15.37356486 49.34574257 -15.4140625 52.0703125 C-15.43342865 52.86654022 -15.4527948 53.66276794 -15.4727478 54.48312378 C-15.53260474 57.03030634 -15.57895279 59.57753395 -15.625 62.125 C-15.66317421 63.8502803 -15.70222561 65.57554143 -15.7421875 67.30078125 C-15.83831109 71.53369876 -15.92231908 75.76670549 -16 80 C-19.77948596 78.51911112 -23.3850182 76.84952557 -27 75 C-27.08860651 70.77097009 -27.14092245 66.54218507 -27.1875 62.3125 C-27.21263672 61.13365234 -27.23777344 59.95480469 -27.26367188 58.74023438 C-27.35285195 47.88999216 -26.38925389 37.34544508 -20.0625 28.25 C-19.68351563 27.69344727 -19.30453125 27.13689453 -18.9140625 26.56347656 C-17.63086486 24.69300076 -16.31733819 22.84657248 -15 21 C-13.92498355 19.46930992 -12.85080109 17.93803387 -11.77734375 16.40625 C-9.22918559 12.77800523 -6.65947166 9.16592652 -4.07226562 5.56542969 C-2.93082432 3.97538982 -2.93082432 3.97538982 -2 2 C-1.34 2 -0.68 2 0 2 C0 1.34 0 0.68 0 0 Z " fill="#35B357" transform="translate(255,79)"/>
<path d="M0 0 C0.99 0.495 0.99 0.495 2 1 C2.17309573 20.33327912 2.33931517 39.66661411 2.5 59 C2.50594854 59.71477162 2.51189708 60.42954325 2.51802588 61.16597462 C2.83307191 99.06901384 3.10102102 136.97031796 3.0625 174.875 C3.06164398 175.72376709 3.06078796 176.57253418 3.05990601 177.44702148 C3.04917582 187.29804132 3.03027923 197.14901971 3 207 C3.66 207 4.32 207 5 207 C5 242.64 5 278.28 5 315 C7.97 314.67 10.94 314.34 14 314 C9.94641576 316.70238949 7.81689896 316.22937614 3 316 C2.34 315.67 1.68 315.34 1 315 C1.00222061 313.70549927 1.00444122 312.41099854 1.00672913 311.07727051 C1.02722525 298.7256782 1.04209722 286.37408944 1.05181217 274.02248383 C1.05697499 267.67627744 1.06394853 261.33008505 1.07543945 254.98388672 C1.08650819 248.83055997 1.09232614 242.67724647 1.09487724 236.52391052 C1.09668924 234.20584404 1.10022391 231.88777806 1.10573006 229.56971741 C1.13509752 216.66272016 0.95982357 203.78792145 0.5 190.88867188 C-0.14954107 172.4664453 -0.13021733 154.05140965 -0.10139394 135.6197319 C-0.09501479 130.82860213 -0.09454538 126.03747126 -0.09336853 121.24633789 C-0.09029713 112.23049231 -0.08214211 103.21465929 -0.07201904 94.19881916 C-0.06072535 83.91048738 -0.05531454 73.6221549 -0.05032361 63.33381844 C-0.03995446 42.22253869 -0.02243894 21.11127015 0 0 Z " fill="#3C8774" transform="translate(329,21)"/>
<path d="M0 0 C1.32 0 2.64 0 4 0 C4.30654742 8.61738853 4.39589303 15.93475404 1 24 C0.34 24 -0.32 24 -1 24 C-1.20625 24.76183594 -1.4125 25.52367187 -1.625 26.30859375 C-3.45779654 29.89608471 -5.34487243 30.4853476 -9 32.0625 C-13.36389931 33.81076171 -13.36389931 33.81076171 -16.375 37.18359375 C-16.58125 37.78300781 -16.7875 38.38242188 -17 39 C-17.495 38.505 -17.495 38.505 -18 38 C-18.99 38.99 -19.98 39.98 -21 41 C-21.495 39.515 -21.495 39.515 -22 38 C-26.78902145 40.43969017 -29.62722182 41.97529326 -32 47 C-32.66 46.01 -33.32 45.02 -34 44 C-33.34 44 -32.68 44 -32 44 C-31.773125 43.46375 -31.54625 42.9275 -31.3125 42.375 C-29.54429911 39.17539839 -27.46329797 36.70962777 -25 34 C-24.34 34 -23.68 34 -23 34 C-22.95875 33.0925 -22.9175 32.185 -22.875 31.25 C-21.70435793 26.90190088 -19.73829965 26.34559978 -16 24 C-14.03950501 21.38600668 -12.41362874 18.90998324 -11.0625 15.9375 C-10 14 -10 14 -7.6875 11.8125 C-4.28754949 8.25441226 -2.22962684 4.35488817 0 0 Z " fill="#37A959" transform="translate(233,184)"/>
<path d="M0 0 C0.33 0 0.66 0 1 0 C1.8611602 16.9578789 2.13611405 33.86606264 2.09765625 50.84375 C2.09578471 53.32051566 2.0943643 55.79728169 2.09336853 58.27404785 C2.08960121 64.70500766 2.07982242 71.13594387 2.06866455 77.56689453 C2.05832398 84.16438478 2.05384418 90.76187894 2.04882812 97.359375 C2.03819324 110.23959324 2.02138892 123.11979535 2 136 C2.66 136.33 3.32 136.66 4 137 C4.11164478 162.39317518 4.07199138 187.78316803 3.68161011 213.17407227 C3.64383894 215.68509158 3.60944094 218.19616387 3.57839966 220.70727539 C3.53355231 224.23087032 3.47574963 227.75400858 3.4140625 231.27734375 C3.40250626 232.33654526 3.39095001 233.39574677 3.37904358 234.48704529 C3.35917892 235.45159134 3.33931427 236.41613739 3.31884766 237.40991211 C3.30552399 238.25251083 3.29220032 239.09510956 3.2784729 239.96324158 C3 242 3 242 1 244 C0.82724089 220.58337571 0.66097666 197.1667082 0.5 173.75 C0.49405146 172.88577801 0.48810292 172.02155602 0.48197412 171.13114548 C0.17344694 126.25402869 -0.10240968 81.37843328 -0.0625 36.5 C-0.06164398 35.52999557 -0.06078796 34.55999115 -0.05990601 33.56059265 C-0.04923837 22.37370496 -0.03047868 11.18685159 0 0 Z " fill="#67C682" transform="translate(313,216)"/>
<path d="M0 0 C0.99 0.495 0.99 0.495 2 1 C2.13274653 16.63388755 2.26318968 32.26779269 2.39115143 47.90172005 C2.45066413 55.16674809 2.51084386 62.4317693 2.57275391 69.69677734 C3.04480277 125.18007189 3.04480277 125.18007189 3.0625 152.90625 C3.0637941 153.81244205 3.0650882 154.71863411 3.06642151 155.65228653 C3.08572501 172.44747428 2.66997024 189.21867105 2 206 C1.67 206 1.34 206 1 206 C0.07274296 182.5338544 -0.13811556 159.10209203 -0.10139394 135.6197319 C-0.09501479 130.82860213 -0.09454538 126.03747126 -0.09336853 121.24633789 C-0.09029713 112.23049231 -0.08214211 103.21465929 -0.07201904 94.19881916 C-0.06072535 83.91048738 -0.05531454 73.6221549 -0.05032361 63.33381844 C-0.03995446 42.22253869 -0.02243894 21.11127015 0 0 Z " fill="#50B16D" transform="translate(329,21)"/>
<path d="M0 0 C0.99 0.33 1.98 0.66 3 1 C3 1.66 3 2.32 3 3 C3.99 3.33 4.98 3.66 6 4 C5.92912957 4.85325395 5.85825914 5.70650789 5.78524113 6.58561802 C4.97256538 17.33098994 4.86427183 28.0146615 4.88647461 38.78686523 C4.88675733 40.72993976 4.88659709 42.6730144 4.8860321 44.61608887 C4.88574744 49.84438225 4.89159036 55.07265228 4.89860606 60.30094028 C4.90489499 65.78217367 4.90544776 71.26340772 4.90663147 76.74464417 C4.90972855 87.10332017 4.91791988 97.46198551 4.92798096 107.82065684 C4.93919273 119.62247157 4.94466526 131.42428683 4.94967639 143.22610557 C4.96010399 167.48407627 4.97767174 191.74203754 5 216 C4.67 216 4.34 216 4 216 C2.889733 196.02293505 2.82235629 176.0638676 2.77020454 156.0624733 C2.75450117 150.08449851 2.73056542 144.10657265 2.70530701 138.12863159 C2.63473083 121.15072734 2.57413504 104.1727986 2.52319336 87.19482422 C2.49485175 77.77277864 2.45947524 68.35078537 2.41653961 58.92879474 C2.38990491 52.99390619 2.37191854 47.05907637 2.36050236 41.12414002 C2.35134613 37.43508804 2.33397406 33.746108 2.31432343 30.05709839 C2.30688495 28.35520438 2.30276911 26.65329189 2.30232811 24.95138168 C2.2983543 16.46424951 2.24055644 8.26004796 0 0 Z " fill="#3FA75C" transform="translate(310,24)"/>
<path d="M0 0 C4.7207265 2.46765249 9.10549588 5.34202334 13.4375 8.4375 C15.01337891 9.54931641 15.01337891 9.54931641 16.62109375 10.68359375 C19 13 19 13 19.53515625 15.546875 C18.90866032 18.41869578 18.00253116 19.68481064 16 21.8125 C15.443125 22.41707031 14.88625 23.02164063 14.3125 23.64453125 C13.879375 24.09183594 13.44625 24.53914063 13 25 C8.98904888 23.59290322 5.95324484 21.67407059 2.5625 19.125 C-1.23207984 16.30470417 -5.03422497 13.57239462 -9 11 C-7.17384779 8.26077169 -5.42798296 6.20035956 -3 4 C-2.34 4 -1.68 4 -1 4 C-0.67 2.68 -0.34 1.36 0 0 Z " fill="#424398" transform="translate(200,185)"/>
<path d="M0 0 C2.0625 1.625 2.0625 1.625 4 4 C3.72556496 6.0089292 3.3818241 8.0086885 3 10 C2.92193483 12.23585359 2.8920814 14.47374504 2.90234375 16.7109375 C2.90556641 17.95488281 2.90878906 19.19882813 2.91210938 20.48046875 C2.92048828 21.76566406 2.92886719 23.05085938 2.9375 24.375 C2.94201172 25.68339844 2.94652344 26.99179688 2.95117188 28.33984375 C2.96292406 31.55994281 2.97935457 34.7799477 3 38 C2.01 38.495 2.01 38.495 1 39 C-1.625 38.0625 -1.625 38.0625 -4 37 C-4.09953791 32.85577739 -4.17177901 28.71220425 -4.21972656 24.56713867 C-4.23973246 23.15978866 -4.26694662 21.75252062 -4.30175781 20.34545898 C-4.64901503 5.93939125 -4.64901503 5.93939125 0 0 Z " fill="#26B04B" transform="translate(234,117)"/>
<path d="M0 0 C0 2 0 4 0 6 C-0.66 6 -1.32 6 -2 6 C-2.33 7.65 -2.66 9.3 -3 11 C-4.32 11.33 -5.64 11.66 -7 12 C-7.12375 12.763125 -7.2475 13.52625 -7.375 14.3125 C-8 17 -8 17 -10 20 C-7.0703125 19.21875 -7.0703125 19.21875 -4.140625 18.4375 C-2 18 -2 18 2 18 C2 18.66 2 19.32 2 20 C1.15695313 20.38671875 0.31390625 20.7734375 -0.5546875 21.171875 C-1.65039062 21.69265625 -2.74609375 22.2134375 -3.875 22.75 C-4.96554688 23.26046875 -6.05609375 23.7709375 -7.1796875 24.296875 C-10.04202519 26.02537809 -10.93521458 26.89999181 -12 30 C-12.33 29.67 -12.66 29.34 -13 29 C-13.99 29.99 -14.98 30.98 -16 32 C-16.33 31.01 -16.66 30.02 -17 29 C-21.78902145 31.43969017 -24.62722182 32.97529326 -27 38 C-27.66 37.01 -28.32 36.02 -29 35 C-28.34 35 -27.68 35 -27 35 C-26.773125 34.46375 -26.54625 33.9275 -26.3125 33.375 C-24.54429911 30.17539839 -22.46329797 27.70962777 -20 25 C-19.34 25 -18.68 25 -18 25 C-17.95875 24.0925 -17.9175 23.185 -17.875 22.25 C-16.70435793 17.90190088 -14.73829965 17.34559978 -11 15 C-9.03950501 12.38600668 -7.41362874 9.90998324 -6.0625 6.9375 C-4.52430847 4.13256251 -2.30705373 2.18562985 0 0 Z " fill="#43B264" transform="translate(228,193)"/>
<path d="M0 0 C1.44037669 0.93307421 2.87718985 1.87165077 4.3125 2.8125 C5.11300781 3.33457031 5.91351563 3.85664063 6.73828125 4.39453125 C8.7237402 5.80389849 10.3491852 7.22096657 12 9 C11.01 9.33 10.02 9.66 9 10 C9 10.66 9 11.32 9 12 C8.01 12.66 7.02 13.32 6 14 C5.33652369 16.48400985 5.33652369 16.48400985 5 19 C4.67 19.66 4.34 20.32 4 21 C4.06274328 22.9821173 4.19783231 24.96231968 4.375 26.9375 C4.51035156 28.52884766 4.51035156 28.52884766 4.6484375 30.15234375 C4.91335307 33.0694028 4.91335307 33.0694028 6 36 C5.5625 38.1875 5.5625 38.1875 5 40 C4.34 40 3.68 40 3 40 C2.34 41.32 1.68 42.64 1 44 C-0.32 43.34 -1.64 42.68 -3 42 C-2.01 41.34 -1.02 40.68 0 40 C3.33858595 32.79568294 2.63733684 26.21355696 0 18.9375 C-0.65245229 17.28598015 -1.31420242 15.63795405 -2 14 C-3.32 14 -4.64 14 -6 14 C-6.99 16.31 -7.98 18.62 -9 21 C-9.33 21 -9.66 21 -10 21 C-9.67 17.7 -9.34 14.4 -9 11 C-2.375 8.875 -2.375 8.875 1 10 C1.33 10.99 1.66 11.98 2 13 C2 12.2575 2 11.515 2 10.75 C2 8.5 2 6.25 2 4 C1.34 4 0.68 4 0 4 C0 2.68 0 1.36 0 0 Z " fill="#34B257" transform="translate(265,352)"/>
<path d="M0 0 C3.99961244 0.90396358 6.21350886 1.836956 9 5 C9.96017064 9.64082476 10 14.27649173 10 19 C7.41073669 16.41073669 7.62601957 14.97294721 7.375 11.375 C7.30023438 10.37210937 7.22546875 9.36921875 7.1484375 8.3359375 C7.09945312 7.56507813 7.05046875 6.79421875 7 6 C6.01 6.33 5.02 6.66 4 7 C2.70114457 10.89656629 2.7979718 14.62733264 2.76171875 18.69140625 C2.753647 19.55128647 2.74557526 20.41116669 2.73725891 21.29710388 C2.72342635 23.12033072 2.71270049 24.94358336 2.70483398 26.7668457 C2.69335522 28.61816068 2.67296899 30.46944365 2.64331055 32.32055664 C2.12533025 45.61983607 2.12533025 45.61983607 6.23364258 58.04272461 C7.25556813 60.6527205 6.73151154 62.34737033 6 65 C-0.42773194 57.37417037 -0.43892656 46.62895674 -0.29296875 37.109375 C-0.28660149 35.50343475 -0.28660149 35.50343475 -0.28010559 33.86505127 C-0.26350325 30.49309602 -0.2258869 27.12177023 -0.1875 23.75 C-0.17242929 21.44401913 -0.1587451 19.13802877 -0.14648438 16.83203125 C-0.11366058 11.22114456 -0.06364986 5.61061727 0 0 Z " fill="#30AA52" transform="translate(231,318)"/>
<path d="M0 0 C0.33 0 0.66 0 1 0 C1.04631461 8.68388504 1.08186471 17.36772763 1.10362434 26.05170918 C1.1140672 30.08391491 1.12823551 34.11603622 1.15087891 38.14819336 C1.17258947 42.03852863 1.18456484 45.92878264 1.18975449 49.81917381 C1.19345346 51.30435656 1.20067654 52.7895348 1.21146011 54.274683 C1.22595148 56.35289797 1.22797896 58.43077594 1.22705078 60.5090332 C1.23371262 62.28441216 1.23371262 62.28441216 1.24050903 64.09565735 C1 67 1 67 -1 70 C-3.57385205 70.2773676 -5.87031753 70.37287588 -8.4375 70.3125 C-9.11876953 70.31572266 -9.80003906 70.31894531 -10.50195312 70.32226562 C-14.19980816 70.28242585 -15.85171631 70.0988558 -19 68 C-19.40843923 65.28796348 -19.13336867 62.7562858 -19 60 C-18.67 60 -18.34 60 -18 60 C-18 61.98 -18 63.96 -18 66 C-14.57767028 67.14077657 -11.91326783 67.09815117 -8.3125 67.0625 C-7.13300781 67.05347656 -5.95351563 67.04445313 -4.73828125 67.03515625 C-3.83464844 67.02355469 -2.93101562 67.01195312 -2 67 C-1.97494385 65.78755615 -1.9498877 64.5751123 -1.92407227 63.32592773 C-0.99956987 18.97056007 -0.99956987 18.97056007 0 0 Z " fill="#79C190" transform="translate(332,401)"/>
<path d="M0 0 C0.66 0 1.32 0 2 0 C1.67 1.32 1.34 2.64 1 4 C0.34 4 -0.32 4 -1 4 C-1.20625 4.7425 -1.4125 5.485 -1.625 6.25 C-3 9 -3 9 -6.0625 10.9375 C-9.30357372 12.74470005 -9.30357372 12.74470005 -9.875 16.25 C-9.91625 17.1575 -9.9575 18.065 -10 19 C-10.66 19 -11.32 19 -12 19 C-16.5304163 22.32230529 -18.66341757 27.67826994 -20 33 C-19.63311832 35.45987018 -19.63311832 35.45987018 -19 38 C-18.9340265 40.10323534 -18.91437755 42.20835724 -18.9375 44.3125 C-18.94652344 45.38113281 -18.95554688 46.44976562 -18.96484375 47.55078125 C-18.97644531 48.35902344 -18.98804688 49.16726563 -19 50 C-20.76176836 46.7981775 -21.73351329 43.66393208 -22.625 40.125 C-22.88539063 39.11695313 -23.14578125 38.10890625 -23.4140625 37.0703125 C-24.00582246 33.9694903 -24.10338133 31.14843131 -24 28 C-23.34 28 -22.68 28 -22 28 C-21.79375 27.34 -21.5875 26.68 -21.375 26 C-19.50875748 21.92819814 -17.02438473 18.31203002 -14 15 C-13.34 15 -12.68 15 -12 15 C-11.7525 14.43796875 -11.505 13.8759375 -11.25 13.296875 C-9.78725133 10.60907431 -8.03195127 8.53594518 -6 6.25 C-5.29875 5.45078125 -4.5975 4.6515625 -3.875 3.828125 C-2 2 -2 2 0 2 C0 1.34 0 0.68 0 0 Z " fill="#5FBC7B" transform="translate(174,227)"/>
<path d="M0 0 C0.33 0 0.66 0 1 0 C1.06969519 7.8324642 1.1229099 15.66485493 1.15543652 23.49755192 C1.17105247 27.13511722 1.19221541 30.77246942 1.22631836 34.40991211 C1.25905835 37.92421483 1.27688359 41.43831335 1.28463173 44.95275688 C1.29282327 46.93740962 1.31621919 48.92198091 1.33988953 50.9065094 C1.34127908 58.39253405 1.03684246 63.7208129 -3.375 69.9375 C-5.71964034 71.47053407 -7.23576341 71.29544549 -10 71 C-12.23828125 69.46875 -12.23828125 69.46875 -14.3125 67.5 C-15.00988281 66.8503125 -15.70726562 66.200625 -16.42578125 65.53125 C-17.20501953 64.77328125 -17.20501953 64.77328125 -18 64 C-17.01 63.505 -17.01 63.505 -16 63 C-15.01 63.33 -14.02 63.66 -13 64 C-13 64.66 -13 65.32 -13 66 C-11.02 66.33 -9.04 66.66 -7 67 C-7 66.34 -7 65.68 -7 65 C-4.525 64.505 -4.525 64.505 -2 64 C-1.22145148 55.81090771 -0.81138142 47.67665983 -0.68359375 39.453125 C-0.66281265 38.31591003 -0.64203156 37.17869507 -0.62062073 36.00701904 C-0.55592726 32.42139957 -0.49661846 28.83571528 -0.4375 25.25 C-0.39423825 22.79947282 -0.3506217 20.34895188 -0.30664062 17.8984375 C-0.2003298 11.93235753 -0.09842399 5.96621502 0 0 Z " fill="#4FA366" transform="translate(312,400)"/>
<path d="M0 0 C0.66 0 1.32 0 2 0 C2 36.96 2 73.92 2 112 C1.67 112 1.34 112 1 112 C0.98969254 110.79365906 0.97938507 109.58731812 0.96876526 108.34442139 C0.87107743 96.98475244 0.76834765 85.62513884 0.66066074 74.26556015 C0.60545838 68.42526893 0.55204258 62.58497268 0.50268555 56.74462891 C0.4550025 51.11009592 0.40265812 45.47562388 0.34705925 39.84116364 C0.32665359 37.68976608 0.30793755 35.53835182 0.29092598 33.38692474 C0.26684251 30.37735449 0.23679312 27.36789923 0.20532227 24.35839844 C0.1995668 23.4657579 0.19381134 22.57311737 0.18788147 21.65342712 C0.17809265 20.83175552 0.16830383 20.01008392 0.15821838 19.16351318 C0.15176583 18.451889 0.14531328 17.74026482 0.1386652 17.00707626 C-0.00659651 14.90452044 -0.48604857 13.03920433 -1 11 C-0.91685386 9.07959244 -0.76727868 7.16126769 -0.5625 5.25 C-0.46066406 4.26515625 -0.35882813 3.2803125 -0.25390625 2.265625 C-0.17011719 1.51796875 -0.08632813 0.7703125 0 0 Z " fill="#37A454" transform="translate(309,79)"/>
<path d="M0 0 C-0.33 2.97 -0.66 5.94 -1 9 C-1.66 9 -2.32 9 -3 9 C-3 10.32 -3 11.64 -3 13 C-7.1196377 14.29243536 -10.66831683 15.26252625 -15 15 C-14.690625 14.4225 -14.38125 13.845 -14.0625 13.25 C-12.91850217 11.08319538 -12.91850217 11.08319538 -12.625 8.875 C-12.41875 8.25625 -12.2125 7.6375 -12 7 C-10.66666667 6.33333333 -9.33333333 5.66666667 -8 5 C-7.19471111 2.94999129 -7.19471111 2.94999129 -7 1 C-2.25 0 -2.25 0 0 0 Z " fill="#25B14A" transform="translate(233,198)"/>
<path d="M0 0 C0.66 0.33 1.32 0.66 2 1 C1.67 31.36 1.34 61.72 1 93 C-1.31 93 -3.62 93 -6 93 C-5.360625 92.525625 -4.72125 92.05125 -4.0625 91.5625 C-2.11706694 90.16261274 -2.11706694 90.16261274 -1 89 C-0.87490166 86.35348657 -0.81394005 83.73177781 -0.79467773 81.08374023 C-0.78477814 80.25454071 -0.77487854 79.42534119 -0.76467896 78.5710144 C-0.7329688 75.81690371 -0.70826912 73.06277574 -0.68359375 70.30859375 C-0.66303243 68.40429727 -0.64203618 66.50000545 -0.62062073 64.59571838 C-0.56531515 59.57337194 -0.51594344 54.55098373 -0.46777344 49.52856445 C-0.41762021 44.40767685 -0.36190197 39.2868502 -0.30664062 34.16601562 C-0.19895533 24.1107291 -0.09753355 14.05538975 0 4 C-0.99 4.33 -1.98 4.66 -3 5 C-3 4.01 -3 3.02 -3 2 C-2.01 1.34 -1.02 0.68 0 0 Z " fill="#2D3980" transform="translate(293,247)"/>
<path d="M0 0 C0.99 0.33 1.98 0.66 3 1 C2.50556396 1.36287109 2.01112793 1.72574219 1.50170898 2.09960938 C-2.92020231 6.06871784 -4.43179554 9.49995709 -4.82455444 15.29516602 C-4.95866766 19.36580998 -4.96635098 23.4276638 -4.9375 27.5 C-4.95062342 29.19794396 -4.96687049 30.89586681 -4.98632812 32.59375 C-5.02697417 36.72980039 -5.02510418 40.86384736 -5 45 C-7.9719385 43.87548273 -10.33440687 42.77706209 -13 41 C-11.35 41 -9.7 41 -8 41 C-8.0628418 39.6699292 -8.0628418 39.6699292 -8.12695312 38.31298828 C-8.26450624 34.97645463 -8.36413041 31.64299021 -8.43945312 28.3046875 C-8.47933393 26.86897841 -8.5336655 25.43358679 -8.60351562 23.99902344 C-8.96993191 16.27195067 -9.05493924 10.34992405 -3.96875 3.9921875 C-2.68142158 2.62700101 -1.37031387 1.28186915 0 0 Z " fill="#36AC57" transform="translate(244,114)"/>
<path d="M0 0 C2.6875 0.875 2.6875 0.875 5 2 C5 2.99 5 3.98 5 5 C6.65 5.33 8.3 5.66 10 6 C9.01 6.495 9.01 6.495 8 7 C8 8.65 8 10.3 8 12 C6.35 12.66 4.7 13.32 3 14 C3 13.01 3 12.02 3 11 C1.35 10.67 -0.3 10.34 -2 10 C-2.33 7.36 -2.66 4.72 -3 2 C-2.01 1.34 -1.02 0.68 0 0 Z " fill="#2D3091" transform="translate(207,194)"/>
<path d="M0 0 C0.33 0 0.66 0 1 0 C1.01458252 1.15935059 1.02916504 2.31870117 1.04418945 3.51318359 C1.10260299 7.85592955 1.17982962 12.19818011 1.26245117 16.54052734 C1.29549947 18.41218973 1.3235925 20.28394697 1.34643555 22.15576172 C1.48360612 33.10022265 1.74427864 42.67462694 6.25 52.8125 C7.18717211 55.54591864 6.78308668 57.25919663 6 60 C-2.56831113 49.57109847 -0.34835 33.8711609 -0.1875 21.25 C-0.17242514 19.1849056 -0.15874169 17.11980055 -0.14648438 15.0546875 C-0.11370274 10.03619166 -0.06207511 5.01821549 0 0 Z " fill="#6BB580" transform="translate(231,323)"/>
<path d="M0 0 C0.495 0.99 0.495 0.99 1 2 C-5.27 2 -11.54 2 -18 2 C-18.92538169 5.70152678 -19.08174162 6.63458162 -18 10 C-18.99 10 -19.98 10 -21 10 C-21 8.35 -21 6.7 -21 5 C-21.99 5.33 -22.98 5.66 -24 6 C-24 5.01 -24 4.02 -24 3 C-25.11375 3.2784375 -25.11375 3.2784375 -26.25 3.5625 C-28.94990963 3.99203108 -30.44631077 3.85122974 -33 3 C-29.23412998 0.58748952 -25.33752565 0.55846464 -21 0.375 C-20.25049072 0.33705322 -19.50098145 0.29910645 -18.72875977 0.26000977 C-12.48553303 -0.0338597 -6.2494568 -0.10837208 0 0 Z " fill="#4EB56C" transform="translate(328,19)"/>
<path d="M0 0 C0.66 0 1.32 0 2 0 C1.40811195 3.45122117 0.52376603 6.39801754 -0.92578125 9.58203125 C-1.31056641 10.43216797 -1.69535156 11.28230469 -2.09179688 12.15820312 C-2.49462891 13.03412109 -2.89746094 13.91003906 -3.3125 14.8125 C-3.70373047 15.67681641 -4.09496094 16.54113281 -4.49804688 17.43164062 C-6.88701698 22.68103597 -9.3897642 27.85717844 -12 33 C-13.04143454 29.4295008 -12.8563828 27.98635405 -11.1875 24.625 C-9.52127454 21.13688096 -8.1393698 17.70295186 -7 14 C-6.34 14 -5.68 14 -5 14 C-4.67 12.35 -4.34 10.7 -4 9 C-3.34 9 -2.68 9 -2 9 C-1.855625 7.700625 -1.71125 6.40125 -1.5625 5.0625 C-1.125 1.125 -1.125 1.125 0 0 Z " fill="#59B275" transform="translate(212,231)"/>
<path d="M0 0 C0.99 0.33 1.98 0.66 3 1 C5.35456898 5.83994735 5.42809945 11.00691962 5.75390625 16.29296875 C5.90445511 19.09509755 5.90445511 19.09509755 7 22 C6.5625 24.1875 6.5625 24.1875 6 26 C5.34 26 4.68 26 4 26 C3.34 27.32 2.68 28.64 2 30 C0.68 29.34 -0.64 28.68 -2 28 C-1.01 27.34 -0.02 26.68 1 26 C5.05322983 17.25355669 2.75640573 8.77783969 0 0 Z " fill="#36B055" transform="translate(264,366)"/>
<path d="M0 0 C1.30791086 3.92373258 0.22655978 6.6700736 -0.875 10.5 C-1.06191406 11.17675781 -1.24882813 11.85351562 -1.44140625 12.55078125 C-2.23146511 15.3916312 -3.06746473 18.2023942 -4 21 C-6.70931419 20.84518205 -8.46584039 20.51827919 -10.4453125 18.59765625 C-11.67679642 17.10228292 -12.8429837 15.5537076 -14 14 C-11.03 14.33 -8.06 14.66 -5 15 C-4.67 13.68 -4.34 12.36 -4 11 C-3.67 10.67 -3.34 10.34 -3 10 C-2.7746669 7.9720021 -2.55232815 5.94325126 -2.37890625 3.91015625 C-2 2 -2 2 0 0 Z " fill="#54B66F" transform="translate(127,182)"/>
<path d="M0 0 C1.1875 1.6875 1.1875 1.6875 2 4 C0.64520503 6.84506944 -0.77431099 8.77431099 -3 11 C-6.1833468 11.46456802 -7.55907466 11.30164526 -10.23828125 9.46875 C-10.92277344 8.8190625 -11.60726563 8.169375 -12.3125 7.5 C-13.00988281 6.8503125 -13.70726562 6.200625 -14.42578125 5.53125 C-14.94527344 5.0259375 -15.46476562 4.520625 -16 4 C-15.34 3.67 -14.68 3.34 -14 3 C-13.01 3.33 -12.02 3.66 -11 4 C-11 4.66 -11 5.32 -11 6 C-8.03 6.495 -8.03 6.495 -5 7 C-5 6.34 -5 5.68 -5 5 C-3.35 4.67 -1.7 4.34 0 4 C0 2.68 0 1.36 0 0 Z " fill="#4CB86E" transform="translate(310,460)"/>
<path d="M0 0 C4.17799643 2.08899822 4.92391901 3.05544612 7 7 C6.01 7.66 5.02 8.32 4 9 C3.74969023 11.58380177 3.74969023 11.58380177 4 14 C2.02 14.33 0.04 14.66 -2 15 C-1.34 10.05 -0.68 5.1 0 0 Z " fill="#30348D" transform="translate(239,192)"/>
<path d="M0 0 C1.85625 0.0309375 1.85625 0.0309375 3.75 0.0625 C3.42 1.7125 3.09 3.3625 2.75 5.0625 C1.780625 4.835625 0.81125 4.60875 -0.1875 4.375 C-6.98893617 3.39746565 -13.40857213 6.91711576 -19.25 10.0625 C-19.25 9.4025 -19.25 8.7425 -19.25 8.0625 C-18.59 8.0625 -17.93 8.0625 -17.25 8.0625 C-16.92 7.0725 -16.59 6.0825 -16.25 5.0625 C-14.54296875 3.9296875 -14.54296875 3.9296875 -12.4375 2.9375 C-11.40689453 2.43863281 -11.40689453 2.43863281 -10.35546875 1.9296875 C-6.8313648 0.47820127 -3.80602609 -0.06343377 0 0 Z " fill="#4BB366" transform="translate(45.25,112.9375)"/>
<path d="M0 0 C0.33 0 0.66 0 1 0 C0.67 6.27 0.34 12.54 0 19 C0.66 19 1.32 19 2 19 C2 17.35 2 15.7 2 14 C2.99 14.33 3.98 14.66 5 15 C4.67 16.32 4.34 17.64 4 19 C6.97 19 9.94 19 13 19 C13 19.33 13 19.66 13 20 C11.23050388 20.50471197 9.45934777 21.00360685 7.6875 21.5 C6.70136719 21.7784375 5.71523438 22.056875 4.69921875 22.34375 C2 23 2 23 -1 23 C-1.02902429 19.72918529 -1.04680684 16.4584037 -1.0625 13.1875 C-1.07087891 12.25873047 -1.07925781 11.32996094 -1.08789062 10.37304688 C-1.09111328 9.48037109 -1.09433594 8.58769531 -1.09765625 7.66796875 C-1.10289307 6.84578857 -1.10812988 6.0236084 -1.11352539 5.17651367 C-1 3 -1 3 0 0 Z " fill="#6668A5" transform="translate(348,194)"/>
<path d="M0 0 C1.32 0.33 2.64 0.66 4 1 C4 1.99 4 2.98 4 4 C4.99 4 5.98 4 7 4 C7.33 4.99 7.66 5.98 8 7 C9.65 7 11.3 7 13 7 C12.938125 7.886875 12.87625 8.77375 12.8125 9.6875 C13.01951982 13.34485017 13.916074 15.04777151 16 18 C15.01 18 14.02 18 13 18 C11.01348461 15.79210474 9.22097318 13.6123403 7.4375 11.25 C6.94314453 10.61578125 6.44878906 9.9815625 5.93945312 9.328125 C3.61699115 6.31112433 1.63353697 3.45325084 0 0 Z " fill="#47B266" transform="translate(56,252)"/>
<path d="M0 0 C0 3.52655706 -0.80479915 6.53674957 -1.66015625 9.94140625 C-2.2162174 12.05667055 -2.2162174 12.05667055 -1 14 C-0.92934383 16.04055005 -0.91578024 18.08334257 -0.9375 20.125 C-0.94652344 21.22070312 -0.95554688 22.31640625 -0.96484375 23.4453125 C-0.97644531 24.28835938 -0.98804688 25.13140625 -1 26 C-2.76176836 22.7981775 -3.73351329 19.66393208 -4.625 16.125 C-5.01558594 14.61292969 -5.01558594 14.61292969 -5.4140625 13.0703125 C-6.00582246 9.9694903 -6.10338133 7.14843131 -6 4 C-4.68 4 -3.36 4 -2 4 C-2 3.01 -2 2.02 -2 1 C-1.34 0.67 -0.68 0.34 0 0 Z " fill="#4EB76C" transform="translate(156,251)"/>
<path d="M0 0 C1.86551426 3.58752742 3.42535928 7.27812193 5 11 C5.66 10.67 6.32 10.34 7 10 C7 16.6 7 23.2 7 30 C6.67 30 6.34 30 6 30 C4.98826657 26.12796701 3.99271358 22.25194898 3 18.375 C2.71382812 17.28058594 2.42765625 16.18617188 2.1328125 15.05859375 C1.86210937 13.99511719 1.59140625 12.93164062 1.3125 11.8359375 C1.06113281 10.86188965 0.80976563 9.8878418 0.55078125 8.88427734 C-0.02726747 5.8572084 -0.09569811 3.0743018 0 0 Z " fill="#68BD83" transform="translate(23,172)"/>
<path d="M0 0 C0.66 1.32 1.32 2.64 2 4 C10.25 4.33 18.5 4.66 27 5 C27 5.66 27 6.32 27 7 C27.66 7 28.32 7 29 7 C28.67 7.99 28.34 8.98 28 10 C27.21625 9.505 26.4325 9.01 25.625 8.5 C18.91000502 5.72138139 11.92852357 6.81320538 4.91015625 8.07421875 C3 8 3 8 1.29296875 6.65234375 C-0.18431397 4.76445676 -0.68449186 3.36631107 -1 1 C-0.67 0.67 -0.34 0.34 0 0 Z " fill="#757CAE" transform="translate(167,216)"/>
<path d="M0 0 C7.63302752 4.00393185 7.63302752 4.00393185 8.875 7.375 C7.54763636 11.35709092 4.88626835 14.01924072 2 17 C1.01 16.67 0.02 16.34 -1 16 C-0.34 15.01 0.32 14.02 1 13 C1.99 13 2.98 13 4 13 C3.979375 12.195625 3.95875 11.39125 3.9375 10.5625 C4 8 4 8 5 7 C3.68 6.67 2.36 6.34 1 6 C0.67 4.02 0.34 2.04 0 0 Z " fill="#6670A2" transform="translate(211,193)"/>
<path d="M0 0 C1.98 0 3.96 0 6 0 C5.34 1.32 4.68 2.64 4 4 C3.34 4 2.68 4 2 4 C1.7525 4.53625 1.505 5.0725 1.25 5.625 C-0.30652537 8.5823982 -2.03435673 11.29724051 -4 14 C-4.66 14 -5.32 14 -6 14 C-6.66 15.32 -7.32 16.64 -8 18 C-8.33 17.01 -8.66 16.02 -9 15 C-8.34 15 -7.68 15 -7 15 C-6.9175 14.4225 -6.835 13.845 -6.75 13.25 C-6 11 -6 11 -4.0625 9.1875 C-1.40373796 6.36760087 -0.86011008 3.72714368 0 0 Z " fill="#54B86D" transform="translate(267,81)"/>
<path d="M0 0 C1.32 0 2.64 0 4 0 C4 3.96 4 7.92 4 12 C3.236875 11.319375 2.47375 10.63875 1.6875 9.9375 C0.800625 9.298125 -0.08625 8.65875 -1 8 C-1.99 8.33 -2.98 8.66 -4 9 C-2.80100302 5.9168649 -1.52299523 2.93720508 0 0 Z " fill="#54AE76" transform="translate(233,184)"/>
<path d="M0 0 C0.99 0.33 1.98 0.66 3 1 C3 1.66 3 2.32 3 3 C3.99 3.33 4.98 3.66 6 4 C5.85834107 6.39614575 5.71181159 8.79182897 5.5625 11.1875 C5.50352539 12.19780273 5.50352539 12.19780273 5.44335938 13.22851562 C5.21072435 16.89699102 4.82792989 20.41694206 4 24 C3.67 24 3.34 24 3 24 C2.91697632 23.12263184 2.91697632 23.12263184 2.83227539 22.22753906 C2.57882735 19.56804892 2.32071175 16.90903168 2.0625 14.25 C1.97548828 13.32960938 1.88847656 12.40921875 1.79882812 11.4609375 C1.71181641 10.57148437 1.62480469 9.68203125 1.53515625 8.765625 C1.456604 7.94868164 1.37805176 7.13173828 1.29711914 6.29003906 C1.01670988 4.12879099 0.57555495 2.09982687 0 0 Z " fill="#28B050" transform="translate(310,24)"/>
<path d="M0 0 C0.33 0 0.66 0 1 0 C1.22304384 12.51962211 1.15649645 24.6386543 -1 37 C-1.33 37 -1.66 37 -2 37 C-2.02690844 34.37493198 -2.04679404 31.75013827 -2.0625 29.125 C-2.07087891 28.37863281 -2.07925781 27.63226563 -2.08789062 26.86328125 C-2.11328125 21.2265625 -2.11328125 21.2265625 -1 19 C-0.84932786 17.5534758 -0.75138964 16.1012066 -0.68359375 14.6484375 C-0.64169922 13.79765625 -0.59980469 12.946875 -0.55664062 12.0703125 C-0.51732422 11.18085938 -0.47800781 10.29140625 -0.4375 9.375 C-0.39431641 8.4778125 -0.35113281 7.580625 -0.30664062 6.65625 C-0.20043139 4.43765717 -0.09838806 2.2189512 0 0 Z " fill="#7373AC" transform="translate(477,208)"/>
<path d="M0 0 C0.33 0.99 0.66 1.98 1 3 C-5 9 -5 9 -8.5625 9.0625 C-9.696875 9.041875 -10.83125 9.02125 -12 9 C-12 10.65 -12 12.3 -12 14 C-12.99 14 -13.98 14 -15 14 C-14.8125 11.6875 -14.8125 11.6875 -14 9 C-11.9375 7.5 -11.9375 7.5 -9 6 C-7.57622329 5.13661751 -6.15986775 4.26091331 -4.75 3.375 C-4.06421875 2.94960937 -3.3784375 2.52421875 -2.671875 2.0859375 C-1.03728233 1.10655753 -1.03728233 1.10655753 0 0 Z " fill="#646DA1" transform="translate(233,211)"/>
<path d="M0 0 C1.48754006 0.73325207 2.96486192 1.48726078 4.4375 2.25 C5.67306641 2.87648437 5.67306641 2.87648437 6.93359375 3.515625 C9 5 9 5 9.93359375 6.9375 C10.02036124 9.63239618 9.25924309 10.63722164 7.625 12.75 C7.16351563 13.36359375 6.70203125 13.9771875 6.2265625 14.609375 C5.82179687 15.06828125 5.41703125 15.5271875 5 16 C4.67 16 4.34 16 4 16 C4 14.35 4 12.7 4 11 C4.66 11 5.32 11 6 11 C6 9.68 6 8.36 6 7 C5.34 7 4.68 7 4 7 C3.896875 6.360625 3.79375 5.72125 3.6875 5.0625 C3.460625 4.381875 3.23375 3.70125 3 3 C2.01 2.67 1.02 2.34 0 2 C0 1.34 0 0.68 0 0 Z " fill="#505596" transform="translate(220,178)"/>
<path d="M0 0 C0.66 0.33 1.32 0.66 2 1 C1.53234153 5.7190991 -0.34934594 7.91832317 -3.5625 11.3125 C-4.80193359 12.63701172 -4.80193359 12.63701172 -6.06640625 13.98828125 C-6.70449219 14.65214844 -7.34257812 15.31601563 -8 16 C-9.9375 15.625 -9.9375 15.625 -12 15 C-12.33 14.34 -12.66 13.68 -13 13 C-11.02 13 -9.04 13 -7 13 C-6.67 11.35 -6.34 9.7 -6 8 C-5.01 7.67 -4.02 7.34 -3 7 C-2.67 6.01 -2.34 5.02 -2 4 C-1.01 4 -0.02 4 1 4 C0.67 2.68 0.34 1.36 0 0 Z " fill="#676BA6" transform="translate(242,166)"/>
<path d="M0 0 C0.66 0 1.32 0 2 0 C2 11.88 2 23.76 2 36 C1.67 36 1.34 36 1 36 C0.96241577 35.07719238 0.96241577 35.07719238 0.92407227 34.13574219 C0.80781513 31.34029844 0.68522358 28.54516702 0.5625 25.75 C0.52318359 24.78191406 0.48386719 23.81382813 0.44335938 22.81640625 C0.40146484 21.88183594 0.35957031 20.94726562 0.31640625 19.984375 C0.27974854 19.12553711 0.24309082 18.26669922 0.20532227 17.38183594 C0.01263916 15.14662031 -0.45019482 13.16741382 -1 11 C-0.91685386 9.07959244 -0.76727868 7.16126769 -0.5625 5.25 C-0.46066406 4.26515625 -0.35882813 3.2803125 -0.25390625 2.265625 C-0.17011719 1.51796875 -0.08632813 0.7703125 0 0 Z " fill="#48A561" transform="translate(309,79)"/>
<path d="M0 0 C0.99 0.33 1.98 0.66 3 1 C2.9278125 2.19238281 2.855625 3.38476562 2.78125 4.61328125 C2.68745339 6.17968471 2.59370595 7.74609111 2.5 9.3125 C2.45230469 10.09818359 2.40460938 10.88386719 2.35546875 11.69335938 C2.31035156 12.45068359 2.26523438 13.20800781 2.21875 13.98828125 C2.17685547 14.68477783 2.13496094 15.38127441 2.09179688 16.09887695 C2.01299029 17.73096966 2 19.36600579 2 21 C1 23.1875 1 23.1875 0 25 C-1.02820502 21.91538494 -1.04582849 20.10314761 -0.87890625 16.89453125 C-0.83056641 15.91162109 -0.78222656 14.92871094 -0.73242188 13.91601562 C-0.67634766 12.89185547 -0.62027344 11.86769531 -0.5625 10.8125 C-0.51029297 9.77673828 -0.45808594 8.74097656 -0.40429688 7.67382812 C-0.27461607 5.11557951 -0.13965022 2.55772062 0 0 Z " fill="#37AF59" transform="translate(155,270)"/>
<path d="M0 0 C0.33 0 0.66 0 1 0 C1 11.22 1 22.44 1 34 C-4 32 -4 32 -7 30 C-5.35 30 -3.7 30 -2 30 C-0.92044788 26.76134365 -0.79558259 24.20844162 -0.68359375 20.80078125 C-0.64169922 19.59228516 -0.59980469 18.38378906 -0.55664062 17.13867188 C-0.51732422 15.87603516 -0.47800781 14.61339844 -0.4375 13.3125 C-0.37272461 11.40114258 -0.37272461 11.40114258 -0.30664062 9.45117188 C-0.2004514 6.30089148 -0.09840467 3.15053161 0 0 Z " fill="#479A5E" transform="translate(238,125)"/>
<path d="M0 0 C0.33 0 0.66 0 1 0 C1 1.98 1 3.96 1 6 C4.42232972 7.14077657 7.08673217 7.09815117 10.6875 7.0625 C11.86699219 7.05347656 13.04648437 7.04445313 14.26171875 7.03515625 C15.16535156 7.02355469 16.06898438 7.01195312 17 7 C17.33 5.68 17.66 4.36 18 3 C18 5.31 18 7.62 18 10 C15.5622037 10.05397335 13.12560315 10.09365616 10.6875 10.125 C9.65206055 10.15013672 9.65206055 10.15013672 8.59570312 10.17578125 C4.82864604 10.21217794 3.21568296 10.14378864 0 8 C-0.40843923 5.28796348 -0.13336867 2.7562858 0 0 Z " fill="#67BF81" transform="translate(313,461)"/>
<path d="M0 0 C5.75 -0.125 5.75 -0.125 8 1 C7.67 2.32 7.34 3.64 7 5 C7.66 5 8.32 5 9 5 C9.33 6.32 9.66 7.64 10 9 C10.66 9 11.32 9 12 9 C11.67 9.99 11.34 10.98 11 12 C6.43951988 8.38748484 2.98334854 5.01202555 0 0 Z " fill="#4AB96A" transform="translate(87,291)"/>
<path d="M0 0 C0.99 0.33 1.98 0.66 3 1 C2.56429688 1.4846875 2.12859375 1.969375 1.6796875 2.46875 C-2.0587812 6.67655027 -5.5489606 10.9611217 -8.8359375 15.53125 C-9.41214844 16.25828125 -9.41214844 16.25828125 -10 17 C-10.33 17 -10.66 17 -11 17 C-11 15.35 -11 13.7 -11 12 C-9.68 11.67 -8.36 11.34 -7 11 C-7.33 8.69 -7.66 6.38 -8 4 C-7.34 4 -6.68 4 -6 4 C-6 4.66 -6 5.32 -6 6 C-5.01 6 -4.02 6 -3 6 C-2.87625 5.38125 -2.7525 4.7625 -2.625 4.125 C-2 2 -2 2 0 0 Z " fill="#5BBD78" transform="translate(292,54)"/>
<path d="M0 0 C-0.30904407 2.88441135 -1.01617865 4.0176954 -3 6.1875 C-7.47513381 8.89122668 -11.97433725 9.55866899 -17.13671875 8.60546875 C-18.77980261 8.14220576 -20.39464333 7.58066092 -22 7 C-18.58860997 5.90348177 -15.79344419 6.05784527 -12.25 6.4375 C-11.26515625 6.53933594 -10.2803125 6.64117187 -9.265625 6.74609375 C-8.14414063 6.87177734 -8.14414063 6.87177734 -7 7 C-7 6.34 -7 5.68 -7 5 C-6.01 5 -5.02 5 -4 5 C-4 3.68 -4 2.36 -4 1 C-2 0 -2 0 0 0 Z " fill="#68BD81" transform="translate(156,327)"/>
<path d="M0 0 C0 2 0 4 0 6 C-0.66 6 -1.32 6 -2 6 C-2.33 7.65 -2.66 9.3 -3 11 C-4.32 11.33 -5.64 11.66 -7 12 C-7 12.99 -7 13.98 -7 15 C-7.99 15 -8.98 15 -10 15 C-9.33333333 13.66666667 -8.66666667 12.33333333 -8 11 C-7.3503125 9.5459375 -7.3503125 9.5459375 -6.6875 8.0625 C-4.86419868 4.75354576 -2.76966816 2.54510047 0 0 Z " fill="#43B065" transform="translate(228,193)"/>
<path d="M0 0 C3 3.75 3 3.75 3 6 C2.01 6.33 1.02 6.66 0 7 C0 6.01 0 5.02 0 4 C-4.78902145 6.43969017 -7.62722182 7.97529326 -10 13 C-10.66 12.01 -11.32 11.02 -12 10 C-11.34 10 -10.68 10 -10 10 C-9.7525 9.4225 -9.505 8.845 -9.25 8.25 C-7.79320504 5.62776908 -6.31621258 3.90746919 -4 2 C-2.68 2 -1.36 2 0 2 C0 1.34 0 0.68 0 0 Z " fill="#51B973" transform="translate(211,218)"/>
<path d="M0 0 C0.66 0 1.32 0 2 0 C1.67 1.32 1.34 2.64 1 4 C0.34 4 -0.32 4 -1 4 C-1.20625 4.7425 -1.4125 5.485 -1.625 6.25 C-3.39748479 9.79496959 -5.67431884 10.94798396 -9 13 C-9.33 13.66 -9.66 14.32 -10 15 C-10.66 15 -11.32 15 -12 15 C-10.49017269 11.57143381 -8.48286031 9.04321784 -6 6.25 C-4.948125 5.05117187 -4.948125 5.05117187 -3.875 3.828125 C-2 2 -2 2 0 2 C0 1.34 0 0.68 0 0 Z " fill="#67BE83" transform="translate(174,227)"/>
<path d="M0 0 C0 0.66 0 1.32 0 2 C-5.97332123 5.4753869 -10.11509775 6.57374185 -17 6 C-11.97470313 2.64980209 -6.22982527 -0.80384842 0 0 Z " fill="#6165A1" transform="translate(352,221)"/>
<path d="M0 0 C3.37368681 3.07513046 5.50901962 6.28518856 7.75 10.25 C8.67039062 11.86648437 8.67039062 11.86648437 9.609375 13.515625 C10.06828125 14.33546875 10.5271875 15.1553125 11 16 C10.01 16.33 9.02 16.66 8 17 C7.67 15.35 7.34 13.7 7 12 C6.01 11.67 5.02 11.34 4 11 C3.33333333 8.66666667 2.66666667 6.33333333 2 4 C1.01 3.67 0.02 3.34 -1 3 C-0.67 2.01 -0.34 1.02 0 0 Z " fill="#5EBB77" transform="translate(116,203)"/>
<path d="M0 0 C-0.33 0.66 -0.66 1.32 -1 2 C-3.23032132 1.50437304 -5.16578631 0.92401461 -7.25 -0.03125 C-10.43633304 -1.15370823 -12.94476496 -1.19901615 -16.3125 -1.125 C-17.38113281 -1.10695312 -18.44976562 -1.08890625 -19.55078125 -1.0703125 C-20.76314453 -1.03550781 -20.76314453 -1.03550781 -22 -1 C-21.67 -1.66 -21.34 -2.32 -21 -3 C-13.34744595 -5.05312426 -6.8885193 -3.30074883 0 0 Z " fill="#60B17C" transform="translate(198,228)"/>
<path d="M0 0 C0.99 0.33 1.98 0.66 3 1 C2.5464821 8.02952752 0.87940913 13.5849443 -2 20 C-2.144375 19.38125 -2.28875 18.7625 -2.4375 18.125 C-2.93152225 15.96741678 -2.93152225 15.96741678 -4 14 C-3.01 14 -2.02 14 -1 14 C-0.855625 13.13375 -0.71125 12.2675 -0.5625 11.375 C-0.04166667 8.25 0.47916667 5.125 1 2 C0.34 1.67 -0.32 1.34 -1 1 C-0.67 0.67 -0.34 0.34 0 0 Z " fill="#5D5F9C" transform="translate(468,267)"/>
<path d="M0 0 C2.9375 0.75 2.9375 0.75 6 2 C6.33 3.32 6.66 4.64 7 6 C4.03 6 1.06 6 -2 6 C-2.33 4.68 -2.66 3.36 -3 2 C-2.34 2 -1.68 2 -1 2 C-0.67 1.34 -0.34 0.68 0 0 Z " fill="#2F318E" transform="translate(171,215)"/>
<path d="M0 0 C1.44037669 0.93307421 2.87718985 1.87165077 4.3125 2.8125 C5.11300781 3.33457031 5.91351563 3.85664063 6.73828125 4.39453125 C8.7237402 5.80389849 10.3491852 7.22096657 12 9 C11.01 9.33 10.02 9.66 9 10 C8.34 9.67 7.68 9.34 7 9 C7 8.34 7 7.68 7 7 C5.8553125 6.814375 5.8553125 6.814375 4.6875 6.625 C2 6 2 6 -1 4 C-0.67 2.68 -0.34 1.36 0 0 Z " fill="#4FB56F" transform="translate(243,336)"/>
<path d="M0 0 C-1.32 0.33 -2.64 0.66 -4 1 C-3.67 2.32 -3.34 3.64 -3 5 C-7.17587745 6.39195915 -9.13474776 4.82323219 -13 3 C-8.8341563 0.22277086 -4.9360889 -1.89849573 0 0 Z " fill="#5353A1" transform="translate(368,216)"/>
<path d="M0 0 C0.33 0.66 0.66 1.32 1 2 C0.25234375 2.04898438 -0.4953125 2.09796875 -1.265625 2.1484375 C-2.25046875 2.22320312 -3.2353125 2.29796875 -4.25 2.375 C-5.71179688 2.47941406 -5.71179688 2.47941406 -7.203125 2.5859375 C-9.89633189 2.98465249 -11.66963279 3.63507063 -14 5 C-14.99 4.01 -15.98 3.02 -17 2 C-11.16200408 0.30167391 -6.06892629 -0.25287193 0 0 Z " fill="#8081AF" transform="translate(215,152)"/>
<path d="M0 0 C1.18414294 3.55242882 0.69535532 4.69830562 -0.4375 8.1875 C-0.72496094 9.08855469 -1.01242187 9.98960938 -1.30859375 10.91796875 C-1.53675781 11.60503906 -1.76492188 12.29210938 -2 13 C-3.65 12.67 -5.3 12.34 -7 12 C-5.44298069 7.32894208 -2.91552627 3.91294315 0 0 Z " fill="#57BD77" transform="translate(286,34)"/>
<path d="M0 0 C0.99 0.33 1.98 0.66 3 1 C5.29453495 0.90593246 5.29453495 0.90593246 7.6875 0.5625 C8.49574219 0.46066406 9.30398438 0.35882813 10.13671875 0.25390625 C11.05904297 0.12822266 11.05904297 0.12822266 12 0 C9.51737568 2.48262432 7.38224713 3.07286975 4.0625 4.1875 C3.00160156 4.55230469 1.94070313 4.91710937 0.84765625 5.29296875 C-2 6 -2 6 -5 5 C-3.35 3.35 -1.7 1.7 0 0 Z " fill="#6B6BA8" transform="translate(414,314)"/>
<path d="M0 0 C-0.125 1.875 -0.125 1.875 -1 4 C-4.0625 5.25 -4.0625 5.25 -7 6 C-7.12375 5.360625 -7.2475 4.72125 -7.375 4.0625 C-7.684375 3.0415625 -7.684375 3.0415625 -8 2 C-8.66 1.67 -9.32 1.34 -10 1 C-3.71428571 -1.42857143 -3.71428571 -1.42857143 0 0 Z " fill="#47489B" transform="translate(414,130)"/>
<path d="M0 0 C1.98 0 3.96 0 6 0 C8.42857143 7.42857143 8.42857143 7.42857143 7 11 C7 10.34 7 9.68 7 9 C6.34 9 5.68 9 5 9 C4.67 8.01 4.34 7.02 4 6 C3.505 5.505 3.01 5.01 2.5 4.5 C1 3 1 3 0 0 Z " fill="#56B972" transform="translate(245,394)"/>
<path d="M0 0 C2.66433008 1.33216504 2.74447159 2.47151628 3.6875 5.25 C4.83662501 8.85250691 5.3018401 11.33117789 4 15 C-0.08511822 10.0268126 -0.12259508 6.37494396 0 0 Z " fill="#4BB16C" transform="translate(233,368)"/>
<path d="M0 0 C1.2065625 0.0309375 1.2065625 0.0309375 2.4375 0.0625 C2.4375 0.7225 2.4375 1.3825 2.4375 2.0625 C0.19006955 2.59431175 -2.06057102 3.11257126 -4.3125 3.625 C-6.19195312 4.06005859 -6.19195312 4.06005859 -8.109375 4.50390625 C-11.15723748 4.99694283 -12.73891828 5.13916879 -15.5625 4.0625 C-15.2325 3.4025 -14.9025 2.7425 -14.5625 2.0625 C-12.09375 1.68359375 -12.09375 1.68359375 -9.0625 1.5 C-5.62553448 1.28297512 -3.140872 0.07660663 0 0 Z " fill="#6567A5" transform="translate(366.5625,328.9375)"/>
<path d="M0 0 C2 1 2 1 2.8515625 3.06640625 C3.10679688 3.89011719 3.36203125 4.71382813 3.625 5.5625 C3.88539062 6.38878906 4.14578125 7.21507812 4.4140625 8.06640625 C4.60742188 8.70449219 4.80078125 9.34257812 5 10 C4.01 10 3.02 10 2 10 C0.39453125 8.25 0.39453125 8.25 -1.1875 6 C-1.71730469 5.2575 -2.24710937 4.515 -2.79296875 3.75 C-3.19128906 3.1725 -3.58960937 2.595 -4 2 C-2.68 2 -1.36 2 0 2 C0 1.34 0 0.68 0 0 Z " fill="#5BBC76" transform="translate(83,280)"/>
<path d="M0 0 C0.33 0.66 0.66 1.32 1 2 C-0.21484375 4.6015625 -0.21484375 4.6015625 -1.9375 7.625 C-2.78634766 9.12933594 -2.78634766 9.12933594 -3.65234375 10.6640625 C-4.09707031 11.43492187 -4.54179687 12.20578125 -5 13 C-5.97920084 9.58367707 -5.80093488 7.47071781 -5 4 C-5 3.01 -5 2.02 -5 1 C-3.35 0.67 -1.7 0.34 0 0 Z " fill="#53B873" transform="translate(198,264)"/>
<path d="M0 0 C0.93423645 3.01031744 1.04449911 3.86650268 0 7 C-0.66 7 -1.32 7 -2 7 C-1.76603516 8.01320313 -1.76603516 8.01320313 -1.52734375 9.046875 C-1.33269531 9.93890625 -1.13804687 10.8309375 -0.9375 11.75 C-0.74027344 12.63171875 -0.54304687 13.5134375 -0.33984375 14.421875 C-0.00174128 16.98679028 -0.18841365 18.57091639 -1 21 C-4.72239748 11.5362776 -4.72239748 11.5362776 -3 6 C-2.06057514 3.97084231 -1.07401615 1.96124688 0 0 Z " fill="#777DB0" transform="translate(208,250)"/>
<path d="M0 0 C0.66 0.33 1.32 0.66 2 1 C1.67 8.59 1.34 16.18 1 24 C0.67 24 0.34 24 0 24 C0 17.4 0 10.8 0 4 C-0.99 4.33 -1.98 4.66 -3 5 C-3 4.01 -3 3.02 -3 2 C-2.01 1.34 -1.02 0.68 0 0 Z " fill="#3E4B87" transform="translate(293,247)"/>
<path d="M0 0 C4 2 4 2 6 5 C5.01 5 4.02 5 3 5 C2.34 6.98 1.68 8.96 1 11 C0.34 10.67 -0.32 10.34 -1 10 C-0.67 6.7 -0.34 3.4 0 0 Z " fill="#4C5A8D" transform="translate(239,192)"/>
<path d="M0 0 C0.33 0.66 0.66 1.32 1 2 C0.328125 3.91015625 0.328125 3.91015625 -0.75 6.0625 C-1.09546875 6.77535156 -1.4409375 7.48820312 -1.796875 8.22265625 C-3 10 -3 10 -6 11 C-6 11.66 -6 12.32 -6 13 C-6.99 13.33 -7.98 13.66 -9 14 C-7.65070536 10.16336928 -5.92248975 7.34827431 -3.375 4.1875 C-2.42753906 3.00220703 -2.42753906 3.00220703 -1.4609375 1.79296875 C-0.97882813 1.20128906 -0.49671875 0.60960938 0 0 Z " fill="#71C383" transform="translate(246,92)"/>
<path d="M0 0 C2.15377564 2.62198774 3.40072174 4.64404172 4 8 C5.32 8.33 6.64 8.66 8 9 C7.67 10.32 7.34 11.64 7 13 C5.82737096 11.88121617 4.66204862 10.75476949 3.5 9.625 C2.52546875 8.68527344 2.52546875 8.68527344 1.53125 7.7265625 C0 6 0 6 0 4 C-0.66 4 -1.32 4 -2 4 C-2 3.34 -2 2.68 -2 2 C-1.34 2 -0.68 2 0 2 C0 1.34 0 0.68 0 0 Z " fill="#74C18B" transform="translate(100,301)"/>
<path d="M0 0 C0.66 0.33 1.32 0.66 2 1 C1.8125 2.8125 1.8125 2.8125 1 5 C-0.65532623 6.01866229 -2.32260138 7.01810813 -4 8 C-5.32793606 10.06700655 -5.32793606 10.06700655 -6 12 C-6.66 12 -7.32 12 -8 12 C-6.49087042 7.01987239 -3.44338151 3.75740058 0 0 Z " fill="#6A6BA7" transform="translate(182,163)"/>
<path d="M0 0 C1.32 0.33 2.64 0.66 4 1 C4 1.99 4 2.98 4 4 C4.99 4 5.98 4 7 4 C7.28875 4.94875 7.5775 5.8975 7.875 6.875 C8.76825109 10.05211578 8.76825109 10.05211578 11 12 C10.01 12 9.02 12 8 12 C5.95703125 9.62890625 5.95703125 9.62890625 3.8125 6.5625 C3.09707031 5.55316406 2.38164063 4.54382813 1.64453125 3.50390625 C0 1 0 1 0 0 Z " fill="#6BBE83" transform="translate(56,252)"/>
<path d="M0 0 C0.66 0 1.32 0 2 0 C3.4606285 2.64738916 4 3.89448334 4 7 C4.66 7 5.32 7 6 7 C6.66 8.98 7.32 10.96 8 13 C7.34 13.66 6.68 14.32 6 15 C4.99539469 12.87717331 3.99644398 10.75166979 3 8.625 C2.443125 7.44164062 1.88625 6.25828125 1.3125 5.0390625 C0 2 0 2 0 0 Z " fill="#65C183" transform="translate(33,213)"/>
<path d="M0 0 C2.94720751 3.45534674 5.36766537 6.73779291 7 11 C6.1875 13.375 6.1875 13.375 5 15 C4.54625 13.9275 4.0925 12.855 3.625 11.75 C2.75710463 9.70571563 1.87324429 7.76650265 0.8125 5.8125 C0 4 0 4 0 0 Z " fill="#4FB06E" transform="translate(120,143)"/>
<path d="M0 0 C3.14191424 1.53604696 6.08596738 3.05731159 9 5 C9 5.66 9 6.32 9 7 C10.32 7.66 11.64 8.32 13 9 C12.01 9.495 12.01 9.495 11 10 C7.17495681 7.5092742 3.43055717 5.02696221 0 2 C0 1.34 0 0.68 0 0 Z " fill="#76C28A" transform="translate(102,127)"/>
<path d="M0 0 C4.875 2.625 4.875 2.625 6 6 C6.66 6 7.32 6 8 6 C8.33 7.32 8.66 8.64 9 10 C8.01 10 7.02 10 6 10 C4.39453125 8.3203125 4.39453125 8.3203125 2.8125 6.125 C2.01779297 5.04605469 2.01779297 5.04605469 1.20703125 3.9453125 C0 2 0 2 0 0 Z " fill="#61BE7E" transform="translate(47,239)"/>
<path d="M0 0 C0.90238747 2.70716242 1.11851302 4.23776768 1.09765625 7.01171875 C1.09282227 8.14770508 1.09282227 8.14770508 1.08789062 9.30664062 C1.07951172 10.09232422 1.07113281 10.87800781 1.0625 11.6875 C1.05798828 12.48478516 1.05347656 13.28207031 1.04882812 14.10351562 C1.0370585 16.06904257 1.01912348 18.03453085 1 20 C0.67 20 0.34 20 0 20 C-0.38831218 17.04285337 -0.76115547 14.08516727 -1.125 11.125 C-1.23714844 10.28324219 -1.34929688 9.44148437 -1.46484375 8.57421875 C-1.56152344 7.76855469 -1.65820312 6.96289062 -1.7578125 6.1328125 C-1.8520752 5.38918457 -1.94633789 4.64555664 -2.04345703 3.87939453 C-2 2 -2 2 0 0 Z " fill="#50BA6E" transform="translate(29,182)"/>
<path d="M0 0 C2.48627517 3.0622744 4.09989404 6.1457054 5.6875 9.75 C6.12449219 10.73484375 6.56148437 11.7196875 7.01171875 12.734375 C7.33785156 13.48203125 7.66398438 14.2296875 8 15 C7.01 15 6.02 15 5 15 C4.34 12.36 3.68 9.72 3 7 C2.34 7 1.68 7 1 7 C0.67 4.69 0.34 2.38 0 0 Z " fill="#63BA7C" transform="translate(128,222)"/>
<path d="M0 0 C0.99 0.33 1.98 0.66 3 1 C0.03 4.96 0.03 4.96 -3 9 C-3.33 8.01 -3.66 7.02 -4 6 C-4.99 6 -5.98 6 -7 6 C-7 5.34 -7 4.68 -7 4 C-5.68 4 -4.36 4 -3 4 C-2.67 3.34 -2.34 2.68 -2 2 C-1.34 2.33 -0.68 2.66 0 3 C0 2.01 0 1.02 0 0 Z " fill="#585CA0" transform="translate(205,215)"/>
<path d="M0 0 C1.32435978 3.97307934 0.18129186 6.80974568 -0.9375 10.6875 C-1.13279297 11.38939453 -1.32808594 12.09128906 -1.52929688 12.81445312 C-2.01199136 14.54508944 -2.50500846 16.27284066 -3 18 C-3.33 18 -3.66 18 -4 18 C-3.76266009 16.10128073 -3.52440796 14.20267046 -3.28125 12.3046875 C-3.09654767 10.79115456 -2.92930426 9.27536871 -2.78125 7.7578125 C-2.2125 2.2125 -2.2125 2.2125 0 0 Z " fill="#45AB63" transform="translate(127,182)"/>
<path d="M0 0 C4.99275057 1.27721526 7.57611908 3.17330957 11 7 C9.68 7.33 8.36 7.66 7 8 C6.566875 7.360625 6.13375 6.72125 5.6875 6.0625 C4.08760823 3.73253997 4.08760823 3.73253997 1 3 C0.67 2.01 0.34 1.02 0 0 Z " fill="#656AA0" transform="translate(227,156)"/>
<path d="M0 0 C0.33 0.99 0.66 1.98 1 3 C-0.625 5 -0.625 5 -3 7 C-6.25 7.25 -6.25 7.25 -9 7 C-6.24479785 4.04070881 -3.53372712 1.96318174 0 0 Z " fill="#5B5D9D" transform="translate(385,141)"/>
<path d="M0 0 C0.33 0 0.66 0 1 0 C1.125 7.75 1.125 7.75 0 10 C-0.66 10 -1.32 10 -2 10 C-2 12.97 -2 15.94 -2 19 C-2.33 19 -2.66 19 -3 19 C-3.39325819 12.02330843 -2.63096039 6.48343811 0 0 Z " fill="#696DA5" transform="translate(168,184)"/>
<path d="M0 0 C1.31896465 0.92838287 2.62998689 1.86805732 3.9375 2.8125 C4.66839844 3.33457031 5.39929688 3.85664063 6.15234375 4.39453125 C8 6 8 6 9 9 C8.34 9 7.68 9 7 9 C7 8.34 7 7.68 7 7 C4.03 6.505 4.03 6.505 1 6 C0.67 4.02 0.34 2.04 0 0 Z M-1 5 C-0.34 5.66 0.32 6.32 1 7 C0.01 7.495 0.01 7.495 -1 8 C-1 7.01 -1 6.02 -1 5 Z " fill="#5F5FA0" transform="translate(449,134)"/>
<path d="M0 0 C4.50802601 1.25805377 7.4912812 2.90407165 11 6 C10.01 6.33 9.02 6.66 8 7 C8 6.34 8 5.68 8 5 C6.02 5.33 4.04 5.66 2 6 C1.34 4.02 0.68 2.04 0 0 Z " fill="#64BF7B" transform="translate(91,121)"/>
<path d="M0 0 C3.63 0 7.26 0 11 0 C11 0.66 11 1.32 11 2 C9.56496445 2.36402369 8.12683494 2.71586591 6.6875 3.0625 C5.88699219 3.25972656 5.08648437 3.45695312 4.26171875 3.66015625 C2 4 2 4 -1 3 C-0.67 2.01 -0.34 1.02 0 0 Z " fill="#30AB52" transform="translate(49,113)"/>
<path d="M0 0 C3.56144099 -0.19785783 6.04454879 -0.11103658 9 2 C9.75 4.125 9.75 4.125 10 6 C5.56909529 4.79157144 3.01887244 3.48331435 0 0 Z " fill="#56B971" transform="translate(124,327)"/>
<path d="M0 0 C1.953125 1.15625 1.953125 1.15625 4 3 C4.609375 5.59375 4.609375 5.59375 4.75 8.5 C4.80671875 9.4590625 4.8634375 10.418125 4.921875 11.40625 C4.97801716 13.27016986 5 15.13523482 5 17 C2.51213732 14.51213732 2.48537163 13.05955663 1.9375 9.625 C1.40707749 6.37232645 0.85278715 3.18474492 0 0 Z " fill="#39966A" transform="translate(236,320)"/>
<path d="M0 0 C-2.54712074 2.00130916 -4.9527375 3.85727656 -8 5 C-10.25 4.625 -10.25 4.625 -12 4 C-10.68 3.67 -9.36 3.34 -8 3 C-8 2.01 -8 1.02 -8 0 C-5.13822943 -1.43088528 -3.06624227 -0.59991697 0 0 Z " fill="#5E5DA2" transform="translate(440,308)"/>
<path d="M0 0 C3 1 3 1 4.1875 3.3125 C5 6 5 6 5 10 C5.66 10 6.32 10 7 10 C6.34 11.32 5.68 12.64 5 14 C4.16235732 12.04350603 3.33000941 10.08474444 2.5 8.125 C2.0359375 7.03445313 1.571875 5.94390625 1.09375 4.8203125 C0 2 0 2 0 0 Z " fill="#6B6DA8" transform="translate(208,272)"/>
<path d="M0 0 C0.66 0 1.32 0 2 0 C3.38226016 2.76452033 3.09525387 5.0461363 3.0625 8.125 C3.05347656 9.22070312 3.04445312 10.31640625 3.03515625 11.4453125 C3.02355469 12.28835938 3.01195312 13.13140625 3 14 C1.20724134 10.88089144 0.65709282 8.32317572 0.375 4.75 C0.30023438 3.85796875 0.22546875 2.9659375 0.1484375 2.046875 C0.09945312 1.37140625 0.05046875 0.6959375 0 0 Z " fill="#5CB678" transform="translate(152,263)"/>
<path d="M0 0 C0.23460937 0.64453125 0.46921875 1.2890625 0.7109375 1.953125 C1.81161073 4.2077908 1.81161073 4.2077908 4.1640625 4.609375 C4.97617188 4.65578125 5.78828125 4.7021875 6.625 4.75 C7.85089844 4.83507812 7.85089844 4.83507812 9.1015625 4.921875 C9.72804687 4.94765625 10.35453125 4.9734375 11 5 C5.57824803 7.75049213 5.57824803 7.75049213 3 8 C0.85979822 6.49393208 0.12009169 5.3402598 -0.75 2.875 C-0.8325 2.25625 -0.915 1.6375 -1 1 C-0.67 0.67 -0.34 0.34 0 0 Z " fill="#6D6EA4" transform="translate(167,216)"/>
<path d="M0 0 C0.33 0.99 0.66 1.98 1 3 C-0.3125 5.1875 -0.3125 5.1875 -2 7 C-2.66 7 -3.32 7 -4 7 C-4.66 8.32 -5.32 9.64 -6 11 C-6.33 10.01 -6.66 9.02 -7 8 C-6.34 8 -5.68 8 -5 8 C-4.9175 7.4225 -4.835 6.845 -4.75 6.25 C-3.79468987 3.3840696 -2.21530827 2.0009236 0 0 Z " fill="#61B87B" transform="translate(265,88)"/>
<path d="M0 0 C0.33 0.99 0.66 1.98 1 3 C0.34 3 -0.32 3 -1 3 C-1.0825 3.9075 -1.165 4.815 -1.25 5.75 C-2.09694174 9.42008088 -3.07907263 10.69866328 -6 13 C-6.66 13 -7.32 13 -8 13 C-6.54997977 8.89160936 -4.6020866 5.49655387 -2 2 C-1.34 2 -0.68 2 0 2 C0 1.34 0 0.68 0 0 Z " fill="#70BE84" transform="translate(255,79)"/>
<path d="M0 0 C0.99 0.33 1.98 0.66 3 1 C3 1.66 3 2.32 3 3 C3.99 3.33 4.98 3.66 6 4 C5.34 5.65 4.68 7.3 4 9 C3.34 9 2.68 9 2 9 C1.34 6.03 0.68 3.06 0 0 Z " fill="#48B363" transform="translate(310,24)"/>
<path d="M0 0 C0.99 0.33 1.98 0.66 3 1 C4.62323754 4.75907641 5.23994929 7.92086213 5 12 C3 11 3 11 2.1484375 8.49609375 C1.89320313 7.48675781 1.63796875 6.47742188 1.375 5.4375 C1.11460937 4.42558594 0.85421875 3.41367187 0.5859375 2.37109375 C0.39257812 1.58863281 0.19921875 0.80617188 0 0 Z " fill="#5FBE7A" transform="translate(264,366)"/>
<path d="M0 0 C0 0.33 0 0.66 0 1 C-1.41538717 1.33872513 -2.83237963 1.67074624 -4.25 2 C-5.03890625 2.185625 -5.8278125 2.37125 -6.640625 2.5625 C-9 3 -9 3 -13 3 C-13 2.34 -13 1.68 -13 1 C-8.31506124 -1.48887372 -5.0555786 -0.85687773 0 0 Z " fill="#67689F" transform="translate(387,326)"/>
<path d="M0 0 C0.66 0.33 1.32 0.66 2 1 C1.67 3.64 1.34 6.28 1 9 C-0.32 9.33 -1.64 9.66 -3 10 C-2.49287967 6.28111761 -1.88391785 3.26545761 0 0 Z " fill="#4A5497" transform="translate(212,242)"/>
<path d="M0 0 C0.66 0 1.32 0 2 0 C3.06775224 1.96466413 4.06553465 3.96855359 5 6 C4.67 6.66 4.34 7.32 4 8 C2.68 7.67 1.36 7.34 0 7 C-1.125 2.25 -1.125 2.25 0 0 Z " fill="#52539C" transform="translate(266,230)"/>
<path d="M0 0 C0.103125 0.639375 0.20625 1.27875 0.3125 1.9375 C0.539375 2.618125 0.76625 3.29875 1 4 C1.99 4.33 2.98 4.66 4 5 C4.33 6.65 4.66 8.3 5 10 C4.34 10 3.68 10 3 10 C1.35 7.03 -0.3 4.06 -2 1 C-1.34 0.67 -0.68 0.34 0 0 Z " fill="#6ABA80" transform="translate(239,382)"/>
<path d="M0 0 C0.99 0.99 1.98 1.98 3 3 C1.68 5.64 0.36 8.28 -1 11 C-1.33 11 -1.66 11 -2 11 C-1.85957123 9.35369672 -1.71250671 7.70795821 -1.5625 6.0625 C-1.48128906 5.14597656 -1.40007812 4.22945313 -1.31640625 3.28515625 C-1 1 -1 1 0 0 Z " fill="#4BB56A" transform="translate(257,362)"/>
<path d="M0 0 C0.33 0.66 0.66 1.32 1 2 C0.67 2.66 0.34 3.32 0 4 C0.99 4.33 1.98 4.66 3 5 C3.6875 7.0625 3.6875 7.0625 4 9 C3.01 9.495 3.01 9.495 2 10 C-0.475 6.04 -0.475 6.04 -3 2 C-2.01 1.34 -1.02 0.68 0 0 Z " fill="#5B5EA4" transform="translate(227,305)"/>
<path d="M0 0 C1.98 0.99 1.98 0.99 4 2 C3.67 2.99 3.34 3.98 3 5 C3.99 5.33 4.98 5.66 6 6 C6 7.65 6 9.3 6 11 C3.02753198 8.45217026 1.58464712 5.54659117 0 2 C0 1.34 0 0.68 0 0 Z " fill="#7A7AAF" transform="translate(215,289)"/>
<path d="M0 0 C1.59035502 3.18071004 2.64848268 5.87657653 3.625 9.25 C3.88539063 10.14203125 4.14578125 11.0340625 4.4140625 11.953125 C4.60742188 12.62859375 4.80078125 13.3040625 5 14 C4.01 14.495 4.01 14.495 3 15 C3 13.68 3 12.36 3 11 C2.34 11 1.68 11 1 11 C0.67 7.37 0.34 3.74 0 0 Z " fill="#58B26F" transform="translate(144,258)"/>
<path d="M0 0 C-1.98 2.31 -3.96 4.62 -6 7 C-6.66 6.01 -7.32 5.02 -8 4 C-7.34 4 -6.68 4 -6 4 C-6 2.68 -6 1.36 -6 0 C-3 -1 -3 -1 0 0 Z " fill="#60BD7B" transform="translate(258,101)"/>
<path d="M0 0 C2.39073445 3.82517513 2.55966552 7.59665524 3 12 C2.34 11.67 1.68 11.34 1 11 C1 9.35 1 7.7 1 6 C-0.32 6.33 -1.64 6.66 -3 7 C-3 6.34 -3 5.68 -3 5 C-2.34 4.67 -1.68 4.34 -1 4 C-0.34786708 1.97536745 -0.34786708 1.97536745 0 0 Z " fill="#5D5EA0" transform="translate(471,170)"/>
<path d="M0 0 C1.32 0 2.64 0 4 0 C5.79682816 3.80504787 6.07349791 4.70600835 5 9 C3.35 6.03 1.7 3.06 0 0 Z " fill="#69BF7E" transform="translate(258,412)"/>
<path d="M0 0 C0.99 0.33 1.98 0.66 3 1 C0.525 5.455 0.525 5.455 -2 10 C-3.19156292 5.23374833 -2.3415946 4.12120649 0 0 Z " fill="#58BA77" transform="translate(177,298)"/>
<path d="M0 0 C1.57554035 2.88628401 2.46276373 5.53342384 3.125 8.75 C3.29257813 9.54921875 3.46015625 10.3484375 3.6328125 11.171875 C3.81457031 12.07679688 3.81457031 12.07679688 4 13 C3.34 12.67 2.68 12.34 2 12 C2 11.01 2 10.02 2 9 C1.01 8.67 0.02 8.34 -1 8 C-0.67 5.36 -0.34 2.72 0 0 Z " fill="#54BE7C" transform="translate(149,273)"/>
<path d="M0 0 C0.33 0 0.66 0 1 0 C1.1953125 6.0546875 1.1953125 6.0546875 1 8 C0.34 8.66 -0.32 9.32 -1 10 C-2.1875 8.375 -2.1875 8.375 -3 6 C-1.625 2.75 -1.625 2.75 0 0 Z " fill="#38A45E" transform="translate(215,220)"/>
<path d="M0 0 C0 2 0 4 0 6 C-0.639375 6.28875 -1.27875 6.5775 -1.9375 6.875 C-4.15206079 7.82823451 -4.15206079 7.82823451 -5 10 C-5.66 9.67 -6.32 9.34 -7 9 C-5.44499019 5.18315774 -2.96404505 2.80804268 0 0 Z " fill="#70BA87" transform="translate(228,193)"/>
<path d="M0 0 C2.97 1.98 2.97 1.98 6 4 C5.67 4.99 5.34 5.98 5 7 C3.68 6.67 2.36 6.34 1 6 C0.67 4.02 0.34 2.04 0 0 Z " fill="#5B5D9C" transform="translate(211,193)"/>
<path d="M0 0 C4.24822374 0.47202486 6.19989709 2.96655518 9 6 C4.545 5.01 4.545 5.01 0 4 C0 2.68 0 1.36 0 0 Z " fill="#5F5DA7" transform="translate(208,170)"/>
<path d="M0 0 C0.625 1.8125 0.625 1.8125 1 4 C0.01 5.485 0.01 5.485 -1 7 C-1.66 7 -2.32 7 -3 7 C-3 7.66 -3 8.32 -3 9 C-3.66 9 -4.32 9 -5 9 C-3.7508258 5.54074837 -2.32472205 2.85306797 0 0 Z " fill="#64BE7C" transform="translate(278,46)"/>
<path d="M0 0 C0.33 0.66 0.66 1.32 1 2 C-0.5224249 5.57769851 -2.02930459 8.45368965 -5 11 C-5.66 10.67 -6.32 10.34 -7 10 C-3.535 5.05 -3.535 5.05 0 0 Z " fill="#80C793" transform="translate(294,23)"/>
<path d="M0 0 C0.66 0 1.32 0 2 0 C2.25 2.25 2.25 2.25 2 5 C0 7.3125 0 7.3125 -2 9 C-2.99 8.67 -3.98 8.34 -5 8 C-4.01 7.34 -3.02 6.68 -2 6 C-0.78715124 2.94570927 -0.78715124 2.94570927 0 0 Z " fill="#68C07C" transform="translate(267,386)"/>
<path d="M0 0 C2.31 0.66 4.62 1.32 7 2 C7.33 3.65 7.66 5.3 8 7 C6.66382648 6.02471263 5.3311249 5.04466681 4 4.0625 C3.2575 3.51722656 2.515 2.97195313 1.75 2.41015625 C1.1725 1.94480469 0.595 1.47945313 0 1 C0 0.67 0 0.34 0 0 Z " fill="#66BB7E" transform="translate(108,314)"/>
<path d="M0 0 C0.66 0 1.32 0 2 0 C0.66654496 3.59007126 -0.8943231 6.79570907 -3 10 C-3.33 10 -3.66 10 -4 10 C-4 8.35 -4 6.7 -4 5 C-3.34 4.67 -2.68 4.34 -2 4 C-0.86649466 1.98330173 -0.86649466 1.98330173 0 0 Z " fill="#56BA76" transform="translate(184,288)"/>
<path d="M0 0 C2.96404505 2.80804268 5.44499019 5.18315774 7 9 C5.68 8.67 4.36 8.34 3 8 C2.67 6.68 2.34 5.36 2 4 C1.34 4 0.68 4 0 4 C0 2.68 0 1.36 0 0 Z " fill="#6165A3" transform="translate(248,201)"/>
<path d="M0 0 C0.99 0.33 1.98 0.66 3 1 C2.67 1.99 2.34 2.98 2 4 C1.34 4 0.68 4 0 4 C-0.66 4.99 -1.32 5.98 -2 7 C-2.33 5.35 -2.66 3.7 -3 2 C-2.01 1.34 -1.02 0.68 0 0 Z " fill="#3A3D92" transform="translate(245,199)"/>
<path d="M0 0 C1.1875 1.6875 1.1875 1.6875 2 4 C0.625 6.75 0.625 6.75 -1 9 C-1.33 8.01 -1.66 7.02 -2 6 C-2.99 5.67 -3.98 5.34 -5 5 C-3.35 4.67 -1.7 4.34 0 4 C0 2.68 0 1.36 0 0 Z " fill="#48B96F" transform="translate(310,460)"/>
<path d="M0 0 C1.32 0 2.64 0 4 0 C4.66 2.64 5.32 5.28 6 8 C1.125 3.375 1.125 3.375 0 0 Z " fill="#65BE7E" transform="translate(276,437)"/>
<path d="M0 0 C0.66 1.32 1.32 2.64 2 4 C0.35 5.98 -1.3 7.96 -3 10 C-3.33 8.68 -3.66 7.36 -4 6 C-3.34 6 -2.68 6 -2 6 C-2 5.34 -2 4.68 -2 4 C-1.34 4 -0.68 4 0 4 C0 2.68 0 1.36 0 0 Z " fill="#75C38D" transform="translate(172,306)"/>
<path d="M0 0 C5.75 0.75 5.75 0.75 8 3 C7.67 3.99 7.34 4.98 7 6 C5.83054208 5.19152271 4.66449539 4.37810888 3.5 3.5625 C2.8503125 3.11003906 2.200625 2.65757812 1.53125 2.19140625 C1.0259375 1.79824219 0.520625 1.40507812 0 1 C0 0.67 0 0.34 0 0 Z " fill="#6666A5" transform="translate(204,184)"/>
<path d="M0 0 C0.66 0.33 1.32 0.66 2 1 C1.5206753 5.31392226 0.2542015 7.16569547 -3 10 C-3 8.35 -3 6.7 -3 5 C-1.68 4.67 -0.36 4.34 1 4 C0.67 2.68 0.34 1.36 0 0 Z " fill="#7677AF" transform="translate(242,166)"/>
<path d="M0 0 C0.66 0 1.32 0 2 0 C1.34 1.98 0.68 3.96 0 6 C-1.65 6 -3.3 6 -5 6 C-3.38405168 3.95880212 -1.7143618 1.95927063 0 0 Z " fill="#4E4F96" transform="translate(374,149)"/>
<path d="M0 0 C2.97 0.495 2.97 0.495 6 1 C6.33 2.65 6.66 4.3 7 6 C5.83054208 5.19152271 4.66449539 4.37810888 3.5 3.5625 C2.8503125 3.11003906 2.200625 2.65757812 1.53125 2.19140625 C1.0259375 1.79824219 0.520625 1.40507812 0 1 C0 0.67 0 0.34 0 0 Z " fill="#6DC186" transform="translate(116,321)"/>
<path d="M0 0 C0.66 0 1.32 0 2 0 C1.39009109 3.55780196 0.4216319 6.6828589 -1 10 C-1.33 10 -1.66 10 -2 10 C-1.85950482 8.52031676 -1.71245174 7.04125484 -1.5625 5.5625 C-1.48128906 4.73878906 -1.40007812 3.91507813 -1.31640625 3.06640625 C-1 1 -1 1 0 0 Z " fill="#62B580" transform="translate(212,231)"/>
<path d="M0 0 C0.99 0 1.98 0 3 0 C2.67 1.65 2.34 3.3 2 5 C0.68 5 -0.64 5 -2 5 C-2 4.01 -2 3.02 -2 2 C-1.34 2 -0.68 2 0 2 C0 1.34 0 0.68 0 0 Z " fill="#3C4F88" transform="translate(198,221)"/>
<path d="M0 0 C3.29148243 1.13499394 3.9959869 1.99283376 5.75 5.125 C6.1625 6.07375 6.575 7.0225 7 8 C5.68 7.67 4.36 7.34 3 7 C3 5.68 3 4.36 3 3 C2.01 2.67 1.02 2.34 0 2 C0 1.34 0 0.68 0 0 Z " fill="#4EB36B" transform="translate(120,212)"/>
<path d="M0 0 C0 0.66 0 1.32 0 2 C-2.91708924 3.98362069 -4.12380904 3.9876191 -7.75 3.625 C-8.8225 3.41875 -9.895 3.2125 -11 3 C-11 2.67 -11 2.34 -11 2 C-3.375 0 -3.375 0 0 0 Z " fill="#5D5E9F" transform="translate(382,211)"/>
<path d="M0 0 C0.33 0.66 0.66 1.32 1 2 C0.67 2.99 0.34 3.98 0 5 C-1.9375 5.5625 -1.9375 5.5625 -4 6 C-4.66 6.66 -5.32 7.32 -6 8 C-6 6.68 -6 5.36 -6 4 C-3 1.75 -3 1.75 0 0 Z " fill="#72C293" transform="translate(217,208)"/>
<path d="M0 0 C3.93673644 1.31224548 6.22719294 2.91910327 9 6 C8.67 6.66 8.34 7.32 8 8 C7.13375 7.071875 7.13375 7.071875 6.25 6.125 C4.19750179 4.18652947 2.56633418 3.09985751 0 2 C0 1.34 0 0.68 0 0 Z " fill="#8285B6" transform="translate(200,207)"/>
<path d="M0 0 C2.64 0.33 5.28 0.66 8 1 C7.67 2.32 7.34 3.64 7 5 C3.34683329 3.75023244 2.21934164 3.32901247 0 0 Z " fill="#5C629E" transform="translate(203,203)"/>
<path d="M0 0 C0.66 0.33 1.32 0.66 2 1 C2.33 1.99 2.66 2.98 3 4 C5.00016466 5.20882096 5.00016466 5.20882096 7 6 C4.69 5.67 2.38 5.34 0 5 C-0.33 4.01 -0.66 3.02 -1 2 C-0.67 1.34 -0.34 0.68 0 0 Z " fill="#5F619F" transform="translate(187,196)"/>
<path d="M0 0 C0.99 0.33 1.98 0.66 3 1 C1.02 3.31 -0.96 5.62 -3 8 C-3.33 7.01 -3.66 6.02 -4 5 C-2.0625 2.3125 -2.0625 2.3125 0 0 Z " fill="#67C18A" transform="translate(244,114)"/>
<path d="M0 0 C1.32 0 2.64 0 4 0 C4 0.99 4 1.98 4 3 C4.66 3.33 5.32 3.66 6 4 C5.01 5.485 5.01 5.485 4 7 C2.02 3.535 2.02 3.535 0 0 Z " fill="#62BE7F" transform="translate(285,450)"/>
<path d="M0 0 C5.75 -0.125 5.75 -0.125 8 1 C8 1.66 8 2.32 8 3 C8.66 3.33 9.32 3.66 10 4 C6.44219804 3.39009109 3.3171411 2.4216319 0 1 C0 0.67 0 0.34 0 0 Z " fill="#8185B4" transform="translate(252,333)"/>
<path d="M0 0 C-7.42857143 2.42857143 -7.42857143 2.42857143 -11 1 C-10.67 0.34 -10.34 -0.32 -10 -1 C-5.95206114 -2.07945036 -3.55979782 -2.32756011 0 0 Z " fill="#6B6BAC" transform="translate(398,324)"/>
<path d="M0 0 C0.66 0.99 1.32 1.98 2 3 C0.71034824 4.37562854 -0.62689293 5.70766393 -2 7 C-2.66 7 -3.32 7 -4 7 C-4 6.01 -4 5.02 -4 4 C-3.34 4 -2.68 4 -2 4 C-2 3.34 -2 2.68 -2 2 C-1.34 2 -0.68 2 0 2 C0 1.34 0 0.68 0 0 Z " fill="#67C487" transform="translate(164,317)"/>
<path d="M0 0 C0.33 0 0.66 0 1 0 C0.25 6.625 0.25 6.625 -2 10 C-2 7.36 -2 4.72 -2 2 C-1.34 2 -0.68 2 0 2 C0 1.34 0 0.68 0 0 Z " fill="#63649A" transform="translate(473,249)"/>
<path d="M0 0 C0 0.66 0 1.32 0 2 C-1.98 2.99 -1.98 2.99 -4 4 C-4.99 3.01 -5.98 2.02 -7 1 C-4.53721199 -0.231394 -2.7204945 -0.07159196 0 0 Z " fill="#6362A9" transform="translate(205,153)"/>
<path d="M0 0 C0.33 0 0.66 0 1 0 C1.33 2.31 1.66 4.62 2 7 C-0.9719385 5.87548273 -3.33440687 4.77706209 -6 3 C-4.35 3 -2.7 3 -1 3 C-0.67 2.01 -0.34 1.02 0 0 Z " fill="#5CAC7B" transform="translate(237,152)"/>
<path d="M0 0 C0.66 0.33 1.32 0.66 2 1 C-2.625 5.875 -2.625 5.875 -6 7 C-6 6.34 -6 5.68 -6 5 C-5.34 5 -4.68 5 -4 5 C-3.67 4.01 -3.34 3.02 -3 2 C-2.01 1.34 -1.02 0.68 0 0 Z " fill="#7EC990" transform="translate(32,116)"/>
<path d="M0 0 C2.375 0.1875 2.375 0.1875 5 1 C6.3125 3.5625 6.3125 3.5625 7 6 C3.63279613 4.60667426 2.0140476 3.0210714 0 0 Z " fill="#68BB82" transform="translate(294,463)"/>
<path d="M0 0 C2.475 0.495 2.475 0.495 5 1 C5 1.66 5 2.32 5 3 C5.66 3 6.32 3 7 3 C6.67 3.99 6.34 4.98 6 6 C3.97945196 4.35830472 1.97956942 2.69088222 0 1 C0 0.67 0 0.34 0 0 Z " fill="#65BD7C" transform="translate(92,297)"/>
<path d="M0 0 C1.98 0.495 1.98 0.495 4 1 C4 1.99 4 2.98 4 4 C2.35 4.66 0.7 5.32 -1 6 C-1 5.34 -1 4.68 -1 4 C-0.34 4 0.32 4 1 4 C0.67 2.68 0.34 1.36 0 0 Z " fill="#696BB4" transform="translate(268,257)"/>
<path d="M0 0 C0.33 0 0.66 0 1 0 C1.33 2.64 1.66 5.28 2 8 C1.01 8.495 1.01 8.495 0 9 C0 8.34 0 7.68 0 7 C-0.66 7 -1.32 7 -2 7 C-1.34 4.69 -0.68 2.38 0 0 Z " fill="#41518B" transform="translate(218,225)"/>
<path d="M0 0 C0.66 0.33 1.32 0.66 2 1 C2 2.32 2 3.64 2 5 C0.68 5.33 -0.64 5.66 -2 6 C-1.125 1.125 -1.125 1.125 0 0 Z " fill="#2EAC50" transform="translate(204,225)"/>
<path d="M0 0 C0.66 1.32 1.32 2.64 2 4 C1.34 4.66 0.68 5.32 0 6 C-0.99 6 -1.98 6 -3 6 C-2.67 4.68 -2.34 3.36 -2 2 C-1.34 2 -0.68 2 0 2 C0 1.34 0 0.68 0 0 Z " fill="#5E5DA1" transform="translate(362,161)"/>
<path d="M0 0 C0.625 1.875 0.625 1.875 1 4 C0.34 4.66 -0.32 5.32 -1 6 C-3.125 5.625 -3.125 5.625 -5 5 C-3.35 3.35 -1.7 1.7 0 0 Z " fill="#515299" transform="translate(368,155)"/>
<path d="M0 0 C1.48117801 0.28127421 2.95993249 0.57533732 4.4375 0.875 C5.67306641 1.11863281 5.67306641 1.11863281 6.93359375 1.3671875 C7.61550781 1.57601562 8.29742187 1.78484375 9 2 C9.33 2.66 9.66 3.32 10 4 C6.44219804 3.39009109 3.3171411 2.4216319 0 1 C0 0.67 0 0.34 0 0 Z " fill="#79C68C" transform="translate(80,117)"/>
</svg>
