<?xml version="1.0" encoding="UTF-8"?>
<svg version="1.1" xmlns="http://www.w3.org/2000/svg" width="722" height="653">
<path d="M0 0 C1.05445313 -0.02835937 2.10890625 -0.05671875 3.1953125 -0.0859375 C4.12085938 -0.11171875 5.04640625 -0.1375 6 -0.1640625 C8.87418654 0.24238812 9.55382491 0.90156745 11.3203125 3.1640625 C11.70507336 5.27752972 11.70507336 5.27752972 11.71903992 7.76994324 C11.73157838 8.71847609 11.74411684 9.66700893 11.75703526 10.6442852 C11.75559985 11.6861706 11.75416445 12.72805599 11.75268555 13.80151367 C11.76287436 14.90385408 11.77306318 16.0061945 11.78356075 17.14193916 C11.81397064 20.83035353 11.82302089 24.51850716 11.83203125 28.20703125 C11.84897259 30.8125236 11.86717539 33.41800801 11.88656616 36.02348328 C11.93082613 42.29769772 11.9591814 48.57188625 11.98200274 54.84621137 C12.00883984 62.05031034 12.05231447 69.2542804 12.09612882 76.45829248 C12.36223242 120.69284954 12.45627941 164.92887773 12.3203125 209.1640625 C12.98345459 208.82125244 13.64659668 208.47844238 14.32983398 208.12524414 C15.21227783 207.67528076 16.09472168 207.22531738 17.00390625 206.76171875 C17.87329834 206.31578369 18.74269043 205.86984863 19.63842773 205.41040039 C22.98791647 203.85381049 26.36697449 202.8817397 29.91796875 201.90234375 C32.19418962 201.20282221 34.18513746 200.33375828 36.3203125 199.2890625 C43.5841177 195.88786152 51.59089442 194.19855874 59.3203125 192.1640625 C51.31334969 192.3580638 44.05481329 194.1735217 36.42822266 196.4362793 C30.58237755 198.1640625 30.58237755 198.1640625 27.3203125 198.1640625 C26.5962369 178.35254957 29.76952821 161.3579332 40.3203125 144.1640625 C40.9803125 144.1640625 41.6403125 144.1640625 42.3203125 144.1640625 C42.5471875 143.61234375 42.7740625 143.060625 43.0078125 142.4921875 C44.70757176 139.47713833 46.86836066 137.35175881 49.3203125 134.9140625 C50.2071875 134.02203125 51.0940625 133.13 52.0078125 132.2109375 C54.3203125 130.1640625 54.3203125 130.1640625 56.3203125 130.1640625 C56.3203125 129.5040625 56.3203125 128.8440625 56.3203125 128.1640625 C64.75063188 121.18381492 74.2394271 116.27439036 84.3203125 112.1640625 C85.20847656 111.80183594 86.09664062 111.43960938 87.01171875 111.06640625 C97.58655134 107.50836398 112.77183616 107.18628122 123.28515625 111.1171875 C138.15764021 118.76752474 146.94576026 133.23891259 151.9453125 148.6640625 C154.63024374 157.32760657 156.16653364 166.17935898 157.3203125 175.1640625 C157.46388184 176.2770874 157.46388184 176.2770874 157.61035156 177.41259766 C158.46424816 184.86047353 158.55244248 192.29823109 158.5703125 199.7890625 C158.57198425 200.4509256 158.57365601 201.1127887 158.57537842 201.79470825 C158.57710855 213.23552058 157.68545273 223.58506294 154.26953125 234.53125 C153.37564998 237.95227708 152.96599994 241.06609911 152.68847656 244.57080078 C151.57471567 258.63127946 147.17415005 269.84005885 136.8203125 279.6640625 C112.20175318 300.21073083 75.85270315 306.65236743 45.3203125 313.1640625 C44.23588867 313.39544922 43.15146484 313.62683594 42.03417969 313.86523438 C38.65258762 314.58010546 35.2684687 315.28121204 31.8828125 315.9765625 C30.83440186 316.19578369 29.78599121 316.41500488 28.70581055 316.64086914 C27.71363525 316.84059326 26.72145996 317.04031738 25.69921875 317.24609375 C24.8285376 317.42374268 23.95785645 317.6013916 23.06079102 317.78442383 C19.79325834 318.23707535 16.6156319 318.18755183 13.3203125 318.1640625 C13.32215609 318.83643605 13.32399967 319.5088096 13.32589912 320.20155811 C13.3700397 336.55085083 13.40315031 352.90012471 13.42393684 369.24946308 C13.43425586 377.15583242 13.4483281 385.06216202 13.47119141 392.96850586 C13.49110619 399.85849747 13.50402439 406.7484603 13.50848949 413.63847989 C13.51110012 417.2877583 13.51724914 420.93695438 13.53177261 424.58620644 C13.54784232 428.65687358 13.54829342 432.72739696 13.54736328 436.7980957 C13.55455383 438.01225662 13.56174438 439.22641754 13.56915283 440.47737122 C13.5664035 441.58374939 13.56365417 442.69012756 13.56082153 443.83003235 C13.56266512 444.79330602 13.56450871 445.75657969 13.56640816 446.74904346 C13.3203125 449.1640625 13.3203125 449.1640625 11.3203125 452.1640625 C8.74646045 452.4414301 6.44999497 452.53693838 3.8828125 452.4765625 C3.20154297 452.47978516 2.52027344 452.48300781 1.81835938 452.48632812 C-1.87949566 452.44648835 -3.53140381 452.2629183 -6.6796875 450.1640625 C-7.3671875 447.5390625 -7.3671875 447.5390625 -7.6796875 445.1640625 C-8.3603125 446.3396875 -8.3603125 446.3396875 -9.0546875 447.5390625 C-10.6796875 450.1640625 -10.6796875 450.1640625 -12.6796875 452.1640625 C-15.59056686 452.54016053 -17.15307926 452.48007862 -19.68945312 450.95800781 C-24.71474011 446.41144281 -28.50048409 441.58903607 -32.1796875 435.9140625 C-33.296791 434.23215147 -34.41527669 432.55115765 -35.53515625 430.87109375 C-36.06931152 430.06494629 -36.6034668 429.25879883 -37.15380859 428.42822266 C-39.76612687 424.5519603 -42.56655379 420.82492582 -45.38671875 417.09765625 C-46.6796875 415.1640625 -46.6796875 415.1640625 -46.6796875 413.1640625 C-47.3396875 413.1640625 -47.9996875 413.1640625 -48.6796875 413.1640625 C-50.1875 411.265625 -50.1875 411.265625 -51.8046875 408.7890625 C-52.34351563 407.97695313 -52.88234375 407.16484375 -53.4375 406.328125 C-54.6796875 404.1640625 -54.6796875 404.1640625 -54.6796875 402.1640625 C-55.3396875 402.1640625 -55.9996875 402.1640625 -56.6796875 402.1640625 C-58.27402566 400.13247115 -59.73756356 398.11210387 -61.1796875 395.9765625 C-61.58316406 395.39841797 -61.98664063 394.82027344 -62.40234375 394.22460938 C-64.6201992 390.98566205 -66.39351822 387.87577927 -67.6796875 384.1640625 C-68.3396875 384.1640625 -68.9996875 384.1640625 -69.6796875 384.1640625 C-70.1746875 382.6790625 -70.1746875 382.6790625 -70.6796875 381.1640625 C-71.39125 380.4834375 -71.39125 380.4834375 -72.1171875 379.7890625 C-74.05061264 377.77830036 -74.7628439 375.77354045 -75.6796875 373.1640625 C-76.3396875 373.1640625 -76.9996875 373.1640625 -77.6796875 373.1640625 C-79.51953125 370.7421875 -79.51953125 370.7421875 -81.6171875 367.4140625 C-82.30683594 366.34671875 -82.99648438 365.279375 -83.70703125 364.1796875 C-88.43252516 355.50499182 -89.0926705 345.86270624 -88.9453125 336.1875 C-88.94808194 333.94791497 -88.95202311 331.70833114 -88.95703125 329.46875 C-88.94867395 325.99506464 -88.92949282 322.52229641 -88.88916016 319.04882812 C-88.85615852 315.65683404 -88.86669458 312.26706892 -88.8828125 308.875 C-88.85914612 307.84869476 -88.83547974 306.82238953 -88.81109619 305.76498413 C-88.8918776 297.68128689 -91.70135589 293.34731277 -96.6796875 287.1640625 C-102.15194504 278.58132554 -105.96733346 269.31856802 -109.36328125 259.76953125 C-110.68602211 256.14671282 -112.19168518 252.69918949 -113.91796875 249.25390625 C-115.61790106 244.58998941 -116.26523553 240.86766622 -114.203125 236.2890625 C-113.50167452 234.90650795 -112.78476086 233.53171843 -112.0546875 232.1640625 C-107.52264809 223.15344154 -104.23307806 214.11063574 -101.6796875 204.3359375 C-100.6796875 201.1640625 -100.6796875 201.1640625 -98.5546875 199.5390625 C-97.6059375 199.0853125 -96.6571875 198.6315625 -95.6796875 198.1640625 C-90.04634582 195.18499911 -85.91878721 192.38378392 -83.6796875 186.1640625 C-82.51685896 181.86008673 -81.5475837 177.53641834 -80.6796875 173.1640625 C-64.97311447 179.31011281 -53.20718904 206.76598887 -46.78125 221.40625 C-42.30451185 232.04628184 -42.30451185 232.04628184 -42.6796875 237.1640625 C-41.63167969 236.5865625 -40.58367187 236.0090625 -39.50390625 235.4140625 C-38.12517848 234.66373446 -36.74626236 233.91375242 -35.3671875 233.1640625 C-34.67689453 232.7825 -33.98660156 232.4009375 -33.27539062 232.0078125 C-28.01953125 229.1640625 -28.01953125 229.1640625 -24.6796875 229.1640625 C-24.6796875 259.8540625 -24.6796875 290.5440625 -24.6796875 322.1640625 C-43.84834137 322.1640625 -59.97782857 319.5943638 -76.6796875 310.1640625 C-77.3396875 309.5040625 -77.9996875 308.8440625 -78.6796875 308.1640625 C-79.38233724 311.38181693 -79.38233724 311.38181693 -78.6796875 315.1640625 C-76.26268385 317.888138 -73.32037337 319.7749238 -70.3046875 321.7890625 C-69.45068359 322.38734863 -68.59667969 322.98563477 -67.71679688 323.60205078 C-65.93353906 324.85092174 -64.14401481 326.09088812 -62.34863281 327.32226562 C-58.24074569 330.15705345 -54.21499925 333.10240583 -50.1796875 336.0390625 C-48.69854278 337.10763922 -47.2167921 338.17537663 -45.734375 339.2421875 C-31.31963865 349.62402938 -31.31963865 349.62402938 -28.578125 351.9375 C-27.95164062 352.34226562 -27.32515625 352.74703125 -26.6796875 353.1640625 C-25.6896875 352.8340625 -24.6996875 352.5040625 -23.6796875 352.1640625 C-23.61502668 333.78910024 -23.57642279 315.41412077 -23.5546875 297.0390625 C-23.55381889 296.32695004 -23.55295029 295.61483758 -23.55205536 294.88114595 C-23.48291397 236.53302291 -24.0024118 178.19536269 -24.6796875 119.8515625 C-24.69163493 118.82076915 -24.70358236 117.7899758 -24.71589184 116.72794628 C-25.02355949 90.2064832 -25.34442625 63.68519094 -25.6796875 37.1640625 C-27.47329452 39.26660183 -29.26462869 41.37100583 -31.0546875 43.4765625 C-31.81652344 44.36891602 -31.81652344 44.36891602 -32.59375 45.27929688 C-33.08359375 45.85615234 -33.5734375 46.43300781 -34.078125 47.02734375 C-34.75367432 47.82072144 -34.75367432 47.82072144 -35.44287109 48.63012695 C-36.60843023 50.07568717 -37.64965054 51.61900706 -38.6796875 53.1640625 C-39.3396875 53.1640625 -39.9996875 53.1640625 -40.6796875 53.1640625 C-40.9890625 54.1540625 -40.9890625 54.1540625 -41.3046875 55.1640625 C-43.17093002 59.23586436 -45.65530277 62.85203248 -48.6796875 66.1640625 C-49.3396875 66.1640625 -49.9996875 66.1640625 -50.6796875 66.1640625 C-50.9271875 66.7003125 -51.1746875 67.2365625 -51.4296875 67.7890625 C-52.98621287 70.7464607 -54.71404423 73.46130301 -56.6796875 76.1640625 C-57.3396875 76.1640625 -57.9996875 76.1640625 -58.6796875 76.1640625 C-59.081875 77.03224609 -59.081875 77.03224609 -59.4921875 77.91796875 C-60.70546453 80.2128184 -62.06116866 82.07452328 -63.6796875 84.1015625 C-65.90334451 86.91039241 -68.11672413 89.72463697 -70.29296875 92.5703125 C-70.73962891 93.15433838 -71.18628906 93.73836426 -71.64648438 94.34008789 C-72.53270569 95.50011814 -73.41814286 96.66074794 -74.30273438 97.82202148 C-76.01156456 100.05325586 -77.68986466 102.17423966 -79.6796875 104.1640625 C-79.92525121 106.88406607 -80.05325236 109.50980507 -80.09375 112.234375 C-80.11311615 113.03060272 -80.1324823 113.82683044 -80.1524353 114.64718628 C-80.21229224 117.19436884 -80.25864029 119.74159645 -80.3046875 122.2890625 C-80.34286171 124.0143428 -80.38191311 125.73960393 -80.421875 127.46484375 C-80.51799859 131.69776126 -80.60200658 135.93076799 -80.6796875 140.1640625 C-84.45917346 138.68317362 -88.0647057 137.01358807 -91.6796875 135.1640625 C-91.76829401 130.93503259 -91.82060995 126.70624757 -91.8671875 122.4765625 C-91.89232422 121.29771484 -91.91746094 120.11886719 -91.94335938 118.90429688 C-92.03253945 108.05405466 -91.06894139 97.50950758 -84.7421875 88.4140625 C-84.17371094 87.5792334 -84.17371094 87.5792334 -83.59375 86.72753906 C-82.31055236 84.85706326 -80.99702569 83.01063498 -79.6796875 81.1640625 C-78.60467105 79.63337242 -77.53048859 78.10209637 -76.45703125 76.5703125 C-73.90887309 72.94206773 -71.33915916 69.32998902 -68.75195312 65.72949219 C-67.61051182 64.13945232 -67.61051182 64.13945232 -66.6796875 62.1640625 C-66.0196875 62.1640625 -65.3596875 62.1640625 -64.6796875 62.1640625 C-64.46441406 61.50792969 -64.24914062 60.85179687 -64.02734375 60.17578125 C-62.19857292 56.08887601 -59.69500411 52.62379343 -57.1171875 48.9765625 C-56.11485408 47.54629512 -55.11350428 46.11533777 -54.11328125 44.68359375 C-53.67040771 44.05557861 -53.22753418 43.42756348 -52.77124023 42.78051758 C-51.6165068 41.14597032 -51.6165068 41.14597032 -50.6796875 39.1640625 C-50.0196875 39.1640625 -49.3596875 39.1640625 -48.6796875 39.1640625 C-48.6796875 38.1740625 -48.6796875 37.1840625 -48.6796875 36.1640625 C-48.0196875 36.1640625 -47.3596875 36.1640625 -46.6796875 36.1640625 C-46.4125293 35.43356689 -46.14537109 34.70307129 -45.87011719 33.95043945 C-44.69528161 31.20056282 -43.35556057 29.01880627 -41.6328125 26.58203125 C-41.0346875 25.73189453 -40.4365625 24.88175781 -39.8203125 24.00585938 C-39.19640625 23.12994141 -38.5725 22.25402344 -37.9296875 21.3515625 C-37.32125 20.48724609 -36.7128125 19.62292969 -36.0859375 18.73242188 C-34.29698076 16.19997777 -32.49006981 13.68121726 -30.6796875 11.1640625 C-30.13505859 10.38885254 -29.59042969 9.61364258 -29.02929688 8.81494141 C-28.51689453 8.10128418 -28.00449219 7.38762695 -27.4765625 6.65234375 C-27.03151367 6.02497314 -26.58646484 5.39760254 -26.12792969 4.7512207 C-22.92574984 1.24188639 -19.50744519 0.89145767 -14.89111328 0.63183594 C-13.79645752 0.58591309 -13.79645752 0.58591309 -12.6796875 0.5390625 C-11.92800293 0.50329102 -11.17631836 0.46751953 -10.40185547 0.43066406 C-6.93496764 0.2755956 -3.4669557 0.15457764 0 0 Z M-11.6796875 5.1640625 C-11.35591598 6.31355786 -11.03214445 7.46305323 -10.69856167 8.64738178 C-9.63772397 12.91419653 -9.38067031 17.04635355 -9.37770081 21.43095398 C-9.36933797 22.23121669 -9.36097513 23.0314794 -9.35235888 23.8559925 C-9.32666372 26.54552413 -9.31486004 29.23493496 -9.30297852 31.92456055 C-9.28715957 33.89420796 -9.27050223 35.86384879 -9.253088 37.83348274 C-9.20731028 43.30216083 -9.17389024 48.77085709 -9.14243388 54.2396338 C-9.10596434 60.21870091 -9.05832512 66.1976814 -9.01234436 72.17668152 C-8.92076753 84.35356215 -8.84081255 96.53049115 -8.76466542 108.70747513 C-8.69688264 119.53663382 -8.62533602 130.3657632 -8.55194092 141.19488525 C-8.25575869 184.97556687 -7.9817521 228.75636722 -7.71689475 272.53724849 C-7.63843361 285.50245744 -7.55911291 298.46766095 -7.47924805 311.43286133 C-7.47353678 312.36006305 -7.46782551 313.28726478 -7.46194118 314.24256352 C-7.43325495 318.89896724 -7.40455516 323.55537088 -7.37584865 328.21177447 C-7.14169579 366.19585776 -6.90985632 404.17995486 -6.6796875 442.1640625 C-6.3496875 442.1640625 -6.0196875 442.1640625 -5.6796875 442.1640625 C-5.53447902 356.60959614 -5.66990582 271.05523391 -5.96882534 171.37819672 C-5.97614243 169.02174402 -5.98345741 166.66529132 -5.99076744 164.30883861 C-5.99563939 162.73843119 -6.00051796 161.1680238 -6.00540314 159.59761643 C-6.04201794 147.78760108 -6.07310158 135.97757974 -6.10128784 124.1675415 C-6.13381913 110.54964432 -6.17348781 96.9317887 -6.22237724 83.31393999 C-6.24759456 76.24043263 -6.26965066 69.16694913 -6.28304863 62.09340858 C-6.29547044 55.53814946 -6.31781596 48.9829788 -6.34707463 42.42776942 C-6.35613395 40.03800267 -6.36183312 37.64822042 -6.36390007 35.2584374 C-6.36722377 32.00506189 -6.38269559 28.75196136 -6.4012146 25.49864197 C-6.39927988 24.56020787 -6.39734517 23.62177377 -6.39535183 22.65490228 C-6.44738564 16.54894872 -6.89943791 10.72456167 -9.6796875 5.1640625 C-10.3396875 5.1640625 -10.9996875 5.1640625 -11.6796875 5.1640625 Z M64.3203125 190.1640625 C64.3203125 190.4940625 64.3203125 190.8240625 64.3203125 191.1640625 C65.9703125 191.1640625 67.6203125 191.1640625 69.3203125 191.1640625 C69.3203125 190.8340625 69.3203125 190.5040625 69.3203125 190.1640625 C67.6703125 190.1640625 66.0203125 190.1640625 64.3203125 190.1640625 Z M-44.6796875 237.1640625 C-45.0096875 237.8240625 -45.3396875 238.4840625 -45.6796875 239.1640625 C-44.6896875 238.8340625 -43.6996875 238.5040625 -42.6796875 238.1640625 C-43.3396875 237.8340625 -43.9996875 237.5040625 -44.6796875 237.1640625 Z M-59.6796875 345.1640625 C-63.12054892 348.60492392 -63.81614095 352.67757186 -63.9921875 357.4140625 C-63.8590923 363.02307444 -62.92190867 369.66543161 -59.07421875 373.953125 C-58.38392578 374.55253906 -58.38392578 374.55253906 -57.6796875 375.1640625 C-55.68104994 374.58461318 -55.68104994 374.58461318 -53.6796875 373.1640625 C-50.29854008 366.23271029 -51.06669513 359.33414585 -53.4296875 352.2265625 C-54.75841206 348.35355323 -54.75841206 348.35355323 -57.8203125 345.84765625 C-58.43390625 345.62207031 -59.0475 345.39648438 -59.6796875 345.1640625 Z " fill="#29B14D" transform="translate(416.6796875,117.8359375)"/>
<path d="M0 0 C18.68932185 15.28104872 24.72557363 37.05989519 27.6875 60.125 C27.78321289 60.8670166 27.87892578 61.6090332 27.97753906 62.37353516 C28.83143566 69.82141103 28.91962998 77.25916859 28.9375 84.75 C28.93917175 85.4118631 28.94084351 86.0737262 28.94256592 86.75564575 C28.94429605 98.19645808 28.05264023 108.54600044 24.63671875 119.4921875 C23.74283748 122.91321458 23.33318744 126.02703661 23.05566406 129.53173828 C21.94190317 143.59221696 17.54133755 154.80099635 7.1875 164.625 C-17.43581405 185.17563663 -53.77785356 191.6031347 -84.3125 198.125 C-85.39160645 198.35638672 -86.47071289 198.58777344 -87.58251953 198.82617188 C-90.94850547 199.54174083 -94.31721931 200.24246157 -97.6875 200.9375 C-98.72753174 201.15672119 -99.76756348 201.37594238 -100.83911133 201.60180664 C-101.82806396 201.80153076 -102.8170166 202.00125488 -103.8359375 202.20703125 C-104.70138184 202.38468018 -105.56682617 202.5623291 -106.45849609 202.74536133 C-110.04710023 203.22271628 -113.69228628 203.125 -117.3125 203.125 C-117.3125 167.485 -117.3125 131.845 -117.3125 95.125 C-116.6525 95.125 -115.9925 95.125 -115.3125 95.125 C-114.9825 94.135 -114.6525 93.145 -114.3125 92.125 C-111.80078125 90.80859375 -111.80078125 90.80859375 -108.625 89.5625 C-107.58988281 89.14871094 -106.55476563 88.73492187 -105.48828125 88.30859375 C-102.44790678 87.17546526 -99.39578844 86.13497706 -96.3125 85.125 C-94.89806287 84.64694033 -93.48403094 84.16768081 -92.0703125 83.6875 C-90.52606048 83.1666109 -88.98178926 82.64577868 -87.4375 82.125 C-86.67308594 81.86460937 -85.90867187 81.60421875 -85.12109375 81.3359375 C-80.22599907 79.69038785 -75.33814362 78.31558528 -70.3125 77.125 C-78.31946281 77.3190013 -85.57799921 79.1344592 -93.20458984 81.3972168 C-99.05043495 83.125 -99.05043495 83.125 -102.3125 83.125 C-103.0365756 63.31348707 -99.86328429 46.3188707 -89.3125 29.125 C-88.6525 29.125 -87.9925 29.125 -87.3125 29.125 C-87.085625 28.57328125 -86.85875 28.0215625 -86.625 27.453125 C-84.92524074 24.43807583 -82.76445184 22.31269631 -80.3125 19.875 C-79.425625 18.98296875 -78.53875 18.0909375 -77.625 17.171875 C-75.3125 15.125 -75.3125 15.125 -73.3125 15.125 C-73.3125 14.465 -73.3125 13.805 -73.3125 13.125 C-64.88218062 6.14475242 -55.3933854 1.23532786 -45.3125 -2.875 C-44.42433594 -3.23722656 -43.53617187 -3.59945312 -42.62109375 -3.97265625 C-29.58633654 -8.35837268 -11.38182096 -8.13286655 0 0 Z M-65.3125 75.125 C-65.3125 75.455 -65.3125 75.785 -65.3125 76.125 C-63.6625 76.125 -62.0125 76.125 -60.3125 76.125 C-60.3125 75.795 -60.3125 75.465 -60.3125 75.125 C-61.9625 75.125 -63.6125 75.125 -65.3125 75.125 Z " fill="#2F3291" transform="translate(546.3125,232.875)"/>
<path d="M0 0 C0.96550781 0.58652344 1.93101562 1.17304688 2.92578125 1.77734375 C7.32938129 4.5783895 7.32938129 4.5783895 9 6 C9 6.66 9 7.32 9 8 C9.639375 8.268125 10.27875 8.53625 10.9375 8.8125 C13 10 13 10 14 13 C15.485 13.495 15.485 13.495 17 14 C18.71875 16.1875 18.71875 16.1875 20.5 19 C21.38171875 20.36125 21.38171875 20.36125 22.28125 21.75 C26.1860066 29.13353976 27.58056111 35.9283432 27.5625 44.25 C27.56443359 45.18859863 27.56636719 46.12719727 27.56835938 47.09423828 C27.338054 57.56091956 24.42673745 67.1785087 21 77 C16.68607774 76.5206753 14.83430453 75.2542015 12 72 C12.4125 72.64324219 12.825 73.28648437 13.25 73.94921875 C14.48948047 75.88867369 15.72329606 77.83175436 16.953125 79.77734375 C18.23850034 81.801074 19.53849839 83.81566667 20.859375 85.81640625 C35.88834494 109.13615094 44.81697156 135.39014463 52 162 C52.45683353 154.40559218 51.49161903 147.92709577 49.42285156 140.66015625 C48.30473612 136.65806034 47.79393153 133.15356751 48 129 C48.66 129 49.32 129 50 129 C50.20625 128.34 50.4125 127.68 50.625 127 C52.49124252 122.92819814 54.97561527 119.31203002 58 116 C58.66 116 59.32 116 60 116 C60.2475 115.43796875 60.495 114.8759375 60.75 114.296875 C62.21274867 111.60907431 63.96804873 109.53594518 66 107.25 C66.70125 106.45078125 67.4025 105.6515625 68.125 104.828125 C70 103 70 103 72 103 C72 102.34 72 101.68 72 101 C76.23069859 98.17953427 79.95332446 97.80355223 85 98 C88.27782617 98.83814763 91.36999775 99.88807904 94.53125 101.08984375 C96.8742256 102.11530392 96.8742256 102.11530392 99 102 C99.226875 101.46375 99.45375 100.9275 99.6875 100.375 C101.45570089 97.17539839 103.53670203 94.70962777 106 92 C106.66 92 107.32 92 108 92 C108.04125 91.0925 108.0825 90.185 108.125 89.25 C109.29564207 84.90190088 111.26170035 84.34559978 115 82 C116.96049499 79.38600668 118.58637126 76.90998324 119.9375 73.9375 C121 72 121 72 123.3125 69.8125 C126.71245051 66.25441226 128.77037316 62.35488817 131 58 C132.32 58 133.64 58 135 58 C135.30654742 66.61738853 135.39589303 73.93475404 132 82 C131.34 82 130.68 82 130 82 C129.79117188 82.77601563 129.58234375 83.55203125 129.3671875 84.3515625 C127.53574414 87.89932991 125.83965644 88.09439717 122.125 89.375 C117.39765961 91.59292918 117.39765961 91.59292918 114.70703125 95.875 C114.31024031 97.67969383 113.9163486 99.48546352 113.56884766 101.30029297 C108.74879874 125.2197151 92.69371115 149.44830199 80.11865234 170.14355469 C79.05427382 171.90993057 78.01775855 173.68968039 76.98828125 175.4765625 C73.45193025 181.48764189 69.59874583 186.97754899 65.125 192.3125 C64.64812744 192.88258789 64.17125488 193.45267578 63.67993164 194.04003906 C62.50169023 195.40340549 61.25606964 196.70798224 60 198 C59.34 198 58.68 198 58 198 C58 198.66 58 199.32 58 200 C56.68 200.33 55.36 200.66 54 201 C53.938125 201.5775 53.87625 202.155 53.8125 202.75 C52.59817781 206.11273836 51.05245717 207.15580713 48 209 C40.37831517 211.18606464 34.27836802 209.27516315 27.48046875 205.66015625 C16.65430837 199.17714074 6.50244009 190.31219629 -2 181 C-2 180.34 -2 179.68 -2 179 C-2.66 179 -3.32 179 -4 179 C-5.3046875 177.7421875 -5.3046875 177.7421875 -6.875 175.875 C-7.48601562 175.15570313 -8.09703125 174.43640625 -8.7265625 173.6953125 C-9.47679687 172.80585938 -10.22703125 171.91640625 -11 171 C-12.00654904 169.82964136 -13.01445557 168.66044936 -14.0234375 167.4921875 C-15.09910053 166.24491429 -16.17462074 164.99751789 -17.25 163.75 C-17.76933105 163.14784668 -18.28866211 162.54569336 -18.82373047 161.92529297 C-26 153.56113072 -26 153.56113072 -26 151 C-26.66 151 -27.32 151 -28 151 C-29.48745569 149.28819665 -30.88680965 147.49982095 -32.25 145.6875 C-32.8999292 144.82439209 -32.8999292 144.82439209 -33.56298828 143.94384766 C-34.52523187 142.66231263 -35.48419516 141.37831014 -36.44042969 140.09228516 C-38.06633341 137.91100855 -39.70848118 135.74257821 -41.3515625 133.57421875 C-68.21966947 97.89277187 -83.2409963 59.32591242 -82 14 C-81.98324219 13.18660156 -81.96648437 12.37320313 -81.94921875 11.53515625 C-81.56372511 5.26813107 -79.06181454 0.41184194 -76 -5 C-75.34 -5 -74.68 -5 -74 -5 C-73.67 -5.99 -73.34 -6.98 -73 -8 C-71.29296875 -9.1328125 -71.29296875 -9.1328125 -69.1875 -10.125 C-68.50042969 -10.45757812 -67.81335938 -10.79015625 -67.10546875 -11.1328125 C-45.9202859 -19.85843512 -18.4977859 -11.29315244 0 0 Z M9 69 C9.66 69.66 10.32 70.32 11 71 C11 70.34 11 69.68 11 69 C10.34 69 9.68 69 9 69 Z " fill="#26B14A" transform="translate(199,225)"/>
<path d="M0 0 C15.70657303 6.14605031 27.47249846 33.60192637 33.8984375 48.2421875 C38.37517565 58.88221934 38.37517565 58.88221934 38 64 C39.57201172 63.13375 39.57201172 63.13375 41.17578125 62.25 C42.55450902 61.49967196 43.93342514 60.74968992 45.3125 60 C46.00279297 59.6184375 46.69308594 59.236875 47.40429688 58.84375 C52.66015625 56 52.66015625 56 56 56 C56 86.69 56 117.38 56 149 C38.14280533 149 16.5570977 147.75554406 2.17578125 135.4375 C1 134 1 134 -0.3125 131.5 C-1.82615723 128.7805613 -1.82615723 128.7805613 -4.80078125 127.7578125 C-8.6685109 125.63268632 -10.57287593 123.01198094 -12.875 119.375 C-13.30280762 118.71330811 -13.73061523 118.05161621 -14.17138672 117.36987305 C-18.86216271 109.92202325 -22.554519 102.08550772 -26 94 C-26.36432129 93.1455127 -26.72864258 92.29102539 -27.10400391 91.41064453 C-28.23157508 88.7385484 -29.33943655 86.05934736 -30.4375 83.375 C-30.77990723 82.54589111 -31.12231445 81.71678223 -31.47509766 80.86254883 C-35.88936077 69.80215498 -35.88936077 69.80215498 -34.39916992 65.10693359 C-33.47576977 63.01711971 -32.45085933 61.01542128 -31.375 59 C-26.84296059 49.98937904 -23.55339056 40.94657324 -21 31.171875 C-20 28 -20 28 -17.875 26.375 C-16.451875 25.694375 -16.451875 25.694375 -15 25 C-9.36665832 22.02093661 -5.23909971 19.21972142 -3 13 C-1.83717146 8.69602423 -0.8678962 4.37235584 0 0 Z M36 64 C35.67 64.66 35.34 65.32 35 66 C35.99 65.67 36.98 65.34 38 65 C37.34 64.67 36.68 64.34 36 64 Z " fill="#313493" transform="translate(336,291)"/>
<path d="M0 0 C13.06558265 -0.72185539 24.57661189 5.11988816 34.48828125 13.1015625 C36.12109375 15.1953125 36.12109375 15.1953125 36.15625 17.61328125 C34.83469201 20.9096957 32.99558483 22.93352615 30.55859375 25.5078125 C29.73230469 26.39082031 28.90601563 27.27382813 28.0546875 28.18359375 C27.41660156 28.84746094 26.77851563 29.51132812 26.12109375 30.1953125 C23.07106605 29.57521932 20.84982973 28.57894268 18.23046875 26.91015625 C17.16699219 26.23823242 17.16699219 26.23823242 16.08203125 25.55273438 C15.35242188 25.08416016 14.6228125 24.61558594 13.87109375 24.1328125 C13.12601562 23.66037109 12.3809375 23.18792969 11.61328125 22.70117188 C9.77946432 21.53740344 7.94986131 20.36699962 6.12109375 19.1953125 C5.62609375 19.6903125 5.62609375 19.6903125 5.12109375 20.1953125 C10.73109375 24.1553125 16.34109375 28.1153125 22.12109375 32.1953125 C20.99609375 37.8203125 20.99609375 37.8203125 18.55859375 41.0078125 C18.10355469 41.61238281 17.64851563 42.21695313 17.1796875 42.83984375 C16.65568359 43.51080078 16.65568359 43.51080078 16.12109375 44.1953125 C10.5063467 43.76670586 7.38121216 41.62667068 3.05859375 38.3203125 C1.8606372 37.42539124 0.66144084 36.53212693 -0.5390625 35.640625 C-1.10383301 35.21942383 -1.66860352 34.79822266 -2.25048828 34.36425781 C-4.38118237 32.83475807 -6.6022317 31.49503975 -8.87890625 30.1953125 C-4.42121904 34.97326074 0.60522911 38.48465915 6.03320312 42.08984375 C10.96001817 45.53618728 10.96001817 45.53618728 11.7578125 48.80078125 C11.02132585 51.57051326 10.07749644 52.92913464 8.12109375 55.0078125 C7.56421875 55.61238281 7.00734375 56.21695313 6.43359375 56.83984375 C6.00046875 57.28714844 5.56734375 57.73445313 5.12109375 58.1953125 C1.14847127 56.79952622 -1.84089017 54.91873133 -5.19140625 52.3828125 C-9.63771912 49.07518951 -14.13642468 46.0586976 -18.87890625 43.1953125 C-18.77276789 45.64755944 -18.77276789 45.64755944 -17.87890625 48.1953125 C-15.59823555 49.40828899 -15.59823555 49.40828899 -12.87890625 50.1953125 C-10.06640625 51.6953125 -10.06640625 51.6953125 -7.87890625 53.1953125 C-7.87890625 53.8553125 -7.87890625 54.5153125 -7.87890625 55.1953125 C-7.13640625 55.4428125 -6.39390625 55.6903125 -5.62890625 55.9453125 C-2.67766563 57.28678551 -1.03075651 58.80436776 1.12109375 61.1953125 C-0.36759332 65.79670891 -2.6252048 68.69758344 -5.87890625 72.1953125 C-6.53890625 72.1953125 -7.19890625 72.1953125 -7.87890625 72.1953125 C-7.87890625 72.8553125 -7.87890625 73.5153125 -7.87890625 74.1953125 C-11.11477093 74.48082997 -12.68613636 74.302905 -15.56640625 72.6953125 C-22.02640872 69.77002836 -29.15010993 71.04440354 -35.96875 72.26953125 C-37.87890625 72.1953125 -37.87890625 72.1953125 -39.5078125 71.02734375 C-44.96480654 63.73580471 -44.35139838 53.23673669 -43.25390625 44.6328125 C-40.3230655 28.67601287 -32.02040271 15.14957815 -18.7421875 5.9375 C-12.75517349 2.29465109 -6.95406471 0.72287575 0 0 Z " fill="#343692" transform="translate(304.87890625,250.8046875)"/>
<path d="M0 0 C0.97591583 3.38317487 0.85856655 5.5657338 0 9 C3.85756507 11.15305957 6.55129785 12.39253254 11 12 C10.34 13.32 9.68 14.64 9 16 C8.34 16 7.68 16 7 16 C6.7525 16.53625 6.505 17.0725 6.25 17.625 C4.69347463 20.5823982 2.96564327 23.29724051 1 26 C0.34 26 -0.32 26 -1 26 C-1.268125 26.57878906 -1.53625 27.15757812 -1.8125 27.75390625 C-3.02577703 30.0487559 -4.38148116 31.91046078 -6 33.9375 C-8.22365701 36.74632991 -10.43703663 39.56057447 -12.61328125 42.40625 C-13.05994141 42.99027588 -13.50660156 43.57430176 -13.96679688 44.17602539 C-14.85301819 45.33605564 -15.73845536 46.49668544 -16.62304688 47.65795898 C-18.33187706 49.88919336 -20.01017716 52.01017716 -22 54 C-22.24556371 56.72000357 -22.37356486 59.34574257 -22.4140625 62.0703125 C-22.43342865 62.86654022 -22.4527948 63.66276794 -22.4727478 64.48312378 C-22.53260474 67.03030634 -22.57895279 69.57753395 -22.625 72.125 C-22.66317421 73.8502803 -22.70222561 75.57554143 -22.7421875 77.30078125 C-22.83831109 81.53369876 -22.92231908 85.76670549 -23 90 C-26.77948596 88.51911112 -30.3850182 86.84952557 -34 85 C-34.08860651 80.77097009 -34.14092245 76.54218507 -34.1875 72.3125 C-34.21263672 71.13365234 -34.23777344 69.95480469 -34.26367188 68.74023438 C-34.35285195 57.88999216 -33.38925389 47.34544508 -27.0625 38.25 C-26.68351562 37.69344727 -26.30453125 37.13689453 -25.9140625 36.56347656 C-24.63086486 34.69300076 -23.31733819 32.84657248 -22 31 C-20.92498355 29.46930992 -19.85080109 27.93803387 -18.77734375 26.40625 C-16.22918559 22.77800523 -13.65947166 19.16592652 -11.07226562 15.56542969 C-9.93082432 13.97538982 -9.93082432 13.97538982 -9 12 C-8.34 12 -7.68 12 -7 12 C-6.6596875 10.9790625 -6.6596875 10.9790625 -6.3125 9.9375 C-4.64427643 6.20385676 -2.44270392 3.27836579 0 0 Z " fill="#2BB150" transform="translate(359,168)"/>
<path d="M0 0 C0.99 0.495 0.99 0.495 2 1 C2.17309573 20.33327912 2.33931517 39.66661411 2.5 59 C2.50594854 59.71477162 2.51189708 60.42954325 2.51802588 61.16597462 C2.83307191 99.06901384 3.10102102 136.97031796 3.0625 174.875 C3.06164398 175.72376709 3.06078796 176.57253418 3.05990601 177.44702148 C3.04917582 187.29804132 3.03027923 197.14901971 3 207 C3.66 207.33 4.32 207.66 5 208 C4.34 208 3.68 208 3 208 C3 243.31 3 278.62 3 315 C2.34 315 1.68 315 1 315 C1.00222061 313.70549927 1.00444122 312.41099854 1.00672913 311.07727051 C1.02722525 298.7256782 1.04209722 286.37408944 1.05181217 274.02248383 C1.05697499 267.67627744 1.06394853 261.33008505 1.07543945 254.98388672 C1.08650819 248.83055997 1.09232614 242.67724647 1.09487724 236.52391052 C1.09668924 234.20584404 1.10022391 231.88777806 1.10573006 229.56971741 C1.13509752 216.66272016 0.95982357 203.78792145 0.5 190.88867188 C-0.14954107 172.4664453 -0.13021733 154.05140965 -0.10139394 135.6197319 C-0.09501479 130.82860213 -0.09454538 126.03747126 -0.09336853 121.24633789 C-0.09029713 112.23049231 -0.08214211 103.21465929 -0.07201904 94.19881916 C-0.06072535 83.91048738 -0.05531454 73.6221549 -0.05032361 63.33381844 C-0.03995446 42.22253869 -0.02243894 21.11127015 0 0 Z " fill="#4AAC67" transform="translate(426,120)"/>
<path d="M0 0 C1.32 0 2.64 0 4 0 C4.30654742 8.61738853 4.39589303 15.93475404 1 24 C0.34 24 -0.32 24 -1 24 C-1.20625 24.76183594 -1.4125 25.52367187 -1.625 26.30859375 C-3.45779654 29.89608471 -5.34487243 30.4853476 -9 32.0625 C-13.36389931 33.81076171 -13.36389931 33.81076171 -16.375 37.18359375 C-16.58125 37.78300781 -16.7875 38.38242187 -17 39 C-17.495 38.505 -17.495 38.505 -18 38 C-18.99 38.99 -19.98 39.98 -21 41 C-21.495 39.515 -21.495 39.515 -22 38 C-26.78902145 40.43969017 -29.62722182 41.97529326 -32 47 C-32.66 46.01 -33.32 45.02 -34 44 C-33.34 44 -32.68 44 -32 44 C-31.773125 43.46375 -31.54625 42.9275 -31.3125 42.375 C-29.54429911 39.17539839 -27.46329797 36.70962777 -25 34 C-24.34 34 -23.68 34 -23 34 C-22.95875 33.0925 -22.9175 32.185 -22.875 31.25 C-21.70435793 26.90190088 -19.73829965 26.34559978 -16 24 C-14.03950501 21.38600668 -12.41362874 18.90998324 -11.0625 15.9375 C-10 14 -10 14 -7.6875 11.8125 C-4.28754949 8.25441226 -2.22962684 4.35488817 0 0 Z " fill="#33AF56" transform="translate(330,283)"/>
<path d="M0 0 C0.33 0 0.66 0 1 0 C1.8611602 16.9578789 2.13611405 33.86606264 2.09765625 50.84375 C2.09578471 53.32051566 2.0943643 55.79728169 2.09336853 58.27404785 C2.08960121 64.70500766 2.07982242 71.13594387 2.06866455 77.56689453 C2.05832398 84.16438478 2.05384418 90.76187894 2.04882812 97.359375 C2.03819324 110.23959324 2.02138892 123.11979535 2 136 C2.66 136.33 3.32 136.66 4 137 C4.11164478 162.39317518 4.07199138 187.78316803 3.68161011 213.17407227 C3.64383894 215.68509158 3.60944094 218.19616387 3.57839966 220.70727539 C3.53355231 224.23087032 3.47574963 227.75400858 3.4140625 231.27734375 C3.40250626 232.33654526 3.39095001 233.39574677 3.37904358 234.48704529 C3.35917892 235.45159134 3.33931427 236.41613739 3.31884766 237.40991211 C3.30552399 238.25251083 3.29220032 239.09510956 3.2784729 239.96324158 C3 242 3 242 1 244 C0.82724089 220.58337571 0.66097666 197.1667082 0.5 173.75 C0.49405146 172.88577801 0.48810292 172.02155602 0.48197412 171.13114548 C0.17344694 126.25402869 -0.10240968 81.37843328 -0.0625 36.5 C-0.06164398 35.52999557 -0.06078796 34.55999115 -0.05990601 33.56059265 C-0.04923837 22.37370496 -0.03047868 11.18685159 0 0 Z " fill="#67C681" transform="translate(410,315)"/>
<path d="M0 0 C4.7207265 2.46765249 9.10549588 5.34202334 13.4375 8.4375 C15.01337891 9.54931641 15.01337891 9.54931641 16.62109375 10.68359375 C19 13 19 13 19.53515625 15.546875 C18.90866032 18.41869578 18.00253116 19.68481064 16 21.8125 C15.443125 22.41707031 14.88625 23.02164062 14.3125 23.64453125 C13.879375 24.09183594 13.44625 24.53914063 13 25 C8.98904888 23.59290322 5.95324484 21.67407059 2.5625 19.125 C-1.23207984 16.30470417 -5.03422497 13.57239462 -9 11 C-7.17384779 8.26077169 -5.42798296 6.20035956 -3 4 C-2.34 4 -1.68 4 -1 4 C-0.67 2.68 -0.34 1.36 0 0 Z " fill="#3E3F96" transform="translate(297,284)"/>
<path d="M0 0 C0.97591583 3.38317487 0.85856655 5.5657338 0 9 C3.85756507 11.15305957 6.55129785 12.39253254 11 12 C10.34 13.32 9.68 14.64 9 16 C8.34 16 7.68 16 7 16 C6.7525 16.53625 6.505 17.0725 6.25 17.625 C4.69347463 20.5823982 2.96564327 23.29724051 1 26 C0.34 26 -0.32 26 -1 26 C-1.268125 26.598125 -1.53625 27.19625 -1.8125 27.8125 C-2.98493467 29.97224808 -4.19369282 31.35790256 -6 33 C-5.33333333 30.33333333 -4.66666667 27.66666667 -4 25 C-4.99 25 -5.98 25 -7 25 C-9 22 -9 22 -9 19 C-9.928125 19.99 -9.928125 19.99 -10.875 21 C-13 23 -13 23 -15 23 C-13.54997977 18.89160936 -11.6020866 15.49655387 -9 12 C-8.34 12 -7.68 12 -7 12 C-6.6596875 10.9790625 -6.6596875 10.9790625 -6.3125 9.9375 C-4.64427643 6.20385676 -2.44270392 3.27836579 0 0 Z " fill="#32B255" transform="translate(359,168)"/>
<path d="M0 0 C0.33 0 0.66 0 1 0 C1 11.22 1 22.44 1 34 C1.66 34.33 2.32 34.66 3 35 C2.34 35 1.68 35 1 35 C1 70.31 1 105.62 1 142 C0.34 142 -0.32 142 -1 142 C-1.02345576 128.50575699 -1.04108067 115.01151905 -1.05181217 101.5172596 C-1.05696987 95.24733877 -1.06393331 88.97743217 -1.07543945 82.70751953 C-1.12477575 55.12172671 -1.12229589 27.56687606 0 0 Z " fill="#389C62" transform="translate(428,293)"/>
<path d="M0 0 C2.0625 1.625 2.0625 1.625 4 4 C3.72823828 6.00929258 3.3849273 8.00928604 3 10 C2.92266151 12.08996873 2.89199042 14.18206395 2.90234375 16.2734375 C2.90556641 17.42714844 2.90878906 18.58085937 2.91210938 19.76953125 C2.92048828 20.95933594 2.92886719 22.14914063 2.9375 23.375 C2.94201172 24.58800781 2.94652344 25.80101562 2.95117188 27.05078125 C2.96291646 30.03390507 2.9793416 33.01692679 3 36 C-1.75 37.125 -1.75 37.125 -4 36 C-4.02922646 32.62501842 -4.04687468 29.25006979 -4.0625 25.875 C-4.07087891 24.92367187 -4.07925781 23.97234375 -4.08789062 22.9921875 C-4.12153453 13.30274254 -4.12153453 13.30274254 -3 9 C-2.34 8.67 -1.68 8.34 -1 8 C-1.020625 6.865625 -1.04125 5.73125 -1.0625 4.5625 C-1 1 -1 1 0 0 Z " fill="#25B14A" transform="translate(331,216)"/>
<path d="M0 0 C1.12792991 3.63631137 0.52683373 5.77151718 -0.47949219 9.41796875 C-1.64085498 15.17902545 -1.48730586 21.14226174 -1.625 27 C-1.66325652 28.36069998 -1.70231248 29.72137774 -1.7421875 31.08203125 C-1.83597068 34.3878882 -1.92167389 37.69374674 -2 41 C-0.02 41 1.96 41 4 41 C3.95810547 40.17387207 3.91621094 39.34774414 3.87304688 38.49658203 C3.73540028 35.38428788 3.63580981 32.27355979 3.56054688 29.15917969 C3.50126686 27.16756242 3.39952616 25.17735331 3.296875 23.1875 C3.12316843 14.5890248 4.35060506 10.00294265 10.26757812 3.65576172 C10.83927734 3.10936035 11.41097656 2.56295898 12 2 C12.99 2.33 13.98 2.66 15 3 C14.50556396 3.36287109 14.01112793 3.72574219 13.50170898 4.09960938 C9.07979769 8.06871784 7.56820446 11.49995709 7.17544556 17.29516602 C7.04133234 21.36580998 7.03364902 25.4276638 7.0625 29.5 C7.04937658 31.19794396 7.03312951 32.89586681 7.01367188 34.59375 C6.97302583 38.72980039 6.97489582 42.86384736 7 47 C3.22051404 45.51911112 -0.3850182 43.84952557 -4 42 C-4.08860651 37.77097009 -4.14092245 33.54218507 -4.1875 29.3125 C-4.21263672 28.13365234 -4.23777344 26.95480469 -4.26367188 25.74023438 C-4.33443736 17.13043313 -3.92878904 7.85757809 0 0 Z " fill="#34AB57" transform="translate(329,211)"/>
<path d="M0 0 C4.59306496 1.4859916 7.43569245 3.85014682 11 7 C10.01 7.33 9.02 7.66 8 8 C7.34 7.67 6.68 7.34 6 7 C6 7.66 6 8.32 6 9 C5.01 9.66 4.02 10.32 3 11 C2.33652369 13.48400985 2.33652369 13.48400985 2 16 C1.67 16.66 1.34 17.32 1 18 C1.06274328 19.9821173 1.19783231 21.96231968 1.375 23.9375 C1.46523438 24.99839844 1.55546875 26.05929687 1.6484375 27.15234375 C1.91335307 30.0694028 1.91335307 30.0694028 3 33 C2.5625 35.1875 2.5625 35.1875 2 37 C1.34 37 0.68 37 0 37 C-0.66 38.32 -1.32 39.64 -2 41 C-3.32 40.34 -4.64 39.68 -6 39 C-5.01 38.34 -4.02 37.68 -3 37 C1.05322983 28.25355669 -1.24359427 19.77783969 -4 11 C-3.01 10.67 -2.02 10.34 -1 10 C-1.0309375 8.9171875 -1.0309375 8.9171875 -1.0625 7.8125 C-1.00179441 5.08074862 -0.60741465 2.65743909 0 0 Z " fill="#31B152" transform="translate(365,454)"/>
<path d="M0 0 C0.66 0 1.32 0 2 0 C2.06969519 7.8324642 2.1229099 15.66485493 2.15543652 23.49755192 C2.17105247 27.13511722 2.19221541 30.77246942 2.22631836 34.40991211 C2.25905835 37.92421483 2.27688359 41.43831335 2.28463173 44.95275688 C2.29282327 46.93740962 2.31621919 48.92198091 2.33988953 50.9065094 C2.34127908 58.39253405 2.03684246 63.7208129 -2.375 69.9375 C-4.62583049 71.40919686 -6.3722979 71.21305693 -9 71 C-9.33 70.34 -9.66 69.68 -10 69 C-8.35 69 -6.7 69 -5 69 C-5 68.34 -5 67.68 -5 67 C-3.515 66.01 -3.515 66.01 -2 65 C-1.42095273 62.58120233 -1.06564744 60.40048879 -0.8203125 57.94140625 C-0.74032013 57.19991837 -0.66032776 56.45843048 -0.57791138 55.69447327 C0.46000655 44.80766332 0.2113825 33.85999631 0.125 22.9375 C0.11494183 20.70247801 0.10582104 18.46745159 0.09765625 16.23242188 C0.07588672 10.82151611 0.04263768 5.41077953 0 0 Z " fill="#3CA057" transform="translate(408,499)"/>
<path d="M0 0 C0.66 0 1.32 0 2 0 C1.67 1.32 1.34 2.64 1 4 C0.34 4 -0.32 4 -1 4 C-1.20625 4.7425 -1.4125 5.485 -1.625 6.25 C-3 9 -3 9 -6.0625 10.9375 C-9.30357372 12.74470005 -9.30357372 12.74470005 -9.875 16.25 C-9.91625 17.1575 -9.9575 18.065 -10 19 C-10.66 19 -11.32 19 -12 19 C-16.5304163 22.32230529 -18.66341757 27.67826994 -20 33 C-19.63311832 35.45987018 -19.63311832 35.45987018 -19 38 C-18.9340265 40.10323534 -18.91437755 42.20835724 -18.9375 44.3125 C-18.94652344 45.38113281 -18.95554688 46.44976562 -18.96484375 47.55078125 C-18.97644531 48.35902344 -18.98804688 49.16726563 -19 50 C-20.76176836 46.7981775 -21.73351329 43.66393208 -22.625 40.125 C-22.88539063 39.11695313 -23.14578125 38.10890625 -23.4140625 37.0703125 C-24.00582246 33.9694903 -24.10338133 31.14843131 -24 28 C-23.34 28 -22.68 28 -22 28 C-21.79375 27.34 -21.5875 26.68 -21.375 26 C-19.50875748 21.92819814 -17.02438473 18.31203002 -14 15 C-13.34 15 -12.68 15 -12 15 C-11.7525 14.43796875 -11.505 13.8759375 -11.25 13.296875 C-9.78725133 10.60907431 -8.03195127 8.53594518 -6 6.25 C-5.29875 5.45078125 -4.5975 4.6515625 -3.875 3.828125 C-2 2 -2 2 0 2 C0 1.34 0 0.68 0 0 Z " fill="#5EBC7A" transform="translate(271,326)"/>
<path d="M0 0 C0.66 0 1.32 0 2 0 C2 36.96 2 73.92 2 112 C1.67 112 1.34 112 1 112 C0.98969254 110.79365906 0.97938507 109.58731812 0.96876526 108.34442139 C0.87107743 96.98475244 0.76834765 85.62513884 0.66066074 74.26556015 C0.60545838 68.42526893 0.55204258 62.58497268 0.50268555 56.74462891 C0.4550025 51.11009592 0.40265812 45.47562388 0.34705925 39.84116364 C0.32665359 37.68976608 0.30793755 35.53835182 0.29092598 33.38692474 C0.26684251 30.37735449 0.23679312 27.36789923 0.20532227 24.35839844 C0.1995668 23.4657579 0.19381134 22.57311737 0.18788147 21.65342712 C0.17809265 20.83175552 0.16830383 20.01008392 0.15821838 19.16351318 C0.15176583 18.451889 0.14531328 17.74026482 0.1386652 17.00707626 C-0.00659651 14.90452044 -0.48604857 13.03920433 -1 11 C-0.91685386 9.07959244 -0.76727868 7.16126769 -0.5625 5.25 C-0.46066406 4.26515625 -0.35882813 3.2803125 -0.25390625 2.265625 C-0.17011719 1.51796875 -0.08632813 0.7703125 0 0 Z " fill="#36A353" transform="translate(406,178)"/>
<path d="M0 0 C0.33 0.66 0.66 1.32 1 2 C1.66 2 2.32 2 3 2 C2.67 4.64 2.34 7.28 2 10 C1.34 10 0.68 10 0 10 C0 11.32 0 12.64 0 14 C-4.1196377 15.29243536 -7.66831683 16.26252625 -12 16 C-11.34 15.67 -10.68 15.34 -10 15 C-9.87625 13.865625 -9.7525 12.73125 -9.625 11.5625 C-9.41875 10.386875 -9.2125 9.21125 -9 8 C-7 6.8125 -7 6.8125 -5 6 C-4.835 5.34 -4.67 4.68 -4.5 4 C-4 2 -4 2 -1.9375 0.75 C-1.298125 0.5025 -0.65875 0.255 0 0 Z " fill="#25B04A" transform="translate(327,296)"/>
<path d="M0 0 C0.33 0.66 0.66 1.32 1 2 C0 5 0 5 -3 7 C-3 7.66 -3 8.32 -3 9 C-2.278125 8.67 -1.55625 8.34 -0.8125 8 C2.01697427 6.99396471 4.02895466 6.83022598 7 7 C5 8.33333333 3 9.66666667 1 11 C-0.19232613 13.05003955 -0.19232613 13.05003955 -1 15 C-1.33 14.67 -1.66 14.34 -2 14 C-2.99 14.99 -3.98 15.98 -5 17 C-5.33 16.01 -5.66 15.02 -6 14 C-10.78902145 16.43969017 -13.62722182 17.97529326 -16 23 C-16.66 22.01 -17.32 21.02 -18 20 C-17.34 20 -16.68 20 -16 20 C-15.773125 19.46375 -15.54625 18.9275 -15.3125 18.375 C-13.54429911 15.17539839 -11.46329797 12.70962777 -9 10 C-8.34 10 -7.68 10 -7 10 C-6.95875 9.0925 -6.9175 8.185 -6.875 7.25 C-6 4 -6 4 -2.9375 1.625 C-1.968125 1.08875 -0.99875 0.5525 0 0 Z " fill="#52B472" transform="translate(314,307)"/>
<path d="M0 0 C0.66 0.33 1.32 0.66 2 1 C1.67 31.36 1.34 61.72 1 93 C-0.32 92.67 -1.64 92.34 -3 92 C-2.34 91.01 -1.68 90.02 -1 89 C-0.78681807 86.25348085 -0.68872452 83.60496463 -0.68115234 80.85668945 C-0.67110672 80.02719788 -0.6610611 79.1977063 -0.65071106 78.34307861 C-0.61980677 75.59981991 -0.60282386 72.85665912 -0.5859375 70.11328125 C-0.56723167 68.21183933 -0.54765871 66.31040575 -0.5272522 64.40898132 C-0.47586313 59.40311602 -0.43627368 54.39722378 -0.39910889 49.39123535 C-0.35911168 44.28354188 -0.30799983 39.17596109 -0.2578125 34.06835938 C-0.160973 24.045652 -0.07659391 14.0228811 0 4 C-0.99 4.33 -1.98 4.66 -3 5 C-3 4.01 -3 3.02 -3 2 C-2.01 1.34 -1.02 0.68 0 0 Z " fill="#2C3980" transform="translate(390,346)"/>
<path d="M0 0 C2.97 0.495 2.97 0.495 6 1 C6.93512434 3.80537303 7.12182907 5.48165364 7.11352539 8.37963867 C7.11344986 9.26032516 7.11337433 10.14101166 7.11329651 11.04838562 C7.10813522 11.99534805 7.10297394 12.94231049 7.09765625 13.91796875 C7.0962413 14.89034988 7.09482635 15.86273102 7.09336853 16.86457825 C7.08776817 19.97225004 7.07521562 23.07984996 7.0625 26.1875 C7.05748505 28.29361875 7.05292213 30.39973863 7.04882812 32.50585938 C7.03779862 37.67060064 7.02053375 42.83528813 7 48 C6.67 48 6.34 48 6 48 C5.97494385 46.74340576 5.9498877 45.48681152 5.92407227 44.19213867 C5.82997705 39.53480643 5.72976141 34.87762259 5.62768555 30.22045898 C5.58434471 28.20389271 5.54266902 26.18728993 5.50268555 24.1706543 C5.44496253 21.27381383 5.38127378 18.37715694 5.31640625 15.48046875 C5.29969376 14.57725388 5.28298126 13.674039 5.26576233 12.74345398 C5.24581711 11.90280899 5.22587189 11.062164 5.20532227 10.19604492 C5.18200584 9.08684944 5.18200584 9.08684944 5.15821838 7.95524597 C5.06087775 5.7848329 5.06087775 5.7848329 4 3 C2.20639298 5.10253933 0.41505881 7.20694333 -1.375 9.3125 C-1.88289063 9.90740234 -2.39078125 10.50230469 -2.9140625 11.11523438 C-3.40390625 11.69208984 -3.89375 12.26894531 -4.3984375 12.86328125 C-4.84880371 13.39219971 -5.29916992 13.92111816 -5.76318359 14.46606445 C-6.92874273 15.91162467 -7.96996304 17.45494456 -9 19 C-9.66 19 -10.32 19 -11 19 C-10.25 16.0625 -10.25 16.0625 -9 13 C-6.875 12.125 -6.875 12.125 -5 12 C-5.33 9.69 -5.66 7.38 -6 5 C-5.34 5 -4.68 5 -4 5 C-4 5.66 -4 6.32 -4 7 C-3.01 7 -2.02 7 -1 7 C-0.67 4.69 -0.34 2.38 0 0 Z " fill="#3AA658" transform="translate(387,152)"/>
<path d="M0 0 C2.18374098 1.44097194 4.36174229 2.88920446 6.53125 4.3515625 C8.05711984 5.37041863 9.59657838 6.36961922 11.15625 7.3359375 C15.75987934 10.29810884 15.75987934 10.29810884 16.8125 13.375 C15.57048703 17.38765728 12.88436294 20.02120851 10 23 C6.35446828 21.7191375 4.83328987 20.83328987 2 18 C5.3 18.33 8.6 18.66 12 19 C11.65555119 16.52733235 11.65555119 16.52733235 11 14 C10.34 13.67 9.68 13.34 9 13 C9 11.68 9 10.36 9 9 C8.34 9 7.68 9 7 9 C7 8.34 7 7.68 7 7 C6.01 6.67 5.02 6.34 4 6 C3.67 5.34 3.34 4.68 3 4 C0.97536745 3.34786708 0.97536745 3.34786708 -1 3 C-0.67 2.01 -0.34 1.02 0 0 Z " fill="#464992" transform="translate(300,286)"/>
<path d="M0 0 C0 0.66 0 1.32 0 2 C0.66 2 1.32 2 2 2 C2 3.32 2 4.64 2 6 C2.99 6.33 3.98 6.66 5 7 C5 8.65 5 10.3 5 12 C1.7 11.67 -1.6 11.34 -5 11 C-5.33 8.03 -5.66 5.06 -6 2 C-3 0 -3 0 0 0 Z M5 6 C7 7 7 7 7 7 Z " fill="#2D3091" transform="translate(307,293)"/>
<path d="M0 0 C4.15078841 2.0753942 6.29077925 4.36796721 9.125 7.875 C9.78822266 8.66970703 9.78822266 8.66970703 10.46484375 9.48046875 C12.68685688 12.18582009 14.61346313 14.77513335 16 18 C14.68 17.67 13.36 17.34 12 17 C11.67 15.68 11.34 14.36 11 13 C10.34 13 9.68 13 9 13 C8.67 12.34 8.34 11.68 8 11 C7.34 11 6.68 11 6 11 C5.01 12.485 5.01 12.485 4 14 C3.67 12.35 3.34 10.7 3 9 C2.67 9.33 2.34 9.66 2 10 C1.01 10 0.02 10 -1 10 C-0.67 6.7 -0.34 3.4 0 0 Z " fill="#393B8F" transform="translate(336,291)"/>
<path d="M0 0 C1.12792991 3.63631137 0.52683373 5.77151718 -0.47949219 9.41796875 C-1.64085498 15.17902545 -1.48730586 21.14226174 -1.625 27 C-1.66325652 28.36069998 -1.70231248 29.72137774 -1.7421875 31.08203125 C-1.83597068 34.3878882 -1.92167389 37.69374674 -2 41 C-1.01 41.33 -0.02 41.66 1 42 C1 42.66 1 43.32 1 44 C-0.65 43.34 -2.3 42.68 -4 42 C-4.08860651 37.77097009 -4.14092245 33.54218507 -4.1875 29.3125 C-4.21263672 28.13365234 -4.23777344 26.95480469 -4.26367188 25.74023438 C-4.33443736 17.13043313 -3.92878904 7.85757809 0 0 Z " fill="#4FB36C" transform="translate(329,211)"/>
<path d="M0 0 C0.99 0.33 1.98 0.66 3 1 C1.50266951 5.96524101 -0.58337989 10.40406643 -2.9375 15 C-3.28490234 15.68578125 -3.63230469 16.3715625 -3.99023438 17.078125 C-4.6701635 18.42005667 -5.35158914 19.76123137 -6.03466797 21.1015625 C-7.36998744 23.72762326 -8.68578421 26.36332882 -10 29 C-10.33 29 -10.66 29 -11 29 C-11 27.35 -11 25.7 -11 24 C-10.34 24 -9.68 24 -9 24 C-9 21.36 -9 18.72 -9 16 C-9.99 15.67 -10.98 15.34 -12 15 C-11.67 14.01 -11.34 13.02 -11 12 C-10.01 12.33 -9.02 12.66 -8 13 C-8 13.99 -8 14.98 -8 16 C-4.73435552 13.3472624 -3.73529921 10.19635729 -2.3125 6.3125 C-1.87550781 5.13300781 -1.43851562 3.95351563 -0.98828125 2.73828125 C-0.66214844 1.83464844 -0.33601563 0.93101562 0 0 Z " fill="#5DB478" transform="translate(302,344)"/>
<path d="M0 0 C1.19431641 -0.01224609 2.38863281 -0.02449219 3.61914062 -0.03710938 C10.34888405 -0.04822067 16.31291821 0.42123341 22.8125 2.1875 C22.8125 2.5175 22.8125 2.8475 22.8125 3.1875 C8.47916667 3.1875 -5.85416667 3.1875 -20.1875 3.1875 C-13.99078429 -0.94364381 -7.22551642 0.00383724 0 0 Z " fill="#55B570" transform="translate(151.1875,211.8125)"/>
<path d="M0 0 C0.99 0 1.98 0 3 0 C4.00025163 7.89150047 4.12008681 15.67802068 4.0625 23.625 C4.05798828 24.81996094 4.05347656 26.01492188 4.04882812 27.24609375 C4.03715603 30.16411647 4.02078326 33.08203037 4 36 C3.67 36 3.34 36 3 36 C2.67 33.36 2.34 30.72 2 28 C1.67 28 1.34 28 1 28 C0.27507668 18.64072209 -0.14256667 9.39355936 0 0 Z " fill="#50509E" transform="translate(571,293)"/>
<path d="M0 0 C2.51669746 4.85363081 4.21291397 9.40513284 5.125 14.8125 C5.29257813 15.78832031 5.46015625 16.76414062 5.6328125 17.76953125 C5.75398438 18.50558594 5.87515625 19.24164063 6 20 C6.66 20 7.32 20 8 20 C8.33719047 22.56204544 8.66987153 25.12454318 9 27.6875 C9.09539062 28.40873047 9.19078125 29.12996094 9.2890625 29.87304688 C9.76683735 33.60992871 10.11919794 37.22291531 10 41 C7.81431304 37.72146957 6.98489494 34.67825166 6.0546875 30.91796875 C5.7925798 29.88027092 5.7925798 29.88027092 5.525177 28.8216095 C5.15756591 27.35893998 4.7929602 25.89551229 4.43115234 24.43139648 C3.87901455 22.20369743 3.31322256 19.97978283 2.74609375 17.75585938 C2.38979066 16.33093753 2.03429565 14.90581334 1.6796875 13.48046875 C1.51097137 12.82088669 1.34225525 12.16130463 1.16842651 11.48173523 C0.21578263 7.57394793 -0.1665499 4.01772585 0 0 Z " fill="#62BB7D" transform="translate(120,271)"/>
<path d="M0 0 C0.99 0.33 1.98 0.66 3 1 C5.35456898 5.83994735 5.42809945 11.00691962 5.75390625 16.29296875 C5.90445511 19.09509755 5.90445511 19.09509755 7 22 C6.5625 24.1875 6.5625 24.1875 6 26 C5.34 26 4.68 26 4 26 C3.34 27.32 2.68 28.64 2 30 C0.68 29.34 -0.64 28.68 -2 28 C-1.01 27.34 -0.02 26.68 1 26 C5.05322983 17.25355669 2.75640573 8.77783969 0 0 Z " fill="#36B055" transform="translate(361,465)"/>
<path d="M0 0 C3.79588866 0.54226981 5.47211993 2.20127563 8 5 C6.5140084 9.59306496 4.14985318 12.43569245 1 16 C0.67 15.01 0.34 14.02 0 13 C-0.99 13 -1.98 13 -3 13 C-3 12.34 -3 11.68 -3 11 C-1.68 11 -0.36 11 1 11 C1.66 8.69 2.32 6.38 3 4 C1.68 4 0.36 4 -1 4 C-0.67 2.68 -0.34 1.36 0 0 Z " fill="#515699" transform="translate(298,307)"/>
<path d="M0 0 C0.495 0.99 0.495 0.99 1 2 C-5.27 2 -11.54 2 -18 2 C-18 2.99 -18 3.98 -18 5 C-18.66 5 -19.32 5 -20 5 C-20.33 5.66 -20.66 6.32 -21 7 C-21 6.01 -21 5.02 -21 4 C-24.96 4 -28.92 4 -33 4 C-28.65805903 0.74354427 -26.14912322 0.47115327 -21 0.3125 C-20.25049072 0.27906494 -19.50098145 0.24562988 -18.72875977 0.21118164 C-12.48732274 -0.04529752 -6.24579556 -0.10830859 0 0 Z " fill="#50B56F" transform="translate(425,118)"/>
<path d="M0 0 C0 3.52655706 -0.80479915 6.53674957 -1.66015625 9.94140625 C-2.2162174 12.05667055 -2.2162174 12.05667055 -1 14 C-0.92934383 16.04055005 -0.91578024 18.08334257 -0.9375 20.125 C-0.94652344 21.22070312 -0.95554688 22.31640625 -0.96484375 23.4453125 C-0.97644531 24.28835938 -0.98804688 25.13140625 -1 26 C-2.76176836 22.7981775 -3.73351329 19.66393208 -4.625 16.125 C-5.01558594 14.61292969 -5.01558594 14.61292969 -5.4140625 13.0703125 C-6.00582246 9.9694903 -6.10338133 7.14843131 -6 4 C-4.68 4 -3.36 4 -2 4 C-2 3.01 -2 2.02 -2 1 C-1.34 0.67 -0.68 0.34 0 0 Z " fill="#4DB76C" transform="translate(253,350)"/>
<path d="M0 0 C1.11375 0.4640625 1.11375 0.4640625 2.25 0.9375 C4.50692176 1.8094925 6.6450153 2.47667007 9 3 C8.67 4.98 8.34 6.96 8 9 C9.32 9.33 10.64 9.66 12 10 C12.33 12.31 12.66 14.62 13 17 C13.99 17.33 14.98 17.66 16 18 C15.34 18.66 14.68 19.32 14 20 C11 16.25 11 16.25 11 14 C10.34 14 9.68 14 9 14 C7.36951402 11.88389996 5.85923862 9.77726231 4.375 7.5625 C3.95476562 6.95083984 3.53453125 6.33917969 3.1015625 5.70898438 C0 1.1523057 0 1.1523057 0 0 Z " fill="#63BC7B" transform="translate(351,506)"/>
<path d="M0 0 C0.99 0 1.98 0 3 0 C3.66 1.32 4.32 2.64 5 4 C12.59 4 20.18 4 28 4 C28 4.66 28 5.32 28 6 C28.66 6 29.32 6 30 6 C30 6.66 30 7.32 30 8 C31.32 8.33 32.64 8.66 34 9 C30.76413532 9.28551747 29.19276989 9.1075925 26.3125 7.5 C19.85249753 4.57471586 12.72879632 5.84909104 5.91015625 7.07421875 C4 7 4 7 2.2890625 5.65625 C0.83317834 3.78565945 0.3995785 2.3175553 0 0 Z " fill="#6973A6" transform="translate(263,316)"/>
<path d="M0 0 C1.31225809 3.93677426 0.3393954 5.7794262 -0.9375 9.6875 C-1.50791016 11.45673828 -1.50791016 11.45673828 -2.08984375 13.26171875 C-2.39019531 14.16535156 -2.69054687 15.06898438 -3 16 C-7.55689278 15.39496718 -7.55689278 15.39496718 -9.58203125 13.58984375 C-10.72135417 12.05989583 -11.86067708 10.52994792 -13 9 C-10.03 9.33 -7.06 9.66 -4 10 C-3.67 8.68 -3.34 7.36 -3 6 C-2.03112419 3.98473831 -1.0358679 1.98166034 0 0 Z " fill="#51B26D" transform="translate(223,286)"/>
<path d="M0 0 C0.99 0.33 1.98 0.66 3 1 C2.67 7.6 2.34 14.2 2 21 C2.66 21.33 3.32 21.66 4 22 C2.35 22.99 0.7 23.98 -1 25 C-0.67 16.75 -0.34 8.5 0 0 Z " fill="#2CAF51" transform="translate(252,369)"/>
<path d="M0 0 C1.65 0.33 3.3 0.66 5 1 C4.1875 3.4375 4.1875 3.4375 3 6 C2.01 6.33 1.02 6.66 0 7 C0 6.01 0 5.02 0 4 C-4.78902145 6.43969017 -7.62722182 7.97529326 -10 13 C-10.66 12.01 -11.32 11.02 -12 10 C-11.34 10 -10.68 10 -10 10 C-9.7525 9.4225 -9.505 8.845 -9.25 8.25 C-7.79320504 5.62776908 -6.31621258 3.90746919 -4 2 C-2.68 2 -1.36 2 0 2 C0 1.34 0 0.68 0 0 Z " fill="#4BB76C" transform="translate(308,317)"/>
<path d="M0 0 C0.33 0 0.66 0 1 0 C1.11044961 6.73742646 0.70132913 13.29980211 0 20 C1.10408203 19.75443359 1.10408203 19.75443359 2.23046875 19.50390625 C4.68283856 19.05770638 6.83120482 18.89544415 9.3125 18.9375 C11.1378125 18.9684375 11.1378125 18.9684375 13 19 C13 19.33 13 19.66 13 20 C11.23050388 20.50471197 9.45934777 21.00360685 7.6875 21.5 C6.70136719 21.7784375 5.71523438 22.056875 4.69921875 22.34375 C2 23 2 23 -1 23 C-1.02902429 19.72918529 -1.04680684 16.4584037 -1.0625 13.1875 C-1.07087891 12.25873047 -1.07925781 11.32996094 -1.08789062 10.37304688 C-1.09111328 9.48037109 -1.09433594 8.58769531 -1.09765625 7.66796875 C-1.10289307 6.84578857 -1.10812988 6.0236084 -1.11352539 5.17651367 C-1 3 -1 3 0 0 Z " fill="#7475AB" transform="translate(445,293)"/>
<path d="M0 0 C1.32 0 2.64 0 4 0 C4 3.96 4 7.92 4 12 C3.236875 11.319375 2.47375 10.63875 1.6875 9.9375 C0.800625 9.298125 -0.08625 8.65875 -1 8 C-1.99 8.33 -2.98 8.66 -4 9 C-2.80100302 5.9168649 -1.52299523 2.93720508 0 0 Z " fill="#54AE75" transform="translate(330,283)"/>
<path d="M0 0 C1.32 0.33 2.64 0.66 4 1 C3.22914063 1.90363281 2.45828125 2.80726563 1.6640625 3.73828125 C0.65095837 4.92961667 -0.36205788 6.12102683 -1.375 7.3125 C-1.88289063 7.90740234 -2.39078125 8.50230469 -2.9140625 9.11523438 C-3.40390625 9.69208984 -3.89375 10.26894531 -4.3984375 10.86328125 C-4.84880371 11.39219971 -5.29916992 11.92111816 -5.76318359 12.46606445 C-6.92874273 13.91162467 -7.96996304 15.45494456 -9 17 C-9.66 17 -10.32 17 -11 17 C-10.25 14.0625 -10.25 14.0625 -9 11 C-6.875 10.125 -6.875 10.125 -5 10 C-5.33 7.69 -5.66 5.38 -6 3 C-5.34 3 -4.68 3 -4 3 C-4 3.66 -4 4.32 -4 5 C-3.01 5 -2.02 5 -1 5 C-0.67 3.35 -0.34 1.7 0 0 Z " fill="#56BC71" transform="translate(387,154)"/>
<path d="M0 0 C0.66 0 1.32 0 2 0 C2 11.88 2 23.76 2 36 C1.67 36 1.34 36 1 36 C0.96241577 35.07719238 0.96241577 35.07719238 0.92407227 34.13574219 C0.80781513 31.34029844 0.68522358 28.54516702 0.5625 25.75 C0.52318359 24.78191406 0.48386719 23.81382812 0.44335938 22.81640625 C0.40146484 21.88183594 0.35957031 20.94726562 0.31640625 19.984375 C0.27974854 19.12553711 0.24309082 18.26669922 0.20532227 17.38183594 C0.01263916 15.14662031 -0.45019482 13.16741382 -1 11 C-0.91685386 9.07959244 -0.76727868 7.16126769 -0.5625 5.25 C-0.46066406 4.26515625 -0.35882813 3.2803125 -0.25390625 2.265625 C-0.17011719 1.51796875 -0.08632813 0.7703125 0 0 Z " fill="#46A65F" transform="translate(406,178)"/>
<path d="M0 0 C8.33480195 1.27141047 14.78181058 4.82750719 22 9 C21.01 9.66 20.02 10.32 19 11 C19 10.34 19 9.68 19 9 C17.02 9.33 15.04 9.66 13 10 C12.67 8.68 12.34 7.36 12 6 C11.01 6 10.02 6 9 6 C9 5.34 9 4.68 9 4 C8.443125 3.87625 7.88625 3.7525 7.3125 3.625 C4.77885636 2.94023145 2.42078968 2.00866237 0 1 C0 0.67 0 0.34 0 0 Z " fill="#67BF7C" transform="translate(177,216)"/>
<path d="M0 0 C3.98501745 0.59037296 6.33760052 1.97781681 9 5 C9.96017064 9.64082476 10 14.27649173 10 19 C7.75393573 17.22555028 7.04918998 16.41647515 6.70703125 13.51953125 C6.74183594 12.62621094 6.77664063 11.73289062 6.8125 10.8125 C6.85310547 9.46091797 6.85310547 9.46091797 6.89453125 8.08203125 C6.92933594 7.39496094 6.96414063 6.70789063 7 6 C6.01 5.67 5.02 5.34 4 5 C3.34 4.01 2.68 3.02 2 2 C1.01 3.485 1.01 3.485 0 5 C0 3.35 0 1.7 0 0 Z " fill="#359D63" transform="translate(328,417)"/>
<path d="M0 0 C1.24546405 2.49092811 0.7767578 3.41080733 0 6 C-0.66 6 -1.32 6 -2 6 C-2.33 7.65 -2.66 9.3 -3 11 C-4.32 11.33 -5.64 11.66 -7 12 C-7 12.99 -7 13.98 -7 15 C-7.99 15 -8.98 15 -10 15 C-9.33333333 13.66666667 -8.66666667 12.33333333 -8 11 C-7.3503125 9.5459375 -7.3503125 9.5459375 -6.6875 8.0625 C-4.86419868 4.75354576 -2.76966816 2.54510047 0 0 Z " fill="#57B374" transform="translate(325,292)"/>
<path d="M0 0 C0.66 0 1.32 0 2 0 C2.375 2.0625 2.375 2.0625 2 5 C0.20822891 7.53572282 -1.84238121 9.77174488 -4 12 C-7.64553172 10.7191375 -9.16671013 9.83328987 -12 7 C-8.7 7.33 -5.4 7.66 -2 8 C-2 6.35 -2 4.7 -2 3 C-1.34 3 -0.68 3 0 3 C0 2.01 0 1.02 0 0 Z " fill="#5B659B" transform="translate(314,297)"/>
<path d="M0 0 C2.97 0.99 5.94 1.98 9 3 C9 3.99 9 4.98 9 6 C9.928125 6.103125 10.85625 6.20625 11.8125 6.3125 C15.02464205 7.00531495 16.11930017 7.3879169 18 10 C18 10.66 18 11.32 18 12 C13.06997723 10.6453541 9.66547773 8.54517608 5.625 5.4375 C5.07972656 5.02564453 4.53445312 4.61378906 3.97265625 4.18945312 C2.62431034 3.15707299 1.30874122 2.08214687 0 1 C0 0.67 0 0.34 0 0 Z " fill="#4FB56A" transform="translate(213,420)"/>
<path d="M0 0 C2.69082872 0.17635452 5.32851446 0.61835921 8 1 C8 1.33 8 1.66 8 2 C5.08444885 2.67189656 2.16773049 3.33769308 -0.75 4 C-1.9875 4.28617187 -1.9875 4.28617187 -3.25 4.578125 C-4.44882812 4.84882813 -4.44882812 4.84882813 -5.671875 5.125 C-6.4050293 5.29257812 -7.13818359 5.46015625 -7.89355469 5.6328125 C-10 6 -10 6 -14 6 C-13.67 5.01 -13.34 4.02 -13 3 C-12.14535156 2.86722656 -11.29070312 2.73445313 -10.41015625 2.59765625 C-9.30542969 2.42105469 -8.20070313 2.24445313 -7.0625 2.0625 C-5.96035156 1.88847656 -4.85820312 1.71445312 -3.72265625 1.53515625 C-1.09573071 1.28154864 -1.09573071 1.28154864 0 0 Z " fill="#66689F" transform="translate(476,424)"/>
<path d="M0 0 C1.98 0 3.96 0 6 0 C6.103125 0.598125 6.20625 1.19625 6.3125 1.8125 C7.09385053 4.29861534 8.14895416 5.22943442 10 7 C10 7.66 10 8.32 10 9 C10.66 9 11.32 9 12 9 C11.67 9.99 11.34 10.98 11 12 C6.43951988 8.38748484 2.98334854 5.01202555 0 0 Z " fill="#4FBA6D" transform="translate(184,390)"/>
<path d="M0 0 C1.32 0.33 2.64 0.66 4 1 C4 1.99 4 2.98 4 4 C4.99 4 5.98 4 7 4 C7.33 5.65 7.66 7.3 8 9 C9.32 9.33 10.64 9.66 12 10 C12 11.98 12 13.96 12 16 C6.8288885 11.45568989 3.55336892 5.84718632 0 0 Z " fill="#62BA7D" transform="translate(153,351)"/>
<path d="M0 0 C0.66 0 1.32 0 2 0 C1.67 1.32 1.34 2.64 1 4 C0.34 4 -0.32 4 -1 4 C-1.20625 4.7425 -1.4125 5.485 -1.625 6.25 C-3.39748479 9.79496959 -5.67431884 10.94798396 -9 13 C-9.33 13.66 -9.66 14.32 -10 15 C-10.66 15 -11.32 15 -12 15 C-10.49017269 11.57143381 -8.48286031 9.04321784 -6 6.25 C-4.948125 5.05117188 -4.948125 5.05117188 -3.875 3.828125 C-2 2 -2 2 0 2 C0 1.34 0 0.68 0 0 Z " fill="#66BE83" transform="translate(271,326)"/>
<path d="M0 0 C0 0.66 0 1.32 0 2 C-2.33366933 4.01178391 -4.04785514 5.01595171 -7 6 C-6.34 6.33 -5.68 6.66 -5 7 C-5 7.66 -5 8.32 -5 9 C-5.99 9.33 -6.98 9.66 -8 10 C-8.66 9.67 -9.32 9.34 -10 9 C-10 8.34 -10 7.68 -10 7 C-10.66 6.67 -11.32 6.34 -12 6 C-10.75945552 4.98829382 -9.5071298 3.99102203 -8.25 3 C-7.55390625 2.443125 -6.8578125 1.88625 -6.140625 1.3125 C-4 0 -4 0 0 0 Z " fill="#484A96" transform="translate(293,255)"/>
<path d="M0 0 C0.99 0.33 1.98 0.66 3 1 C-2.96583144 12.70615034 -2.96583144 12.70615034 -8 17 C-7.67 15.35 -7.34 13.7 -7 12 C-6.34 12 -5.68 12 -5 12 C-5 10.02 -5 8.04 -5 6 C-3.68 6 -2.36 6 -1 6 C-0.67 4.02 -0.34 2.04 0 0 Z " fill="#63BC7F" transform="translate(274,397)"/>
<path d="M0 0 C2.48627517 3.0622744 4.09989404 6.1457054 5.6875 9.75 C6.12449219 10.73484375 6.56148437 11.7196875 7.01171875 12.734375 C7.33785156 13.48203125 7.66398438 14.2296875 8 15 C5.33333333 15 2.66666667 15 0 15 C0.66 14.67 1.32 14.34 2 14 C1.855625 12.989375 1.71125 11.97875 1.5625 10.9375 C1.04166667 7.29166667 0.52083333 3.64583333 0 0 Z " fill="#45B361" transform="translate(225,321)"/>
<path d="M0 0 C3.37368681 3.07513046 5.50901962 6.28518856 7.75 10.25 C8.67039063 11.86648438 8.67039063 11.86648438 9.609375 13.515625 C10.06828125 14.33546875 10.5271875 15.1553125 11 16 C10.01 16.33 9.02 16.66 8 17 C7.67 15.35 7.34 13.7 7 12 C6.01 11.67 5.02 11.34 4 11 C2.96514123 8.68191636 1.9644586 6.34824702 1 4 C0.34 3.67 -0.32 3.34 -1 3 C-0.67 2.01 -0.34 1.02 0 0 Z " fill="#60BB79" transform="translate(213,302)"/>
<path d="M0 0 C0.33 0 0.66 0 1 0 C1 11.22 1 22.44 1 34 C-0.65 33.34 -2.3 32.68 -4 32 C-3.01 31.67 -2.02 31.34 -1 31 C-0.67 20.77 -0.34 10.54 0 0 Z " fill="#479D5E" transform="translate(335,224)"/>
<path d="M0 0 C0.99 0.33 1.98 0.66 3 1 C3 1.99 3 2.98 3 4 C3.66 4 4.32 4 5 4 C4.50269348 8.97306516 3.44697666 12.63799813 1 17 C0.67 17 0.34 17 0 17 C0 15.35 0 13.7 0 12 C0.66 12 1.32 12 2 12 C2 9.36 2 6.72 2 4 C1.01 3.67 0.02 3.34 -1 3 C-0.67 2.01 -0.34 1.02 0 0 Z " fill="#45B665" transform="translate(291,356)"/>
<path d="M0 0 C-0.33 0.66 -0.66 1.32 -1 2 C-3.23032132 1.50437304 -5.16578631 0.92401461 -7.25 -0.03125 C-10.43633304 -1.15370823 -12.94476496 -1.19901615 -16.3125 -1.125 C-17.38113281 -1.10695313 -18.44976562 -1.08890625 -19.55078125 -1.0703125 C-20.76314453 -1.03550781 -20.76314453 -1.03550781 -22 -1 C-21.67 -1.66 -21.34 -2.32 -21 -3 C-13.34744595 -5.05312426 -6.8885193 -3.30074883 0 0 Z " fill="#60B17C" transform="translate(295,327)"/>
<path d="M0 0 C0.66 0 1.32 0 2 0 C2 1.32 2 2.64 2 4 C1.01 4.495 1.01 4.495 0 5 C-1.17486497 7.62616876 -2.09014862 10.27044585 -3 13 C-3.66 13 -4.32 13 -5 13 C-5.125 6.25 -5.125 6.25 -4 4 C-3.34 4 -2.68 4 -2 4 C-1.34 2.68 -0.68 1.36 0 0 Z " fill="#28AF49" transform="translate(348,187)"/>
<path d="M0 0 C1.44037669 0.93307421 2.87718985 1.87165077 4.3125 2.8125 C5.11300781 3.33457031 5.91351563 3.85664063 6.73828125 4.39453125 C8.7237402 5.80389849 10.3491852 7.22096657 12 9 C11.01 9.33 10.02 9.66 9 10 C8.34 9.67 7.68 9.34 7 9 C7 8.34 7 7.68 7 7 C5.8553125 6.814375 5.8553125 6.814375 4.6875 6.625 C2 6 2 6 -1 4 C-0.67 2.68 -0.34 1.36 0 0 Z " fill="#4EB46E" transform="translate(340,435)"/>
<path d="M0 0 C-0.99 0.495 -0.99 0.495 -2 1 C-2 1.99 -2 2.98 -2 4 C-3.98 4.66 -5.96 5.32 -8 6 C-8.12375 5.360625 -8.2475 4.72125 -8.375 4.0625 C-8.684375 3.0415625 -8.684375 3.0415625 -9 2 C-9.66 1.67 -10.32 1.34 -11 1 C-6.87831311 -0.62950412 -4.29299643 -1.26264601 0 0 Z " fill="#313095" transform="translate(512,229)"/>
<path d="M0 0 C0.99 0.33 1.98 0.66 3 1 C5.29453495 0.90593246 5.29453495 0.90593246 7.6875 0.5625 C8.49574219 0.46066406 9.30398438 0.35882813 10.13671875 0.25390625 C11.05904297 0.12822266 11.05904297 0.12822266 12 0 C9.51737568 2.48262432 7.38224713 3.07286975 4.0625 4.1875 C3.00160156 4.55230469 1.94070313 4.91710937 0.84765625 5.29296875 C-2 6 -2 6 -5 5 C-3.35 3.35 -1.7 1.7 0 0 Z " fill="#6A6AA8" transform="translate(511,413)"/>
<path d="M0 0 C0.33 0.99 0.66 1.98 1 3 C-5 9 -5 9 -8.5625 9.0625 C-9.696875 9.041875 -10.83125 9.02125 -12 9 C-12 8.34 -12 7.68 -12 7 C-11.30132812 6.66226562 -10.60265625 6.32453125 -9.8828125 5.9765625 C-8.97273438 5.53054688 -8.06265625 5.08453125 -7.125 4.625 C-6.22007812 4.18414062 -5.31515625 3.74328125 -4.3828125 3.2890625 C-1.90465528 2.09497301 -1.90465528 2.09497301 0 0 Z " fill="#63699F" transform="translate(330,310)"/>
<path d="M0 0 C5.45063533 1.17562723 8.41302634 2.46353331 12 7 C12.8125 9.8125 12.8125 9.8125 13 12 C10 11 10 11 8.6875 8.625 C6.59231433 5.36582228 4.43773696 4.64413507 1 3 C0.67 2.01 0.34 1.02 0 0 Z " fill="#2A507C" transform="translate(327,414)"/>
<path d="M0 0 C0.33 0 0.66 0 1 0 C1 8.58 1 17.16 1 26 C2.32 26.33 3.64 26.66 5 27 C5 27.66 5 28.32 5 29 C2.525 28.01 2.525 28.01 0 27 C0 18.09 0 9.18 0 0 Z " fill="#79C48F" transform="translate(325,226)"/>
<path d="M0 0 C0.66 0 1.32 0 2 0 C0.69892884 8.01185922 0.69892884 8.01185922 -1.8125 11.5625 C-4.42453617 13.27898091 -5.93276942 13.3408034 -9 13 C-9.33 12.34 -9.66 11.68 -10 11 C-8.35 11 -6.7 11 -5 11 C-5 10.34 -5 9.68 -5 9 C-4.360625 8.401875 -3.72125 7.80375 -3.0625 7.1875 C-0.74825544 4.73299819 -0.36608527 3.29476739 0 0 Z " fill="#67BB82" transform="translate(408,557)"/>
<path d="M0 0 C1.98 0 3.96 0 6 0 C8.42857143 7.42857143 8.42857143 7.42857143 7 11 C7 10.34 7 9.68 7 9 C6.34 9 5.68 9 5 9 C4.67 8.01 4.34 7.02 4 6 C3.505 5.505 3.01 5.01 2.5 4.5 C1 3 1 3 0 0 Z " fill="#55B971" transform="translate(342,493)"/>
<path d="M0 0 C0.93423645 3.01031744 1.04449911 3.86650268 0 7 C-0.66 7 -1.32 7 -2 7 C-1.81535634 11.34184202 -1.81535634 11.34184202 0 15 C0.04080783 16.99958364 0.04254356 19.00045254 0 21 C-2.57978778 17.13031833 -3.79554586 13.66593552 -4 9 C-3.04460878 5.76824296 -1.67054886 2.92000896 0 0 Z " fill="#747BAF" transform="translate(305,349)"/>
<path d="M0 0 C2 1 2 1 2.8515625 3.06640625 C3.10679687 3.89011719 3.36203125 4.71382813 3.625 5.5625 C3.88539063 6.38878906 4.14578125 7.21507812 4.4140625 8.06640625 C4.60742188 8.70449219 4.80078125 9.34257812 5 10 C4.01 10 3.02 10 2 10 C0.39453125 8.25 0.39453125 8.25 -1.1875 6 C-1.71730469 5.2575 -2.24710938 4.515 -2.79296875 3.75 C-3.19128906 3.1725 -3.58960938 2.595 -4 2 C-2.68 2 -1.36 2 0 2 C0 1.34 0 0.68 0 0 Z " fill="#5BBC75" transform="translate(180,379)"/>
<path d="M0 0 C0.66 0.33 1.32 0.66 2 1 C1.67 8.59 1.34 16.18 1 24 C0.67 24 0.34 24 0 24 C0 17.4 0 10.8 0 4 C-0.99 4.33 -1.98 4.66 -3 5 C-3 4.01 -3 3.02 -3 2 C-2.01 1.34 -1.02 0.68 0 0 Z " fill="#3E4A86" transform="translate(390,346)"/>
<path d="M0 0 C4 2 4 2 6 5 C5.01 5 4.02 5 3 5 C2.34 6.98 1.68 8.96 1 11 C0.34 10.67 -0.32 10.34 -1 10 C-0.67 6.7 -0.34 3.4 0 0 Z " fill="#4C5A8D" transform="translate(336,291)"/>
<path d="M0 0 C0.33 0.66 0.66 1.32 1 2 C0.328125 3.91015625 0.328125 3.91015625 -0.75 6.0625 C-1.09546875 6.77535156 -1.4409375 7.48820313 -1.796875 8.22265625 C-3 10 -3 10 -6 11 C-6 11.66 -6 12.32 -6 13 C-6.99 13.33 -7.98 13.66 -9 14 C-7.65070536 10.16336928 -5.92248975 7.34827431 -3.375 4.1875 C-2.42753906 3.00220703 -2.42753906 3.00220703 -1.4609375 1.79296875 C-0.97882813 1.20128906 -0.49671875 0.60960937 0 0 Z " fill="#71C383" transform="translate(343,191)"/>
<path d="M0 0 C2.15377564 2.62198774 3.40072174 4.64404172 4 8 C5.32 8.33 6.64 8.66 8 9 C7.67 10.32 7.34 11.64 7 13 C5.82737096 11.88121617 4.66204862 10.75476949 3.5 9.625 C2.52546875 8.68527344 2.52546875 8.68527344 1.53125 7.7265625 C0 6 0 6 0 4 C-0.66 4 -1.32 4 -2 4 C-2 3.34 -2 2.68 -2 2 C-1.34 2 -0.68 2 0 2 C0 1.34 0 0.68 0 0 Z " fill="#73C18B" transform="translate(197,400)"/>
<path d="M0 0 C0.66 0.33 1.32 0.66 2 1 C1.8125 2.8125 1.8125 2.8125 1 5 C-0.65532623 6.01866229 -2.32260138 7.01810813 -4 8 C-5.32793606 10.06700655 -5.32793606 10.06700655 -6 12 C-6.66 12 -7.32 12 -8 12 C-6.49087042 7.01987239 -3.44338151 3.75740058 0 0 Z " fill="#696BA7" transform="translate(279,262)"/>
<path d="M0 0 C0.66 0 1.32 0 2 0 C3.4606285 2.64738916 4 3.89448334 4 7 C4.66 7 5.32 7 6 7 C6.66 8.98 7.32 10.96 8 13 C7.34 13.66 6.68 14.32 6 15 C4.99539469 12.87717331 3.99644398 10.75166979 3 8.625 C2.443125 7.44164062 1.88625 6.25828125 1.3125 5.0390625 C0 2 0 2 0 0 Z " fill="#65C182" transform="translate(130,312)"/>
<path d="M0 0 C-3.36736031 2.82858266 -6.87451958 4.4998253 -11 6 C-11.99 5.67 -12.98 5.34 -14 5 C-13.34 5 -12.68 5 -12 5 C-12 4.34 -12 3.68 -12 3 C-10.68 3 -9.36 3 -8 3 C-8 2.01 -8 1.02 -8 0 C-5.13822943 -1.43088528 -3.06624227 -0.59991697 0 0 Z " fill="#5F5EA2" transform="translate(537,407)"/>
<path d="M0 0 C0.33 0 0.66 0 1 0 C1.21824777 6.0018137 0.5056904 11.19233704 -1 17 C-1.66 17 -2.32 17 -3 17 C-3 17.66 -3 18.32 -3 19 C-3.66 18.67 -4.32 18.34 -5 18 C-4.58427734 16.80503906 -4.58427734 16.80503906 -4.16015625 15.5859375 C-3.79792969 14.52632813 -3.43570312 13.46671875 -3.0625 12.375 C-2.70285156 11.33085937 -2.34320313 10.28671875 -1.97265625 9.2109375 C-1.04249877 6.14029714 -0.45253692 3.172522 0 0 Z " fill="#6577A8" transform="translate(315,320)"/>
<path d="M0 0 C2.94720751 3.45534674 5.36766537 6.73779291 7 11 C6.1875 13.375 6.1875 13.375 5 15 C4.54625 13.9275 4.0925 12.855 3.625 11.75 C2.75710463 9.70571563 1.87324429 7.76650265 0.8125 5.8125 C0 4 0 4 0 0 Z " fill="#4EB06E" transform="translate(217,242)"/>
<path d="M0 0 C3.14191424 1.53604696 6.08596738 3.05731159 9 5 C9 5.66 9 6.32 9 7 C10.32 7.66 11.64 8.32 13 9 C12.01 9.495 12.01 9.495 11 10 C7.17495681 7.5092742 3.43055717 5.02696221 0 2 C0 1.34 0 0.68 0 0 Z " fill="#76C28A" transform="translate(199,226)"/>
<path d="M0 0 C1.859375 0.25390625 1.859375 0.25390625 4 1 C5.265625 2.77734375 5.265625 2.77734375 6.25 4.9375 C6.58515625 5.64777344 6.9203125 6.35804688 7.265625 7.08984375 C8 9 8 9 8 11 C7.34 11 6.68 11 6 11 C4.4921875 9.1015625 4.4921875 9.1015625 2.875 6.625 C2.33617187 5.81289063 1.79734375 5.00078125 1.2421875 4.1640625 C0 2 0 2 0 0 Z " fill="#64B77B" transform="translate(333,480)"/>
<path d="M0 0 C4.875 2.625 4.875 2.625 6 6 C6.66 6 7.32 6 8 6 C8.33 7.32 8.66 8.64 9 10 C8.01 10 7.02 10 6 10 C4.39453125 8.3203125 4.39453125 8.3203125 2.8125 6.125 C2.01779297 5.04605469 2.01779297 5.04605469 1.20703125 3.9453125 C0 2 0 2 0 0 Z " fill="#61BE7D" transform="translate(144,338)"/>
<path d="M0 0 C1.98 0.66 3.96 1.32 6 2 C6 2.66 6 3.32 6 4 C5.34 4 4.68 4 4 4 C4 4.66 4 5.32 4 6 C2.35 6 0.7 6 -1 6 C-1.33 4.68 -1.66 3.36 -2 2 C-1.34 2 -0.68 2 0 2 C0 1.34 0 0.68 0 0 Z " fill="#2F318F" transform="translate(268,314)"/>
<path d="M0 0 C0.66 0 1.32 0 2 0 C1 2 0 4 -1 6 C-5.7517398 5.56802365 -7.92000054 4.67230705 -11 1 C-9.741875 1.391875 -8.48375 1.78375 -7.1875 2.1875 C-5.02975117 2.78882719 -5.02975117 2.78882719 -3 3 C-1.07994865 1.74882038 -1.07994865 1.74882038 0 0 Z " fill="#61679E" transform="translate(322,289)"/>
<path d="M0 0 C1 3 1 3 0 6 C-0.66 6 -1.32 6 -2 6 C-2 6.99 -2 7.98 -2 9 C-3.875 11.1875 -3.875 11.1875 -6 13 C-6.66 13 -7.32 13 -8 13 C-6.54997977 8.89160936 -4.6020866 5.49655387 -2 2 C-1.34 2 -0.68 2 0 2 C0 1.34 0 0.68 0 0 Z " fill="#68BB7D" transform="translate(352,178)"/>
<path d="M0 0 C0.99 0.33 1.98 0.66 3 1 C3 1.66 3 2.32 3 3 C3.99 3.33 4.98 3.66 6 4 C5.34 5.98 4.68 7.96 4 10 C3.34 10 2.68 10 2 10 C1.34 6.7 0.68 3.4 0 0 Z " fill="#43B260" transform="translate(407,123)"/>
<path d="M0 0 C0.99 0.33 1.98 0.66 3 1 C0.03 4.96 0.03 4.96 -3 9 C-3.33 8.01 -3.66 7.02 -4 6 C-4.99 6 -5.98 6 -7 6 C-7 5.34 -7 4.68 -7 4 C-5.68 4 -4.36 4 -3 4 C-2.67 3.34 -2.34 2.68 -2 2 C-1.34 2.33 -0.68 2.66 0 3 C0 2.01 0 1.02 0 0 Z " fill="#585C9F" transform="translate(302,314)"/>
<path d="M0 0 C3.55007718 3.9050849 4.81819916 6.97734643 6 12 C4.68 11.34 3.36 10.68 2 10 C2 9.34 2 8.68 2 8 C1.34 7.67 0.68 7.34 0 7 C0 4.69 0 2.38 0 0 Z " fill="#525394" transform="translate(560,249)"/>
<path d="M0 0 C0.33 0.99 0.66 1.98 1 3 C-0.625 5 -0.625 5 -3 7 C-6.25 7.25 -6.25 7.25 -9 7 C-6.24479785 4.04070881 -3.53372712 1.96318174 0 0 Z " fill="#5B5C9D" transform="translate(482,240)"/>
<path d="M0 0 C0.99 0.33 1.98 0.66 3 1 C1.87548273 3.9719385 0.77706209 6.33440687 -1 9 C-2.38111722 6.7252187 -3.05694702 5.49828639 -2.75 2.8125 C-2 1 -2 1 0 0 Z " fill="#26B149" transform="translate(353,192)"/>
<path d="M0 0 C0.99 0 1.98 0 3 0 C3.165 0.639375 3.33 1.27875 3.5 1.9375 C4.781786 4.16119241 4.781786 4.16119241 6.9140625 4.48828125 C8.93575155 4.7275978 10.96841939 4.86893028 13 5 C13 5.33 13 5.66 13 6 C11.56589632 6.24954005 10.12739928 6.47392642 8.6875 6.6875 C7.88699219 6.81511719 7.08648437 6.94273437 6.26171875 7.07421875 C4 7 4 7 2.25 5.65625 C0.83869324 3.78626854 0.39524043 2.29239452 0 0 Z " fill="#8082B1" transform="translate(263,316)"/>
<path d="M0 0 C0.99 0 1.98 0 3 0 C3 1.98 3 3.96 3 6 C1.02 6.33 -0.96 6.66 -3 7 C-1.125 2.25 -1.125 2.25 0 0 Z " fill="#2D3095" transform="translate(298,311)"/>
<path d="M0 0 C0.33 0 0.66 0 1 0 C1.125 7.75 1.125 7.75 0 10 C-0.66 10 -1.32 10 -2 10 C-2 12.97 -2 15.94 -2 19 C-2.33 19 -2.66 19 -3 19 C-3.39325819 12.02330843 -2.63096039 6.48343811 0 0 Z " fill="#696CA4" transform="translate(265,283)"/>
<path d="M0 0 C1.98 0 3.96 0 6 0 C5.34 1.32 4.68 2.64 4 4 C3.34 4 2.68 4 2 4 C1.34 5.32 0.68 6.64 0 8 C-0.33 8 -0.66 8 -1 8 C-0.67 5.36 -0.34 2.72 0 0 Z " fill="#54B76D" transform="translate(364,180)"/>
<path d="M0 0 C0.33 0 0.66 0 1 0 C1.04898438 0.92683594 1.09796875 1.85367187 1.1484375 2.80859375 C1.22320312 4.00613281 1.29796875 5.20367187 1.375 6.4375 C1.44460937 7.63246094 1.51421875 8.82742188 1.5859375 10.05859375 C1.72257813 11.02925781 1.85921875 11.99992187 2 13 C2.66 13.33 3.32 13.66 4 14 C1.525 15.485 1.525 15.485 -1 17 C-0.67 11.39 -0.34 5.78 0 0 Z " fill="#41AE5F" transform="translate(252,377)"/>
<path d="M0 0 C3 1 3 1 4.1875 3.3125 C5 6 5 6 5 10 C5.66 10 6.32 10 7 10 C6.34 11.32 5.68 12.64 5 14 C4.16235732 12.04350603 3.33000941 10.08474444 2.5 8.125 C2.0359375 7.03445313 1.571875 5.94390625 1.09375 4.8203125 C0 2 0 2 0 0 Z " fill="#6B6DA8" transform="translate(305,371)"/>
<path d="M0 0 C0.66 0 1.32 0 2 0 C3.38226016 2.76452033 3.09525387 5.0461363 3.0625 8.125 C3.05347656 9.22070312 3.04445312 10.31640625 3.03515625 11.4453125 C3.02355469 12.28835938 3.01195312 13.13140625 3 14 C1.20724134 10.88089144 0.65709282 8.32317572 0.375 4.75 C0.30023438 3.85796875 0.22546875 2.9659375 0.1484375 2.046875 C0.09945312 1.37140625 0.05046875 0.6959375 0 0 Z " fill="#5CB677" transform="translate(249,362)"/>
<path d="M0 0 C0.66 0 1.32 0 2 0 C1.34580901 5.06998019 -0.8546409 9.41990777 -3 14 C-3.33 14 -3.66 14 -4 14 C-4 12.35 -4 10.7 -4 9 C-3.34 9 -2.68 9 -2 9 C-1.7834375 7.0509375 -1.7834375 7.0509375 -1.5625 5.0625 C-1.125 1.125 -1.125 1.125 0 0 Z " fill="#5EB47C" transform="translate(309,330)"/>
<path d="M0 0 C0.99 0.66 1.98 1.32 3 2 C2.67 2.598125 2.34 3.19625 2 3.8125 C0.79212012 6.05386471 0.79212012 6.05386471 1 9 C-0.32 9.33 -1.64 9.66 -3 10 C-2.49287967 6.28111761 -1.88391785 3.26545761 0 0 Z " fill="#485296" transform="translate(309,341)"/>
<path d="M0 0 C0.99 0.33 1.98 0.66 3 1 C4.62323754 4.75907641 5.23994929 7.92086213 5 12 C3 11 3 11 2.1484375 8.49609375 C1.89320313 7.48675781 1.63796875 6.47742188 1.375 5.4375 C1.11460937 4.42558594 0.85421875 3.41367187 0.5859375 2.37109375 C0.39257812 1.58863281 0.19921875 0.80617188 0 0 Z " fill="#5FBD79" transform="translate(361,465)"/>
<path d="M0 0 C0.66 0 1.32 0 2 0 C3.06775224 1.96466413 4.06553465 3.96855359 5 6 C4.67 6.66 4.34 7.32 4 8 C2.68 7.67 1.36 7.34 0 7 C-1.125 2.25 -1.125 2.25 0 0 Z " fill="#52539B" transform="translate(363,329)"/>
<path d="M0 0 C0.33 0.66 0.66 1.32 1 2 C0.67 2.66 0.34 3.32 0 4 C0.99 4.33 1.98 4.66 3 5 C3.6875 7.0625 3.6875 7.0625 4 9 C3.01 9.495 3.01 9.495 2 10 C-0.475 6.04 -0.475 6.04 -3 2 C-2.01 1.34 -1.02 0.68 0 0 Z " fill="#5A5EA3" transform="translate(324,404)"/>
<path d="M0 0 C1.57554035 2.88628401 2.46276373 5.53342384 3.125 8.75 C3.29257813 9.54921875 3.46015625 10.3484375 3.6328125 11.171875 C3.81457031 12.07679688 3.81457031 12.07679688 4 13 C1.4375 11 1.4375 11 -1 8 C-1.14963532 5.10883176 -0.63149193 2.86600184 0 0 Z " fill="#51BC78" transform="translate(246,372)"/>
<path d="M0 0 C0.33 0 0.66 0 1 0 C1.98329211 4.05607995 2.23600253 7.83062202 2 12 C1.34 12.66 0.68 13.32 0 14 C0 11.36 0 8.72 0 6 C-0.66 5.67 -1.32 5.34 -2 5 C-1.34 3.35 -0.68 1.7 0 0 Z " fill="#4D4F9D" transform="translate(566,362)"/>
<path d="M0 0 C1.59035502 3.18071004 2.64848268 5.87657653 3.625 9.25 C3.88539063 10.14203125 4.14578125 11.0340625 4.4140625 11.953125 C4.60742188 12.62859375 4.80078125 13.3040625 5 14 C4.01 14.495 4.01 14.495 3 15 C3 13.68 3 12.36 3 11 C2.34 11 1.68 11 1 11 C0.67 7.37 0.34 3.74 0 0 Z " fill="#58B26E" transform="translate(241,357)"/>
<path d="M0 0 C4.29 0 8.58 0 13 0 C13 0.33 13 0.66 13 1 C11.41913952 1.36504603 9.83516093 1.71660506 8.25 2.0625 C7.36828125 2.25972656 6.4865625 2.45695312 5.578125 2.66015625 C3.01320972 2.99825872 1.42908361 2.81158635 -1 2 C-0.67 1.34 -0.34 0.68 0 0 Z " fill="#6A6BAA" transform="translate(449,430)"/>
<path d="M0 0 C0.66 0.33 1.32 0.66 2 1 C2 1.66 2 2.32 2 3 C3.32 3.33 4.64 3.66 6 4 C5.67 5.32 5.34 6.64 5 8 C2.69 6.02 0.38 4.04 -2 2 C-1.34 1.34 -0.68 0.68 0 0 Z " fill="#61B97A" transform="translate(207,412)"/>
<path d="M0 0 C2.87136564 1.91424376 4.25447025 3.09078375 6 6 C6.1875 8.75 6.1875 8.75 6 11 C3.02753198 8.45217026 1.58464712 5.54659117 0 2 C0 1.34 0 0.68 0 0 Z " fill="#7D7CB1" transform="translate(312,388)"/>
<path d="M0 0 C1.48285242 0.95262034 2.96118201 1.91228405 4.4375 2.875 C5.67306641 3.67550781 5.67306641 3.67550781 6.93359375 4.4921875 C9 6 9 6 10 8 C7.97954558 7.39816251 5.97888961 6.72693904 4 6 C3.67 5.34 3.34 4.68 3 4 C0.97536745 3.34786708 0.97536745 3.34786708 -1 3 C-0.67 2.01 -0.34 1.02 0 0 Z " fill="#7071AE" transform="translate(300,286)"/>
<path d="M0 0 C0.99 0.33 1.98 0.66 3 1 C2.19152271 2.16945792 1.37810888 3.33550461 0.5625 4.5 C0.11003906 5.1496875 -0.34242188 5.799375 -0.80859375 6.46875 C-1.20175781 6.9740625 -1.59492188 7.479375 -2 8 C-2.33 8 -2.66 8 -3 8 C-3.36923077 3.44615385 -3.36923077 3.44615385 -1.5 1.1875 C-1.005 0.795625 -0.51 0.40375 0 0 Z " fill="#53B76F" transform="translate(347,204)"/>
<path d="M0 0 C0.33 0 0.66 0 1 0 C2.10228696 4.40914783 2.07654536 8.48382401 2 13 C0.25833355 9.76547659 -1.08977798 6.56503624 -2 3 C-1.34 2.01 -0.68 1.02 0 0 Z " fill="#3CAE60" transform="translate(406,126)"/>
<path d="M0 0 C2.97 0.99 5.94 1.98 9 3 C9.33 4.65 9.66 6.3 10 8 C8.51714758 7.04737966 7.03881799 6.08771595 5.5625 5.125 C4.73878906 4.59132813 3.91507813 4.05765625 3.06640625 3.5078125 C1 2 1 2 0 0 Z " fill="#74C48D" transform="translate(213,420)"/>
<path d="M0 0 C0.33 0 0.66 0 1 0 C1.1953125 6.0546875 1.1953125 6.0546875 1 8 C0.34 8.66 -0.32 9.32 -1 10 C-2.1875 8.375 -2.1875 8.375 -3 6 C-1.625 2.75 -1.625 2.75 0 0 Z " fill="#38A45E" transform="translate(312,319)"/>
<path d="M0 0 C4.24822374 0.47202486 6.19989709 2.96655518 9 6 C4.545 5.01 4.545 5.01 0 4 C0 2.68 0 1.36 0 0 Z " fill="#5F5DA6" transform="translate(305,269)"/>
<path d="M0 0 C0.66 0.33 1.32 0.66 2 1 C1.5206753 5.31392226 0.2542015 7.16569547 -3 10 C-3.33 8.02 -3.66 6.04 -4 4 C-2.35 4 -0.7 4 1 4 C0.67 2.68 0.34 1.36 0 0 Z " fill="#6E6FAB" transform="translate(339,265)"/>
<path d="M0 0 C0.625 1.8125 0.625 1.8125 1 4 C0.01 5.485 0.01 5.485 -1 7 C-1.66 7 -2.32 7 -3 7 C-3 7.66 -3 8.32 -3 9 C-3.66 9 -4.32 9 -5 9 C-3.7508258 5.54074837 -2.32472205 2.85306797 0 0 Z " fill="#63BE7C" transform="translate(375,145)"/>
<path d="M0 0 C0.33 0.66 0.66 1.32 1 2 C-0.5224249 5.57769851 -2.02930459 8.45368965 -5 11 C-5.66 10.67 -6.32 10.34 -7 10 C-3.535 5.05 -3.535 5.05 0 0 Z " fill="#80C693" transform="translate(391,122)"/>
<path d="M0 0 C1.11375 0.4640625 1.11375 0.4640625 2.25 0.9375 C4.50692176 1.8094925 6.6450153 2.47667007 9 3 C8.67 3.99 8.34 4.98 8 6 C2.33846154 4.52307692 2.33846154 4.52307692 0.625 1.875 C0.41875 1.25625 0.2125 0.6375 0 0 Z " fill="#49B671" transform="translate(351,506)"/>
<path d="M0 0 C0.66 0 1.32 0 2 0 C2.25 2.25 2.25 2.25 2 5 C0 7.3125 0 7.3125 -2 9 C-2.99 8.67 -3.98 8.34 -5 8 C-4.01 7.34 -3.02 6.68 -2 6 C-0.78715124 2.94570927 -0.78715124 2.94570927 0 0 Z " fill="#68BF7C" transform="translate(364,485)"/>
<path d="M0 0 C0.66 0 1.32 0 2 0 C1.34 4.62 0.68 9.24 0 14 C-0.33 14 -0.66 14 -1 14 C-1.02685938 11.85423363 -1.04633088 9.70837355 -1.0625 7.5625 C-1.07410156 6.36753906 -1.08570313 5.17257812 -1.09765625 3.94140625 C-1 1 -1 1 0 0 Z " fill="#48AF63" transform="translate(353,466)"/>
<path d="M0 0 C-0.56371414 3.26954202 -1.49962266 4.82575883 -4 7 C-4.99 6.67 -5.98 6.34 -7 6 C-6.01 5.67 -5.02 5.34 -4 5 C-4 3.68 -4 2.36 -4 1 C-2 0 -2 0 0 0 Z " fill="#5CB878" transform="translate(253,426)"/>
<path d="M0 0 C0 0.66 0 1.32 0 2 C-3.37097383 3.49821059 -5.20442119 4 -9 4 C-8.67 3.01 -8.34 2.02 -8 1 C-5.17884816 -0.07009208 -3.09455459 0 0 0 Z " fill="#515294" transform="translate(471,426)"/>
<path d="M0 0 C0.66 0 1.32 0 2 0 C0.66654496 3.59007126 -0.8943231 6.79570907 -3 10 C-3.33 10 -3.66 10 -4 10 C-4 8.35 -4 6.7 -4 5 C-3.34 4.67 -2.68 4.34 -2 4 C-0.86649466 1.98330173 -0.86649466 1.98330173 0 0 Z " fill="#56B976" transform="translate(281,387)"/>
<path d="M0 0 C2.96404505 2.80804268 5.44499019 5.18315774 7 9 C5.68 8.67 4.36 8.34 3 8 C2.67 6.68 2.34 5.36 2 4 C1.34 4 0.68 4 0 4 C0 2.68 0 1.36 0 0 Z " fill="#6164A2" transform="translate(345,300)"/>
<path d="M0 0 C1.32 0 2.64 0 4 0 C4.66 2.64 5.32 5.28 6 8 C1.125 3.375 1.125 3.375 0 0 Z " fill="#65BD7E" transform="translate(373,536)"/>
<path d="M0 0 C0.66 0.33 1.32 0.66 2 1 C1.46930939 4.82097239 0.50298434 7.06171403 -2 10 C-2.33 8.02 -2.66 6.04 -3 4 C-2.01 4 -1.02 4 0 4 C0 2.68 0 1.36 0 0 Z " fill="#4C4D92" transform="translate(564,376)"/>
<path d="M0 0 C5.75 0.75 5.75 0.75 8 3 C7.67 3.99 7.34 4.98 7 6 C5.83054208 5.19152271 4.66449539 4.37810888 3.5 3.5625 C2.8503125 3.11003906 2.200625 2.65757812 1.53125 2.19140625 C1.0259375 1.79824219 0.520625 1.40507812 0 1 C0 0.67 0 0.34 0 0 Z " fill="#6565A4" transform="translate(301,283)"/>
<path d="M0 0 C0.66 0 1.32 0 2 0 C1.34 1.98 0.68 3.96 0 6 C-1.65 6 -3.3 6 -5 6 C-3.38405168 3.95880212 -1.7143618 1.95927063 0 0 Z " fill="#4E4F96" transform="translate(471,248)"/>
<path d="M0 0 C0.33 0 0.66 0 1 0 C1 4.29 1 8.58 1 13 C-1.475 12.01 -1.475 12.01 -4 11 C-3.01 10.67 -2.02 10.34 -1 10 C-0.67 6.7 -0.34 3.4 0 0 Z " fill="#549B6E" transform="translate(335,245)"/>
<path d="M0 0 C4.455 2.97 4.455 2.97 9 6 C8.01 6.33 7.02 6.66 6 7 C2.8125 4.6875 2.8125 4.6875 0 2 C0 1.34 0 0.68 0 0 Z " fill="#5AB173" transform="translate(352,444)"/>
<path d="M0 0 C3.29148243 1.13499394 3.9959869 1.99283376 5.75 5.125 C6.1625 6.07375 6.575 7.0225 7 8 C5.68 7.67 4.36 7.34 3 7 C3 5.68 3 4.36 3 3 C2.01 2.67 1.02 2.34 0 2 C0 1.34 0 0.68 0 0 Z " fill="#4DB36B" transform="translate(217,311)"/>
<path d="M0 0 C0.33 0.66 0.66 1.32 1 2 C0.67 2.99 0.34 3.98 0 5 C-1.9375 5.5625 -1.9375 5.5625 -4 6 C-4.66 6.66 -5.32 7.32 -6 8 C-6 6.68 -6 5.36 -6 4 C-3 1.75 -3 1.75 0 0 Z " fill="#72C293" transform="translate(314,307)"/>
<path d="M0 0 C0.33 0.66 0.66 1.32 1 2 C1.66 2 2.32 2 3 2 C3 2.66 3 3.32 3 4 C0 6 0 6 -3 6 C-2.67 4.68 -2.34 3.36 -2 2 C-1.34 2 -0.68 2 0 2 C0 1.34 0 0.68 0 0 Z " fill="#58579D" transform="translate(459,260)"/>
<path d="M0 0 C0.99 0.33 1.98 0.66 3 1 C1.02 3.31 -0.96 5.62 -3 8 C-3.33 7.01 -3.66 6.02 -4 5 C-2.0625 2.3125 -2.0625 2.3125 0 0 Z " fill="#66C189" transform="translate(341,213)"/>
<path d="M0 0 C1.32 0.33 2.64 0.66 4 1 C2.02 3.31 0.04 5.62 -2 8 C-2.33 7.01 -2.66 6.02 -3 5 C-2.34 5 -1.68 5 -1 5 C-0.67 3.35 -0.34 1.7 0 0 Z " fill="#5DBA7C" transform="translate(387,154)"/>
<path d="M0 0 C1.32 0 2.64 0 4 0 C4 0.99 4 1.98 4 3 C4.66 3.33 5.32 3.66 6 4 C5.01 5.485 5.01 5.485 4 7 C2.02 3.535 2.02 3.535 0 0 Z " fill="#61BE7E" transform="translate(382,549)"/>
<path d="M0 0 C0.66 0.99 1.32 1.98 2 3 C0.71034824 4.37562854 -0.62689293 5.70766393 -2 7 C-2.66 7 -3.32 7 -4 7 C-4 6.01 -4 5.02 -4 4 C-3.34 4 -2.68 4 -2 4 C-2 3.34 -2 2.68 -2 2 C-1.34 2 -0.68 2 0 2 C0 1.34 0 0.68 0 0 Z " fill="#67C387" transform="translate(261,416)"/>
<path d="M0 0 C0.33 2.97 0.66 5.94 1 9 C0.34 9 -0.32 9 -1 9 C-2.25664978 6.09399739 -3 4.20395416 -3 1 C-1 0 -1 0 0 0 Z " fill="#2D2F7D" transform="translate(566,368)"/>
<path d="M0 0 C2.64465038 3.1254959 3.84414715 6.08788267 5 10 C2 9 2 9 0.8125 6.6875 C0 4 0 4 0 0 Z " fill="#63BA7D" transform="translate(225,321)"/>
<path d="M0 0 C-5.625 4 -5.625 4 -9 4 C-8.67 3.01 -8.34 2.02 -8 1 C-2.59770115 -1.29885057 -2.59770115 -1.29885057 0 0 Z " fill="#2D3280" transform="translate(447,322)"/>
<path d="M0 0 C1.4540625 0.0309375 1.4540625 0.0309375 2.9375 0.0625 C2.9375 0.7225 2.9375 1.3825 2.9375 2.0625 C0.9575 2.7225 -1.0225 3.3825 -3.0625 4.0625 C-3.3925 3.0725 -3.7225 2.0825 -4.0625 1.0625 C-3.0625 0.0625 -3.0625 0.0625 0 0 Z " fill="#67BA81" transform="translate(324.0625,309.9375)"/>
<path d="M0 0 C0.66 0.33 1.32 0.66 2 1 C-2.625 5.875 -2.625 5.875 -6 7 C-6 6.34 -6 5.68 -6 5 C-5.34 5 -4.68 5 -4 5 C-3.67 4.01 -3.34 3.02 -3 2 C-2.01 1.34 -1.02 0.68 0 0 Z " fill="#7EC98F" transform="translate(129,215)"/>
<path d="M0 0 C2.375 0.1875 2.375 0.1875 5 1 C6.3125 3.5625 6.3125 3.5625 7 6 C3.63279613 4.60667426 2.0140476 3.0210714 0 0 Z " fill="#67BB82" transform="translate(391,562)"/>
<path d="M0 0 C2.475 0.495 2.475 0.495 5 1 C5 1.66 5 2.32 5 3 C5.66 3 6.32 3 7 3 C6.67 3.99 6.34 4.98 6 6 C3.97945196 4.35830472 1.97956942 2.69088222 0 1 C0 0.67 0 0.34 0 0 Z " fill="#64BD7C" transform="translate(189,396)"/>
<path d="M0 0 C0.66 0.33 1.32 0.66 2 1 C2 2.32 2 3.64 2 5 C0.68 5.33 -0.64 5.66 -2 6 C-1.125 1.125 -1.125 1.125 0 0 Z " fill="#2EAC50" transform="translate(301,324)"/>
<path d="M0 0 C0.66 0 1.32 0 2 0 C2.144375 0.78375 2.28875 1.5675 2.4375 2.375 C2.87798925 4.96421018 2.87798925 4.96421018 4 7 C2.68 7.33 1.36 7.66 0 8 C0 5.36 0 2.72 0 0 Z " fill="#2E3886" transform="translate(316,320)"/>
<path d="M0 0 C1.32 1.32 2.64 2.64 4 4 C3.67 4.99 3.34 5.98 3 7 C1.68 6.01 0.36 5.02 -1 4 C-0.67 2.68 -0.34 1.36 0 0 Z " fill="#60619E" transform="translate(354,312)"/>
<path d="M0 0 C1.98 0 3.96 0 6 0 C6.66 1.65 7.32 3.3 8 5 C4.62496331 3.8141763 2.35277269 2.72426311 0 0 Z " fill="#717AA8" transform="translate(302,304)"/>
<path d="M0 0 C0.66 0.66 1.32 1.32 2 2 C1.625 4.125 1.625 4.125 1 6 C0.34 6 -0.32 6 -1 6 C-1.33 7.32 -1.66 8.64 -2 10 C-1.54177532 6.53058454 -1.10868317 3.32604951 0 0 Z " fill="#2E9452" transform="translate(332,293)"/>
<path d="M0 0 C0.66 0 1.32 0 2 0 C1.67 1.65 1.34 3.3 1 5 C0.01 5.33 -0.98 5.66 -2 6 C-1.125 1.125 -1.125 1.125 0 0 Z " fill="#4F549A" transform="translate(334,272)"/>
<path d="M0 0 C0.625 1.875 0.625 1.875 1 4 C0.34 4.66 -0.32 5.32 -1 6 C-3.125 5.625 -3.125 5.625 -5 5 C-3.35 3.35 -1.7 1.7 0 0 Z " fill="#515299" transform="translate(465,254)"/>
<path d="M0 0 C-3.08888522 2.05925681 -3.70935927 2.2390374 -7.1875 2.125 C-9.0746875 2.063125 -9.0746875 2.063125 -11 2 C-4.75 -1.125 -4.75 -1.125 0 0 Z " fill="#6263A0" transform="translate(512,229)"/>
<path d="M0 0 C0.33 1.32 0.66 2.64 1 4 C-0.9375 6.25 -0.9375 6.25 -3 8 C-3.66 7.67 -4.32 7.34 -5 7 C-3.35 4.69 -1.7 2.38 0 0 Z " fill="#73C88D" transform="translate(359,168)"/>
</svg>
