<svg xmlns="http://www.w3.org/2000/svg" xmlns:xlink="http://www.w3.org/1999/xlink" width="800" zoomAndPan="magnify" viewBox="0 0 600 599.999999" height="800" preserveAspectRatio="xMidYMid meet" version="1.0"><rect x="-60" width="720" fill="#ffffff" y="-60" height="719.999999" fill-opacity="1"/><rect x="-60" width="720" fill="#ffffff" y="-60" height="719.999999" fill-opacity="1"/><rect x="-60" width="720" fill="#ffffff" y="-60" height="719.999999" fill-opacity="1"/><path fill="#6655ff" d="M 81.65625 247.183594 C 86.980469 247.183594 91.960938 248.21875 96.597656 250.292969 C 101.234375 252.367188 105.277344 255.179688 108.726562 258.734375 C 112.179688 262.289062 114.890625 266.484375 116.863281 271.324219 C 118.835938 276.0625 119.824219 281.148438 119.824219 286.578125 C 119.824219 292.011719 118.835938 297.144531 116.863281 301.984375 C 114.890625 306.722656 112.179688 310.871094 108.726562 314.425781 C 105.277344 317.980469 101.234375 320.792969 96.597656 322.867188 C 91.960938 324.941406 86.980469 325.976562 81.65625 325.976562 C 76.921875 325.976562 72.4375 325.140625 68.195312 323.460938 C 64.054688 321.78125 60.304688 319.460938 56.953125 316.5 L 56.953125 358.265625 L 40.828125 358.265625 L 40.828125 247.035156 L 56.953125 247.035156 L 56.953125 256.511719 C 60.304688 253.648438 64.054688 251.378906 68.195312 249.699219 C 72.4375 248.019531 76.921875 247.183594 81.65625 247.183594 Z M 79.4375 309.539062 C 82.496094 309.539062 85.355469 308.945312 88.019531 307.761719 C 90.78125 306.476562 93.144531 304.796875 95.117188 302.722656 C 97.191406 300.652344 98.816406 298.230469 100 295.464844 C 101.183594 292.601562 101.777344 289.589844 101.777344 286.433594 C 101.777344 283.171875 101.183594 280.160156 100 277.398438 C 98.816406 274.535156 97.191406 272.066406 95.117188 269.992188 C 93.144531 267.917969 90.78125 266.289062 88.019531 265.105469 C 85.355469 263.917969 82.496094 263.328125 79.4375 263.328125 C 76.28125 263.328125 73.324219 263.917969 70.5625 265.105469 C 67.898438 266.289062 65.53125 267.917969 63.460938 269.992188 C 61.488281 272.066406 59.910156 274.535156 58.726562 277.398438 C 57.542969 280.160156 56.953125 283.171875 56.953125 286.433594 C 56.953125 289.589844 57.542969 292.601562 58.726562 295.464844 C 59.910156 298.230469 61.488281 300.652344 63.460938 302.722656 C 65.53125 304.796875 67.898438 306.476562 70.5625 307.761719 C 73.324219 308.945312 76.28125 309.539062 79.4375 309.539062 Z M 216.761719 251.476562 L 216.761719 325.976562 L 200.636719 325.976562 L 200.636719 315.3125 C 197.1875 319.757812 192.996094 323.3125 188.0625 325.976562 C 183.132812 328.644531 177.808594 329.976562 172.085938 329.976562 C 166.957031 329.976562 162.125 328.890625 157.589844 326.71875 C 153.054688 324.546875 149.058594 321.585938 145.605469 317.832031 C 142.253906 314.078125 139.589844 309.734375 137.617188 304.796875 C 135.644531 299.761719 134.660156 294.378906 134.660156 288.652344 C 134.660156 282.925781 135.644531 277.59375 137.617188 272.65625 C 139.589844 267.621094 142.253906 263.226562 145.605469 259.476562 C 149.058594 255.722656 153.054688 252.761719 157.589844 250.589844 C 162.125 248.417969 166.957031 247.328125 172.085938 247.328125 C 177.808594 247.328125 183.132812 248.664062 188.0625 251.328125 C 192.996094 253.894531 197.1875 257.449219 200.636719 261.992188 L 200.636719 251.476562 Z M 176.378906 313.386719 C 179.730469 313.386719 182.886719 312.746094 185.84375 311.464844 C 188.804688 310.179688 191.367188 308.453125 193.539062 306.277344 C 195.707031 304.007812 197.433594 301.390625 198.714844 298.429688 C 199.996094 295.464844 200.636719 292.257812 200.636719 288.800781 C 200.636719 285.445312 199.996094 282.285156 198.714844 279.324219 C 197.433594 276.261719 195.707031 273.644531 193.539062 271.472656 C 191.367188 269.203125 188.804688 267.425781 185.84375 266.140625 C 182.886719 264.855469 179.730469 264.214844 176.378906 264.214844 C 173.023438 264.214844 169.867188 264.855469 166.910156 266.140625 C 163.949219 267.425781 161.335938 269.203125 159.070312 271.472656 C 156.898438 273.644531 155.171875 276.261719 153.890625 279.324219 C 152.609375 282.285156 151.96875 285.445312 151.96875 288.800781 C 151.96875 292.257812 152.609375 295.464844 153.890625 298.429688 C 155.171875 301.390625 156.898438 304.007812 159.070312 306.277344 C 161.335938 308.453125 163.949219 310.179688 166.910156 311.464844 C 169.867188 312.746094 173.023438 313.386719 176.378906 313.386719 Z M 237.445312 247.035156 L 255.933594 247.035156 L 276.644531 297.835938 L 297.058594 247.035156 L 315.550781 247.035156 L 270.875 358.265625 L 252.089844 358.265625 L 267.179688 321.238281 Z M 388.328125 215.929688 C 395.921875 215.929688 403.023438 217.363281 409.632812 220.226562 C 416.339844 223.089844 422.15625 227.039062 427.089844 232.074219 C 432.117188 237.011719 436.0625 242.835938 438.921875 249.550781 C 441.78125 256.167969 443.210938 263.277344 443.210938 270.878906 C 443.210938 278.484375 441.78125 285.640625 438.921875 292.355469 C 436.0625 298.972656 432.117188 304.796875 427.089844 309.832031 C 422.15625 314.769531 416.339844 318.671875 409.632812 321.535156 C 403.023438 324.398438 395.921875 325.828125 388.328125 325.828125 C 380.734375 325.828125 373.585938 324.398438 366.878906 321.535156 C 360.273438 318.671875 354.453125 314.769531 349.425781 309.832031 C 344.492188 304.796875 340.546875 298.972656 337.589844 292.355469 C 334.730469 285.640625 333.300781 278.484375 333.300781 270.878906 C 333.300781 263.277344 334.730469 256.167969 337.589844 249.550781 C 340.546875 242.835938 344.492188 237.011719 349.425781 232.074219 C 354.453125 227.039062 360.273438 223.089844 366.878906 220.226562 C 373.585938 217.363281 380.734375 215.929688 388.328125 215.929688 Z M 388.328125 307.761719 C 393.359375 307.761719 398.09375 306.820312 402.53125 304.945312 C 407.066406 302.972656 411.011719 300.355469 414.367188 297.097656 C 417.71875 293.738281 420.332031 289.839844 422.207031 285.394531 C 424.179688 280.851562 425.164062 276.015625 425.164062 270.878906 C 425.164062 265.746094 424.179688 260.957031 422.207031 256.511719 C 420.332031 252.070312 417.71875 248.167969 414.367188 244.8125 C 411.011719 241.453125 407.066406 238.839844 402.53125 236.960938 C 398.09375 234.988281 393.359375 234 388.328125 234 C 383.203125 234 378.371094 234.988281 373.832031 236.960938 C 369.394531 238.839844 365.5 241.453125 362.144531 244.8125 C 358.792969 248.167969 356.128906 252.070312 354.15625 256.511719 C 352.285156 260.957031 351.347656 265.746094 351.347656 270.878906 C 351.347656 276.015625 352.285156 280.851562 354.15625 285.394531 C 356.128906 289.839844 358.792969 293.738281 362.144531 297.097656 C 365.5 300.355469 369.394531 302.972656 373.832031 304.945312 C 378.371094 306.820312 383.203125 307.761719 388.328125 307.761719 Z M 495.101562 216.078125 C 499.046875 216.078125 502.550781 216.472656 505.605469 217.261719 C 508.664062 217.953125 511.277344 218.742188 513.445312 219.632812 C 516.011719 220.71875 518.230469 221.855469 520.105469 223.039062 L 511.820312 237.257812 C 510.339844 236.371094 508.714844 235.578125 506.9375 234.886719 C 505.457031 234.296875 503.683594 233.753906 501.613281 233.257812 C 499.640625 232.667969 497.46875 232.371094 495.101562 232.371094 C 492.539062 232.371094 490.371094 232.816406 488.59375 233.703125 C 486.820312 234.59375 485.339844 235.679688 484.15625 236.960938 C 483.070312 238.246094 482.234375 239.675781 481.640625 241.257812 C 481.148438 242.738281 480.902344 244.121094 480.902344 245.40625 C 480.902344 249.15625 482.234375 251.972656 484.894531 253.847656 C 487.65625 255.625 491.058594 257.105469 495.101562 258.289062 C 499.246094 259.375 503.683594 260.460938 508.417969 261.546875 C 513.152344 262.636719 517.539062 264.3125 521.582031 266.585938 C 525.726562 268.757812 529.128906 271.867188 531.789062 275.914062 C 534.550781 279.867188 535.933594 285.34375 535.933594 292.355469 C 535.933594 296.898438 534.996094 301.242188 533.121094 305.390625 C 531.246094 309.4375 528.535156 312.992188 524.984375 316.054688 C 521.535156 319.117188 517.292969 321.535156 512.261719 323.3125 C 507.234375 325.089844 501.511719 325.976562 495.101562 325.976562 C 489.976562 325.976562 485.488281 325.484375 481.640625 324.496094 C 477.796875 323.410156 474.394531 322.128906 471.433594 320.644531 C 468.476562 319.164062 465.910156 317.632812 463.742188 316.054688 C 461.570312 314.375 459.648438 312.992188 457.972656 311.90625 L 466.40625 297.6875 C 472.222656 302.328125 477.648438 305.488281 482.675781 307.167969 C 487.707031 308.847656 491.847656 309.6875 495.101562 309.6875 C 498.0625 309.6875 500.972656 309.339844 503.832031 308.648438 C 506.789062 307.859375 509.453125 306.773438 511.820312 305.390625 C 514.1875 303.910156 516.058594 302.082031 517.441406 299.910156 C 518.921875 297.738281 519.660156 295.21875 519.660156 292.355469 C 519.660156 289.195312 518.871094 286.628906 517.292969 284.65625 C 515.714844 282.679688 513.644531 281.050781 511.078125 279.765625 C 508.515625 278.382812 505.558594 277.296875 502.203125 276.507812 C 498.949219 275.621094 495.597656 274.730469 492.144531 273.84375 C 488.792969 272.855469 485.4375 271.71875 482.085938 270.4375 C 478.832031 269.152344 475.921875 267.472656 473.355469 265.398438 C 470.792969 263.226562 468.722656 260.5625 467.144531 257.402344 C 465.566406 254.144531 464.777344 250.144531 464.777344 245.40625 C 464.777344 239.777344 465.960938 235.085938 468.328125 231.332031 C 470.695312 227.484375 473.503906 224.472656 476.757812 222.296875 C 480.015625 220.027344 483.316406 218.449219 486.671875 217.558594 C 490.121094 216.570312 492.933594 216.078125 495.101562 216.078125 Z M 495.101562 216.078125 " fill-opacity="1" fill-rule="nonzero"/><path fill="#000000" d="M 345.4375 368.03125 C 346.671875 368.03125 347.832031 368.300781 348.914062 368.84375 C 350.023438 369.363281 350.984375 370.089844 351.800781 371.027344 C 352.613281 371.941406 353.253906 373.015625 353.722656 374.25 C 354.191406 375.484375 354.425781 376.804688 354.425781 378.210938 C 354.425781 379.621094 354.191406 380.941406 353.722656 382.175781 C 353.253906 383.410156 352.613281 384.496094 351.800781 385.433594 C 350.984375 386.347656 350.023438 387.074219 348.914062 387.617188 C 347.832031 388.136719 346.671875 388.394531 345.4375 388.394531 C 344.035156 388.394531 342.738281 388.074219 341.554688 387.433594 C 340.398438 386.765625 339.398438 385.878906 338.558594 384.765625 L 338.558594 387.691406 L 334.527344 387.691406 L 334.527344 360.21875 L 338.558594 360.21875 L 338.558594 371.660156 C 339.398438 370.546875 340.398438 369.671875 341.554688 369.03125 C 342.738281 368.363281 344.035156 368.03125 345.4375 368.03125 Z M 344.402344 384.324219 C 345.214844 384.324219 345.980469 384.160156 346.695312 383.839844 C 347.410156 383.519531 348.027344 383.089844 348.546875 382.546875 C 349.0625 381.976562 349.46875 381.335938 349.765625 380.621094 C 350.085938 379.878906 350.246094 379.089844 350.246094 378.25 C 350.246094 377.410156 350.085938 376.632812 349.765625 375.917969 C 349.46875 375.175781 349.0625 374.535156 348.546875 373.992188 C 348.027344 373.449219 347.410156 373.015625 346.695312 372.695312 C 345.980469 372.375 345.214844 372.214844 344.402344 372.214844 C 343.589844 372.214844 342.824219 372.375 342.109375 372.695312 C 341.417969 373.015625 340.804688 373.449219 340.261719 373.992188 C 339.742188 374.535156 339.324219 375.175781 339.003906 375.917969 C 338.707031 376.632812 338.558594 377.410156 338.558594 378.25 C 338.558594 379.089844 338.707031 379.878906 339.003906 380.621094 C 339.324219 381.335938 339.742188 381.976562 340.261719 382.546875 C 340.804688 383.089844 341.417969 383.519531 342.109375 383.839844 C 342.824219 384.160156 343.589844 384.324219 344.402344 384.324219 Z M 358.871094 367.957031 L 363.496094 367.957031 L 368.671875 380.65625 L 373.777344 367.957031 L 378.398438 367.957031 L 367.230469 395.765625 L 362.53125 395.765625 L 366.304688 386.507812 Z M 418.433594 388.097656 C 415.625 388.097656 413.21875 387.542969 411.222656 386.433594 C 409.226562 385.320312 407.683594 383.765625 406.601562 381.765625 C 405.539062 379.742188 405.011719 377.359375 405.011719 374.621094 C 405.011719 371.90625 405.539062 369.546875 406.601562 367.546875 C 407.683594 365.523438 409.226562 363.957031 411.222656 362.847656 C 413.21875 361.734375 415.625 361.179688 418.433594 361.179688 C 420.160156 361.179688 421.8125 361.453125 423.390625 361.996094 C 424.96875 362.539062 426.261719 363.277344 427.273438 364.214844 L 425.5 368.769531 C 424.390625 367.90625 423.269531 367.277344 422.132812 366.882812 C 421.023438 366.460938 419.851562 366.253906 418.621094 366.253906 C 416.128906 366.253906 414.242188 366.980469 412.960938 368.4375 C 411.703125 369.867188 411.074219 371.929688 411.074219 374.621094 C 411.074219 377.3125 411.703125 379.386719 412.960938 380.839844 C 414.242188 382.296875 416.128906 383.027344 418.621094 383.027344 C 419.851562 383.027344 421.023438 382.828125 422.132812 382.433594 C 423.269531 382.015625 424.390625 381.371094 425.5 380.507812 L 427.273438 385.0625 C 426.261719 385.976562 424.96875 386.71875 423.390625 387.285156 C 421.8125 387.828125 420.160156 388.097656 418.433594 388.097656 Z M 427.566406 387.691406 L 439.550781 361.585938 L 444.171875 361.585938 L 456.15625 387.691406 L 450.386719 387.691406 L 447.945312 382.027344 L 435.777344 382.027344 L 433.371094 387.691406 Z M 441.804688 367.695312 L 437.699219 377.546875 L 446.058594 377.546875 L 441.878906 367.695312 Z M 467.402344 388.097656 C 465.355469 388.097656 463.421875 387.839844 461.597656 387.320312 C 459.796875 386.804688 458.292969 386.101562 457.085938 385.210938 L 458.75 380.695312 C 459.90625 381.507812 461.226562 382.148438 462.707031 382.617188 C 464.210938 383.089844 465.777344 383.324219 467.402344 383.324219 C 469.179688 383.324219 470.449219 383.050781 471.210938 382.507812 C 472 381.941406 472.394531 381.238281 472.394531 380.398438 C 472.394531 379.679688 472.125 379.113281 471.582031 378.695312 C 471.039062 378.273438 470.089844 377.917969 468.734375 377.621094 L 464.554688 376.730469 C 459.894531 375.746094 457.566406 373.324219 457.566406 369.472656 C 457.566406 367.820312 458.007812 366.375 458.898438 365.140625 C 459.785156 363.882812 461.015625 362.90625 462.59375 362.214844 C 464.199219 361.523438 466.046875 361.179688 468.144531 361.179688 C 469.941406 361.179688 471.632812 361.4375 473.210938 361.957031 C 474.789062 362.476562 476.09375 363.203125 477.128906 364.140625 L 475.464844 368.363281 C 473.445312 366.757812 470.992188 365.957031 468.105469 365.957031 C 466.550781 365.957031 465.34375 366.265625 464.480469 366.882812 C 463.644531 367.472656 463.222656 368.253906 463.222656 369.214844 C 463.222656 369.929688 463.484375 370.511719 464 370.957031 C 464.519531 371.398438 465.417969 371.757812 466.699219 372.027344 L 470.878906 372.917969 C 475.664062 373.953125 478.054688 376.300781 478.054688 379.953125 C 478.054688 381.582031 477.609375 383.015625 476.722656 384.25 C 475.859375 385.457031 474.628906 386.410156 473.023438 387.097656 C 471.445312 387.765625 469.574219 388.097656 467.402344 388.097656 Z M 491.09375 388.097656 C 489.046875 388.097656 487.113281 387.839844 485.289062 387.320312 C 483.488281 386.804688 481.984375 386.101562 480.777344 385.210938 L 482.441406 380.695312 C 483.597656 381.507812 484.917969 382.148438 486.398438 382.617188 C 487.902344 383.089844 489.46875 383.324219 491.09375 383.324219 C 492.871094 383.324219 494.140625 383.050781 494.902344 382.507812 C 495.691406 381.941406 496.085938 381.238281 496.085938 380.398438 C 496.085938 379.679688 495.816406 379.113281 495.273438 378.695312 C 494.730469 378.273438 493.78125 377.917969 492.425781 377.621094 L 488.246094 376.730469 C 483.585938 375.746094 481.257812 373.324219 481.257812 369.472656 C 481.257812 367.820312 481.699219 366.375 482.589844 365.140625 C 483.476562 363.882812 484.707031 362.90625 486.285156 362.214844 C 487.890625 361.523438 489.738281 361.179688 491.835938 361.179688 C 493.632812 361.179688 495.324219 361.4375 496.902344 361.957031 C 498.480469 362.476562 499.785156 363.203125 500.820312 364.140625 L 499.15625 368.363281 C 497.136719 366.757812 494.683594 365.957031 491.796875 365.957031 C 490.242188 365.957031 489.035156 366.265625 488.171875 366.882812 C 487.335938 367.472656 486.914062 368.253906 486.914062 369.214844 C 486.914062 369.929688 487.175781 370.511719 487.691406 370.957031 C 488.210938 371.398438 489.109375 371.757812 490.390625 372.027344 L 494.570312 372.917969 C 499.355469 373.953125 501.746094 376.300781 501.746094 379.953125 C 501.746094 381.582031 501.300781 383.015625 500.414062 384.25 C 499.550781 385.457031 498.320312 386.410156 496.714844 387.097656 C 495.136719 387.765625 493.265625 388.097656 491.09375 388.097656 Z M 517.5625 388.097656 C 514.996094 388.097656 512.742188 387.542969 510.792969 386.433594 C 508.871094 385.296875 507.367188 383.730469 506.28125 381.730469 C 505.222656 379.707031 504.691406 377.335938 504.691406 374.621094 C 504.691406 371.90625 505.222656 369.546875 506.28125 367.546875 C 507.367188 365.523438 508.871094 363.957031 510.792969 362.847656 C 512.714844 361.734375 514.972656 361.179688 517.5625 361.179688 C 520.148438 361.179688 522.40625 361.734375 524.328125 362.847656 C 526.277344 363.957031 527.78125 365.523438 528.839844 367.546875 C 529.925781 369.546875 530.46875 371.894531 530.46875 374.582031 C 530.46875 377.300781 529.925781 379.667969 528.839844 381.695312 C 527.78125 383.71875 526.277344 385.296875 524.328125 386.433594 C 522.40625 387.542969 520.148438 388.097656 517.5625 388.097656 Z M 517.5625 383.210938 C 519.730469 383.210938 521.417969 382.457031 522.628906 380.953125 C 523.859375 379.421875 524.476562 377.3125 524.476562 374.621094 C 524.476562 371.90625 523.871094 369.808594 522.664062 368.324219 C 521.457031 366.820312 519.753906 366.066406 517.5625 366.066406 C 515.414062 366.066406 513.726562 366.820312 512.496094 368.324219 C 511.285156 369.808594 510.683594 371.90625 510.683594 374.621094 C 510.683594 377.3125 511.285156 379.421875 512.496094 380.953125 C 513.726562 382.457031 515.414062 383.210938 517.5625 383.210938 Z M 517.5625 383.210938 " fill-opacity="1" fill-rule="nonzero"/></svg>